M48
; DRILL file {KiCad (6.0.8)} date Wed Oct 19 21:35:50 2022
; FORMAT={-:-/ absolute / inch / decimal}
; #@! TF.CreationDate,2022-10-19T21:35:50+01:00
; #@! TF.GenerationSoftware,Kicad,Pcbnew,(6.0.8)
; #@! TF.FileFunction,Plated,1,2,PTH
FMAT,2
INCH
; #@! TA.AperFunction,Plated,PTH,ViaDrill
T1C0.0118
; #@! TA.AperFunction,Plated,PTH,ViaDrill
T2C0.0157
; #@! TA.AperFunction,Plated,PTH,ComponentDrill
T3C0.0276
; #@! TA.AperFunction,Plated,PTH,ComponentDrill
T4C0.0315
; #@! TA.AperFunction,Plated,PTH,ComponentDrill
T5C0.0394
; #@! TA.AperFunction,Plated,PTH,ComponentDrill
T6C0.0433
; #@! TA.AperFunction,Plated,PTH,ComponentDrill
T7C0.0512
; #@! TA.AperFunction,Plated,PTH,ComponentDrill
T8C0.0591
; #@! TA.AperFunction,Plated,PTH,ComponentDrill
T9C0.0669
; #@! TA.AperFunction,Plated,PTH,ComponentDrill
T10C0.1260
%
G90
G05
T1
X1.65Y-8.55
X1.675Y-8.75
X1.875Y-13.075
X2.25Y-14.625
X2.325Y-8.5
X2.425Y-12.525
X2.45Y-7.5
X2.575Y-8.1
X2.575Y-8.2
X2.575Y-12.675
X2.6Y-4.475
X2.625Y-12.325
X2.625Y-12.825
X2.65Y-4.95
X2.65Y-12.975
X2.65Y-14.025
X2.675Y-5.625
X2.675Y-14.275
X2.7Y-4.625
X2.7Y-5.1
X2.75Y-8.5
X2.775Y-13.425
X2.775Y-13.925
X2.8Y-13.025
X2.8Y-14.8
X2.875Y-8.7
X2.875Y-9.3
X2.875Y-9.5
X2.925Y-14.075
X2.95Y-12.6
X2.975Y-10.375
X3.0Y-7.5
X3.0Y-10.75
X3.125Y-8.1
X3.5Y-11.975
X3.525Y-5.85
X3.525Y-8.85
X3.525Y-11.375
X3.625Y-5.425
X3.625Y-12.275
X3.625Y-12.425
X3.675Y-11.425
X3.675Y-14.175
X3.7Y-11.225
X3.75Y-12.925
X3.75Y-14.625
X3.775Y-13.225
X3.85Y-12.975
X3.9Y-14.975
X4.0Y-5.65
X4.0Y-9.2
X4.025Y-8.05
X4.025Y-9.525
X4.05Y-14.725
X4.075Y-7.7
X4.075Y-8.975
X4.075Y-10.575
X4.075Y-11.725
X4.1Y-8.1
X4.1Y-9.35
X4.125Y-12.875
X4.15Y-8.4
X4.15Y-9.2
X4.175Y-4.675
X4.25Y-10.775
X4.25Y-13.725
X4.275Y-12.075
X4.275Y-12.175
X4.3Y-12.225
X4.3Y-13.625
X4.325Y-7.2
X4.325Y-9.6
X4.325Y-12.325
X4.35Y-13.425
X4.375Y-7.1
X4.375Y-9.025
X4.375Y-9.6
X4.4Y-6.8
X4.4Y-11.475
X4.4Y-11.6
X4.4Y-12.575
X4.425Y-11.65
X4.425Y-14.275
X4.45Y-12.475
X4.45Y-14.475
X4.475Y-12.575
X4.55Y-5.875
X4.6Y-5.975
X4.6Y-9.3
X4.675Y-8.7
X4.8Y-7.7
X4.825Y-5.975
X4.825Y-9.65
X4.85Y-5.525
X4.875Y-6.45
X4.875Y-6.95
X4.875Y-12.575
X4.875Y-13.725
X4.9Y-5.85
X4.9Y-6.125
X4.9Y-6.6
X4.9Y-9.2
X4.9Y-9.65
X4.925Y-4.6
X4.925Y-6.25
X4.925Y-12.275
X4.925Y-12.925
X4.975Y-9.3
X5.0Y-5.65
X5.0Y-7.675
X5.0Y-7.775
X5.025Y-9.65
X5.05Y-11.775
X5.05Y-14.75
X5.075Y-6.675
X5.075Y-11.375
X5.075Y-13.225
X5.15Y-7.9
X5.2Y-8.25
X5.2Y-12.675
X5.225Y-8.7
X5.225Y-9.25
X5.25Y-8.625
X5.25Y-9.15
X5.275Y-8.8
X5.3Y-9.2
X5.35Y-6.125
X5.45Y-11.85
X5.5Y-5.625
X5.5Y-7.9
X5.5Y-14.175
X5.55Y-14.925
X5.675Y-6.125
X5.7Y-5.275
X5.7Y-9.8
X5.7Y-11.4
X5.7Y-12.475
X5.725Y-5.225
X5.725Y-5.55
X5.725Y-11.125
X5.725Y-12.025
X5.75Y-5.175
X5.75Y-11.05
X5.75Y-11.925
X5.75Y-13.275
X5.775Y-7.85
X5.775Y-10.95
X5.775Y-13.175
X5.8Y-8.7
X5.8Y-9.6
X5.825Y-9.425
X5.9Y-12.625
X5.9Y-12.825
X5.925Y-11.725
X5.95Y-8.575
X6.075Y-6.275
X6.075Y-7.6
X6.075Y-8.75
X6.1Y-7.8
X6.1Y-8.85
X6.1Y-10.8
X6.1Y-13.625
X6.125Y-7.9
X6.125Y-9.05
X6.125Y-9.15
X6.15Y-7.1
X6.15Y-8.8
X6.2Y-6.45
X6.2Y-10.05
X6.225Y-5.85
X6.25Y-7.25
X6.25Y-7.65
X6.25Y-9.925
X6.3Y-4.275
X6.3Y-6.95
X6.3Y-9.1
X6.3Y-9.25
X6.3Y-11.475
X6.325Y-5.25
X6.325Y-11.35
X6.35Y-5.625
X6.375Y-6.3
X6.375Y-6.5
X6.375Y-10.8
X6.375Y-11.45
X6.4Y-6.7
X6.425Y-11.25
X6.45Y-11.025
X6.45Y-13.275
X6.475Y-12.0
X6.525Y-8.75
X6.625Y-8.55
X6.75Y-10.4
X6.8Y-9.2
X6.8Y-13.925
X6.825Y-6.225
X6.825Y-10.4
X6.9Y-6.5
X6.925Y-10.4
X7.0Y-7.95
X7.025Y-6.85
X7.1Y-6.65
X7.125Y-9.1
X7.125Y-9.15
X7.125Y-9.2
X7.125Y-9.25
X7.175Y-5.3
X7.225Y-5.25
X7.275Y-5.35
X7.275Y-8.025
X7.275Y-14.075
X7.3Y-14.725
X7.35Y-8.55
X7.375Y-5.375
X7.375Y-8.5
X7.375Y-8.85
X7.45Y-8.475
X7.45Y-11.825
X7.475Y-4.825
X7.475Y-8.6
X7.5Y-4.45
X7.525Y-4.725
X7.525Y-7.45
X7.55Y-5.45
X7.55Y-8.75
X7.575Y-8.15
X7.575Y-8.625
X7.6Y-8.85
X7.65Y-8.8
X7.7Y-5.0
X7.725Y-7.9
X7.75Y-4.9
X7.75Y-6.625
X7.75Y-14.625
X7.775Y-7.8
X7.85Y-5.675
X7.95Y-11.825
X7.975Y-14.675
X8.025Y-13.475
X8.1Y-11.725
X8.1Y-12.625
X8.2Y-6.575
X8.225Y-11.775
X8.25Y-6.55
X8.275Y-6.775
X8.3Y-4.65
X8.3Y-6.625
X8.3Y-7.85
X8.325Y-4.575
X8.325Y-5.5
X8.325Y-7.925
X8.35Y-8.125
X8.5Y-8.05
X8.55Y-6.15
X8.575Y-7.9
X8.6Y-6.35
X8.625Y-4.45
X8.65Y-6.65
X8.65Y-8.0
X8.675Y-9.25
X8.725Y-6.75
X8.725Y-8.075
X8.725Y-8.9
X8.725Y-8.95
X8.725Y-9.2
X8.775Y-7.95
X8.825Y-7.925
X8.875Y-7.975
X8.875Y-9.925
X9.15Y-6.05
X9.6Y-8.0
X9.65Y-8.175
X9.675Y-4.675
X9.975Y-6.4
X10.025Y-6.6
X10.3Y-4.525
X10.35Y-5.9
X10.4Y-5.8
X10.6Y-5.85
X10.7Y-8.875
X10.7Y-9.475
X11.1Y-8.075
X11.15Y-8.125
X11.175Y-5.65
X11.2Y-8.325
X11.225Y-5.75
X11.275Y-5.8
X11.3Y-8.375
X11.325Y-5.625
X11.375Y-7.85
X11.4Y-5.6
X11.4Y-8.025
X11.425Y-7.975
X11.475Y-5.575
X11.475Y-7.95
X11.55Y-7.875
X11.625Y-5.55
X11.725Y-5.65
X12.2Y-3.275
X12.2Y-8.875
X12.25Y-5.325
X12.375Y-8.975
X12.425Y-8.775
X12.8Y-3.95
X12.8Y-5.65
X12.9Y-13.025
X12.925Y-12.975
X12.95Y-9.95
X12.95Y-12.925
X12.975Y-12.875
X13.0Y-9.125
X13.175Y-10.7
X13.425Y-5.95
X13.5Y-9.85
X13.55Y-4.375
X13.55Y-4.95
X13.575Y-5.0
X13.575Y-8.025
X13.65Y-7.825
X13.675Y-13.525
X13.7Y-5.15
X13.725Y-13.625
X13.75Y-8.175
X13.75Y-12.325
X13.8Y-7.775
X13.825Y-8.225
X13.825Y-12.125
X13.85Y-7.875
X14.025Y-4.075
T2
X0.775Y-9.25
X0.825Y-9.35
X0.825Y-14.275
X0.85Y-11.225
X0.85Y-13.325
X0.9Y-11.175
X0.9Y-13.025
X0.9Y-13.225
X0.925Y-6.95
X0.925Y-7.05
X0.95Y-6.05
X0.95Y-9.1
X0.975Y-8.575
X1.0Y-6.15
X1.0Y-11.675
X1.025Y-7.8
X1.025Y-9.375
X1.125Y-7.6
X1.15Y-5.45
X1.15Y-7.95
X1.3Y-7.45
X1.325Y-13.125
X1.325Y-14.425
X1.35Y-6.2
X1.4Y-6.25
X1.4Y-6.7
X1.4Y-9.35
X1.4Y-12.875
X1.425Y-3.55
X1.425Y-5.55
X1.425Y-6.8
X1.45Y-4.25
X1.45Y-4.75
X1.45Y-6.05
X1.45Y-7.1
X1.475Y-7.2
X1.5Y-4.15
X1.5Y-12.175
X1.525Y-5.0
X1.575Y-4.7
X1.575Y-4.9
X1.6Y-4.1
X1.6Y-4.6
X1.6Y-12.825
X1.625Y-12.925
X1.625Y-14.175
X1.65Y-13.025
X1.65Y-14.075
X1.675Y-13.125
X1.7Y-4.85
X1.7Y-13.225
X1.7Y-13.975
X1.7Y-14.025
X1.725Y-12.575
X1.75Y-4.175
X1.75Y-10.55
X1.75Y-11.0
X1.75Y-11.825
X1.75Y-12.625
X1.75Y-14.325
X1.775Y-4.65
X1.775Y-5.1
X1.775Y-8.075
X1.775Y-8.15
X1.775Y-9.1
X1.775Y-11.625
X1.775Y-13.35
X1.8Y-5.3
X1.8Y-8.9
X1.8Y-10.7
X1.8Y-12.925
X1.8Y-13.45
X1.825Y-4.75
X1.825Y-8.325
X1.825Y-8.7
X1.85Y-8.85
X1.85Y-9.4
X1.85Y-10.9
X1.85Y-13.4
X1.875Y-11.675
X1.875Y-14.825
X1.9Y-5.625
X1.9Y-11.775
X1.9Y-12.225
X1.925Y-5.2
X1.925Y-12.1
X1.95Y-4.55
X1.975Y-10.65
X2.0Y-5.4
X2.025Y-6.95
X2.025Y-13.825
X2.05Y-6.125
X2.05Y-7.3
X2.35Y-6.05
X2.375Y-6.0
X2.4Y-5.85
X2.4Y-14.075
X2.45Y-5.2
X2.45Y-6.9
X2.475Y-5.9
X2.5Y-5.35
X2.525Y-6.45
X2.525Y-12.125
X2.525Y-12.475
X2.525Y-13.325
X2.55Y-6.35
X2.55Y-11.35
X2.55Y-12.025
X2.575Y-11.3
X2.575Y-11.825
X2.6Y-8.85
X2.625Y-9.075
X2.675Y-8.975
X2.775Y-6.125
X2.775Y-12.175
X2.825Y-8.4
X2.825Y-9.575
X2.85Y-5.95
X2.85Y-7.7
X2.925Y-6.35
X2.95Y-6.45
X2.975Y-13.4
X2.975Y-13.8
X3.0Y-7.7
X3.075Y-7.9
X3.075Y-9.475
X3.1Y-9.425
X3.125Y-3.35
X3.15Y-13.5
X3.225Y-7.55
X3.225Y-8.05
X3.275Y-4.8
X3.375Y-9.475
X3.375Y-13.3
X3.4Y-14.275
X3.425Y-4.9
X3.425Y-8.275
X3.45Y-8.0
X3.45Y-12.375
X3.475Y-8.35
X3.475Y-12.675
X3.475Y-13.45
X3.475Y-13.8
X3.5Y-7.9
X3.525Y-9.5
X3.525Y-12.475
X3.55Y-5.225
X3.55Y-6.25
X3.55Y-8.275
X3.55Y-9.2
X3.575Y-5.575
X3.6Y-14.475
X3.65Y-13.9
X3.725Y-9.85
X3.75Y-5.375
X3.75Y-12.1
X3.775Y-10.675
X3.775Y-10.975
X3.8Y-12.825
X3.825Y-11.275
X3.85Y-11.775
X3.85Y-12.675
X3.85Y-13.225
X3.85Y-14.925
X3.9Y-14.875
X3.925Y-6.175
X3.95Y-6.25
X3.95Y-8.275
X4.025Y-10.575
X4.075Y-12.125
X4.15Y-5.3
X4.15Y-13.525
X4.175Y-3.925
X4.225Y-4.025
X4.225Y-4.6
X4.25Y-4.5
X4.275Y-4.25
X4.275Y-4.4
X4.325Y-4.175
X4.325Y-4.3
X4.375Y-4.35
X4.375Y-8.25
X4.4Y-4.875
X4.4Y-5.025
X4.4Y-5.225
X4.425Y-8.3
X4.45Y-13.9
X4.475Y-4.85
X4.5Y-8.65
X4.6Y-6.25
X4.6Y-6.5
X4.625Y-10.525
X4.725Y-9.975
X4.8Y-4.975
X4.825Y-8.6
X4.825Y-10.525
X4.85Y-8.375
X4.85Y-9.35
X4.9Y-5.475
X4.95Y-3.825
X4.95Y-5.175
X4.95Y-10.6
X4.95Y-10.675
X4.975Y-13.675
X4.975Y-14.55
X5.0Y-3.875
X5.0Y-5.525
X5.025Y-5.425
X5.025Y-7.2
X5.025Y-13.5
X5.05Y-4.125
X5.05Y-8.125
X5.05Y-14.4
X5.075Y-5.325
X5.1Y-3.825
X5.125Y-4.925
X5.125Y-5.225
X5.125Y-7.825
X5.125Y-8.0
X5.15Y-6.4
X5.175Y-5.875
X5.175Y-7.6
X5.2Y-6.3
X5.225Y-6.2
X5.225Y-7.1
X5.275Y-6.15
X5.275Y-10.55
X5.325Y-5.825
X5.325Y-10.5
X5.35Y-10.425
X5.375Y-10.375
X5.45Y-6.3
X5.5Y-12.575
X5.55Y-4.625
X5.55Y-13.325
X5.6Y-13.675
X5.625Y-13.525
X5.65Y-8.125
X5.775Y-7.5
X5.775Y-9.925
X5.8Y-5.125
X5.825Y-6.4
X5.825Y-7.6
X5.85Y-4.25
X5.85Y-4.95
X5.85Y-5.575
X5.9Y-5.475
X5.925Y-5.4
X5.95Y-5.3
X5.975Y-5.15
X6.0Y-5.075
X6.025Y-3.975
X6.025Y-4.975
X6.05Y-4.875
X6.075Y-7.35
X6.1Y-4.5
X6.1Y-5.125
X6.125Y-6.0
X6.15Y-4.45
X6.175Y-8.175
X6.175Y-8.7
X6.2Y-3.85
X6.225Y-5.275
X6.25Y-3.525
X6.3Y-11.675
X6.325Y-13.1
X6.35Y-13.05
X6.4Y-11.575
X6.4Y-11.625
X6.425Y-11.675
X6.425Y-12.975
X6.475Y-13.675
X6.5Y-4.575
X6.5Y-12.075
X6.525Y-11.85
X6.525Y-13.575
X6.55Y-12.325
X6.575Y-3.825
X6.575Y-4.175
X6.575Y-12.225
X6.575Y-13.475
X6.625Y-10.5
X6.625Y-10.65
X6.625Y-13.375
X6.65Y-10.575
X6.65Y-10.75
X6.675Y-10.45
X6.675Y-10.85
X6.675Y-13.525
X6.7Y-10.95
X6.7Y-13.725
X6.725Y-11.05
X6.725Y-14.925
X6.75Y-10.5
X6.775Y-11.15
X6.8Y-8.7
X6.825Y-3.425
X6.85Y-10.475
X6.875Y-3.475
X6.875Y-5.825
X6.9Y-7.55
X6.925Y-7.65
X6.95Y-7.75
X7.0Y-7.85
X7.05Y-3.25
X7.125Y-10.1
X7.15Y-6.8
X7.15Y-7.5
X7.2Y-9.925
X7.225Y-7.3
X7.225Y-10.525
X7.25Y-14.9
X7.275Y-6.7
X7.275Y-7.9
X7.3Y-14.225
X7.325Y-6.9
X7.325Y-7.925
X7.325Y-12.325
X7.325Y-14.85
X7.35Y-5.925
X7.35Y-12.4
X7.375Y-6.975
X7.375Y-7.975
X7.375Y-12.225
X7.375Y-14.325
X7.4Y-5.625
X7.4Y-7.7
X7.4Y-11.75
X7.4Y-12.125
X7.4Y-13.825
X7.425Y-14.175
X7.45Y-3.3
X7.45Y-5.55
X7.45Y-11.2
X7.45Y-13.7
X7.475Y-7.6
X7.5Y-11.5
X7.5Y-12.875
X7.55Y-3.875
X7.55Y-5.3
X7.575Y-6.325
X7.625Y-6.125
X7.625Y-7.075
X7.65Y-10.075
X7.675Y-3.7
X7.675Y-5.225
X7.675Y-7.75
X7.675Y-7.875
X7.95Y-3.625
X7.95Y-4.125
X7.95Y-14.125
X7.975Y-9.4
X7.975Y-13.075
X7.975Y-14.025
X7.975Y-14.475
X8.05Y-14.55
X8.05Y-14.875
X8.075Y-8.9
X8.125Y-8.925
X8.125Y-10.4
X8.125Y-11.925
X8.175Y-12.15
X8.225Y-11.875
X8.25Y-4.3
X8.25Y-10.25
X8.3Y-4.275
X8.3Y-10.45
X8.325Y-3.75
X8.325Y-8.425
X8.325Y-10.3
X8.35Y-5.2
X8.35Y-13.6
X8.375Y-3.525
X8.375Y-8.925
X8.375Y-10.225
X8.4Y-6.3
X8.425Y-7.2
X8.425Y-10.375
X8.45Y-6.8
X8.45Y-7.3
X8.475Y-5.25
X8.475Y-10.25
X8.5Y-6.9
X8.5Y-13.95
X8.525Y-10.4
X8.525Y-14.375
X8.55Y-13.925
X8.575Y-8.825
X8.575Y-14.85
X8.6Y-13.5
X8.625Y-12.475
X8.625Y-13.35
X8.65Y-14.6
X8.675Y-10.875
X8.7Y-14.475
X8.725Y-10.975
X8.725Y-11.975
X8.725Y-14.575
X8.75Y-14.025
X8.775Y-12.075
X8.775Y-12.925
X8.775Y-14.125
X8.775Y-14.7
X8.8Y-9.425
X8.8Y-13.025
X8.825Y-14.8
X8.85Y-11.075
X8.85Y-12.175
X8.875Y-11.175
X8.875Y-12.25
X8.875Y-13.15
X8.875Y-14.225
X8.9Y-10.925
X8.9Y-13.225
X8.95Y-11.025
X8.95Y-12.025
X8.95Y-14.075
X8.95Y-14.325
X8.975Y-12.125
X8.975Y-12.975
X8.975Y-14.175
X9.0Y-3.225
X9.0Y-11.125
X9.0Y-12.225
X9.0Y-13.075
X9.0Y-14.275
X9.025Y-12.375
X9.025Y-13.175
X9.025Y-14.425
X9.075Y-11.525
X9.075Y-13.625
X9.125Y-5.25
X9.15Y-8.45
X9.1969Y-5.7531
X9.275Y-6.9
X9.325Y-4.875
X9.325Y-6.55
X9.35Y-6.65
X9.475Y-7.1
X9.525Y-5.225
X9.525Y-11.625
X9.525Y-13.675
X9.55Y-4.525
X9.575Y-5.2
X9.7Y-7.45
X9.725Y-6.05
X9.75Y-4.225
X9.75Y-5.575
X9.775Y-5.525
X9.8Y-4.625
X9.8Y-5.475
X9.875Y-6.0
X9.875Y-6.1
X9.875Y-6.95
X9.925Y-5.85
X9.925Y-7.05
X9.925Y-7.825
X9.975Y-11.65
X9.975Y-13.7
X10.125Y-5.7
X10.175Y-5.8
X10.225Y-4.45
X10.225Y-5.7
X10.225Y-5.9
X10.275Y-4.175
X10.3Y-7.1
X10.35Y-4.575
X10.425Y-11.675
X10.425Y-13.725
X10.475Y-5.45
X10.5Y-5.15
X10.525Y-8.25
X10.7Y-5.25
X10.8Y-5.2
X10.875Y-11.7
X10.875Y-13.75
X10.975Y-6.05
X11.0Y-5.15
X11.0Y-7.8
X11.25Y-7.5
X11.275Y-7.2
X11.32Y-3.56
X11.325Y-11.725
X11.325Y-13.775
X11.775Y-11.75
X11.775Y-13.925
X11.775Y-14.875
X11.925Y-8.825
X12.075Y-7.475
X12.075Y-7.8
X12.2Y-6.1
X12.2Y-6.95
X12.225Y-11.9
X12.225Y-13.975
X12.25Y-6.25
X12.375Y-3.75
X12.375Y-7.575
X12.675Y-6.35
X12.725Y-6.45
X12.775Y-6.55
X12.825Y-6.9
X12.875Y-6.8
X12.9Y-6.2
X12.9Y-9.35
X12.9Y-9.725
X12.925Y-6.7
X12.925Y-7.15
X12.95Y-6.3
X12.95Y-8.075
X12.975Y-6.6
X12.975Y-8.55
X13.0Y-6.4
X13.375Y-5.5
X13.525Y-14.9
X13.775Y-5.9
X14.325Y-12.375
X14.75Y-6.7
X14.85Y-7.15
T3
X1.05Y-9.6
X1.55Y-3.6
X1.55Y-3.75
X1.55Y-3.85
X1.55Y-3.95
X1.55Y-9.6
X2.05Y-3.6
X2.05Y-3.75
X2.05Y-3.85
X2.05Y-3.95
X3.0476Y-13.7173
X3.05Y-13.625
X3.05Y-13.875
X3.5Y-14.175
X3.5Y-14.675
X3.5476Y-13.7173
X3.55Y-13.625
X3.55Y-13.875
X4.45Y-4.325
X4.45Y-4.425
X4.45Y-4.525
X4.95Y-4.325
X4.95Y-4.425
X4.95Y-4.525
X7.05Y-3.425
X7.05Y-3.525
X7.05Y-3.625
X7.45Y-6.175
X7.45Y-6.675
X7.55Y-3.425
X7.55Y-3.525
X7.55Y-3.625
X7.575Y-6.175
X7.575Y-6.675
X8.0Y-10.625
X8.0Y-12.05
X8.0Y-12.15
X8.0Y-12.3
X8.0Y-12.4
X8.0Y-12.575
X8.0Y-12.675
X8.0004Y-10.725
X8.0004Y-10.825
X8.0004Y-10.925
X8.0004Y-11.025
X8.0004Y-11.125
X8.375Y-4.8
X8.375Y-5.0
X8.5Y-10.625
X8.5Y-12.05
X8.5Y-12.15
X8.5Y-12.3
X8.5Y-12.4
X8.5Y-12.575
X8.5Y-12.675
X8.5004Y-10.725
X8.5004Y-10.825
X8.5004Y-10.925
X8.5004Y-11.025
X8.5004Y-11.125
X8.525Y-9.825
X8.8Y-8.125
X8.875Y-4.8
X8.875Y-5.0
X8.875Y-9.825
X9.15Y-8.125
X9.4Y-3.425
X9.4Y-3.625
X9.4Y-3.725
X9.4Y-3.825
X9.4Y-3.925
X9.4Y-4.025
X9.9Y-3.425
X9.9Y-3.625
X9.9Y-3.725
X9.9Y-3.825
X9.9Y-3.925
X9.9Y-4.025
X10.2Y-3.475
X10.2Y-3.575
X10.4Y-4.85
X10.4Y-5.35
X10.5Y-3.875
X10.5Y-4.375
X10.5Y-4.85
X10.5Y-5.35
X10.6Y-3.875
X10.6Y-4.375
X10.7Y-3.475
X10.7Y-3.575
X10.7Y-3.875
X10.7Y-4.375
X10.7Y-4.85
X10.7Y-5.35
X10.8Y-3.875
X10.8Y-4.375
X10.8Y-4.85
X10.8Y-5.35
X10.875Y-9.875
X10.875Y-10.375
X10.9Y-3.875
X10.9Y-4.375
X10.9Y-4.85
X10.9Y-5.35
X10.975Y-9.875
X10.975Y-10.375
X11.0Y-3.875
X11.0Y-4.375
X11.0Y-4.85
X11.0Y-5.35
X11.075Y-9.875
X11.075Y-10.375
X11.1Y-3.875
X11.1Y-4.375
X11.1Y-4.85
X11.1Y-5.35
X11.175Y-9.875
X11.175Y-10.375
X11.2Y-3.875
X11.2Y-4.375
X11.2Y-4.85
X11.2Y-5.35
X11.275Y-9.875
X11.275Y-10.375
X11.3Y-3.875
X11.3Y-4.375
X11.3Y-4.85
X11.3Y-5.35
X11.375Y-9.875
X11.375Y-10.375
X11.5Y-3.875
X11.5Y-4.375
X11.5Y-4.85
X11.5Y-5.35
X11.6Y-3.875
X11.6Y-4.375
X11.7Y-3.875
X11.7Y-4.375
X11.8Y-3.875
X11.8Y-4.375
X11.9Y-3.875
X11.9Y-4.375
X12.0Y-3.875
X12.0Y-4.375
X12.1Y-3.875
X12.1Y-4.375
X12.1Y-4.525
X12.1Y-5.025
X12.2Y-3.875
X12.2Y-4.375
X12.65Y-3.875
X12.65Y-4.375
X13.125Y-10.925
X13.125Y-11.025
X13.125Y-11.225
X13.125Y-11.325
X13.125Y-11.425
X13.125Y-11.625
X13.125Y-11.725
X13.125Y-11.825
X13.125Y-11.925
X13.125Y-12.025
X13.125Y-12.125
X13.125Y-12.225
X13.125Y-12.325
X13.125Y-12.425
X13.125Y-12.575
X13.475Y-10.925
X13.475Y-11.025
X13.475Y-11.225
X13.475Y-11.325
X13.475Y-11.425
X13.475Y-11.625
X13.475Y-11.725
X13.475Y-11.825
X13.475Y-11.925
X13.475Y-12.025
X13.475Y-12.125
X13.475Y-12.225
X13.475Y-12.325
X13.475Y-12.425
X13.475Y-12.575
X13.775Y-4.075
X13.775Y-4.175
X13.775Y-4.274
X13.775Y-4.375
X13.775Y-10.825
X13.775Y-11.025
X13.775Y-11.125
X13.775Y-11.75
X13.875Y-9.525
X13.875Y-9.625
X13.875Y-9.725
X13.875Y-9.825
X13.875Y-9.925
X13.875Y-10.025
X13.875Y-10.125
X13.875Y-10.225
X13.875Y-10.325
X13.875Y-10.425
X13.875Y-10.525
X13.875Y-10.625
X13.975Y-7.825
X13.975Y-8.325
X14.125Y-10.825
X14.125Y-11.025
X14.125Y-11.125
X14.125Y-11.75
X14.125Y-12.925
X14.125Y-13.425
X14.175Y-7.825
X14.175Y-8.325
X14.225Y-9.525
X14.225Y-9.625
X14.225Y-9.725
X14.225Y-9.825
X14.225Y-9.925
X14.225Y-10.025
X14.225Y-10.125
X14.225Y-10.225
X14.225Y-10.325
X14.225Y-10.425
X14.225Y-10.525
X14.225Y-10.625
X14.225Y-12.925
X14.225Y-13.425
X14.275Y-4.075
X14.275Y-4.175
X14.275Y-4.274
X14.275Y-4.375
X14.275Y-7.825
X14.275Y-8.325
X14.325Y-12.925
X14.325Y-13.425
X14.375Y-7.825
X14.375Y-8.325
X14.426Y-12.925
X14.426Y-13.425
X14.575Y-7.825
X14.575Y-8.325
X14.675Y-7.825
X14.675Y-8.325
T4
X1.0496Y-11.5252
X1.0496Y-11.6252
X1.0496Y-11.7252
X1.0496Y-11.8252
X1.0496Y-11.9252
X1.0496Y-12.0252
X1.0496Y-12.1252
X1.05Y-3.65
X1.05Y-3.75
X1.05Y-3.85
X1.05Y-3.95
X1.05Y-4.05
X1.05Y-4.15
X1.05Y-4.25
X1.05Y-4.85
X1.05Y-4.95
X1.05Y-5.05
X1.05Y-5.15
X1.05Y-5.25
X1.05Y-5.35
X1.05Y-5.45
X1.05Y-6.25
X1.05Y-6.35
X1.05Y-6.45
X1.05Y-6.55
X1.05Y-6.65
X1.05Y-6.75
X1.05Y-6.85
X1.05Y-6.95
X1.05Y-7.05
X1.05Y-7.15
X1.05Y-7.25
X1.05Y-7.35
X1.05Y-7.45
X1.05Y-7.55
X1.05Y-7.65
X1.05Y-7.75
X1.05Y-7.85
X1.05Y-7.95
X1.05Y-8.05
X1.05Y-8.15
X1.05Y-8.275
X1.05Y-8.65
X1.05Y-8.75
X1.05Y-8.85
X1.05Y-8.95
X1.05Y-9.05
X1.05Y-9.15
X1.05Y-9.25
X1.05Y-12.425
X1.05Y-12.525
X1.05Y-12.625
X1.05Y-12.725
X1.05Y-12.825
X1.05Y-12.925
X1.05Y-13.025
X1.05Y-13.125
X1.05Y-13.225
X1.05Y-13.325
X1.05Y-13.425
X1.05Y-13.725
X1.05Y-13.825
X1.05Y-13.925
X1.05Y-14.025
X1.05Y-14.125
X1.05Y-14.225
X1.05Y-14.325
X1.05Y-14.425
X1.05Y-14.525
X1.05Y-14.625
X1.05Y-14.725
X1.075Y-9.5
X1.1Y-3.375
X1.1Y-4.4
X1.1Y-4.6
X1.1Y-5.9
X1.1Y-12.275
X1.125Y-13.575
X1.15Y-10.6
X1.15Y-10.7
X1.15Y-10.8
X1.15Y-10.9
X1.15Y-11.0
X1.15Y-11.1
X1.15Y-11.2
X1.15Y-11.375
X1.15Y-14.95
X1.2Y-9.975
X1.2Y-10.45
X1.2469Y-8.275
X1.2719Y-9.5
X1.2969Y-3.375
X1.2969Y-4.4
X1.2969Y-4.6
X1.2969Y-5.9
X1.2969Y-12.275
X1.3219Y-13.575
X1.3469Y-11.375
X1.3469Y-14.95
X1.3496Y-11.5252
X1.3496Y-11.6252
X1.3496Y-11.7252
X1.3496Y-11.8252
X1.3496Y-11.9252
X1.3496Y-12.0252
X1.3496Y-12.1252
X1.35Y-3.65
X1.35Y-3.75
X1.35Y-3.85
X1.35Y-3.95
X1.35Y-4.05
X1.35Y-4.15
X1.35Y-4.25
X1.35Y-4.85
X1.35Y-4.95
X1.35Y-5.05
X1.35Y-5.15
X1.35Y-5.25
X1.35Y-5.35
X1.35Y-5.45
X1.35Y-8.65
X1.35Y-8.75
X1.35Y-8.85
X1.35Y-8.95
X1.35Y-9.05
X1.35Y-9.15
X1.35Y-9.25
X1.3969Y-9.975
X1.3969Y-10.45
X1.45Y-10.6
X1.45Y-10.7
X1.45Y-10.8
X1.45Y-10.9
X1.45Y-11.0
X1.45Y-11.1
X1.45Y-11.2
X1.45Y-12.425
X1.45Y-12.525
X1.45Y-12.625
X1.45Y-12.725
X1.45Y-12.825
X1.45Y-12.925
X1.45Y-13.025
X1.45Y-13.125
X1.45Y-13.225
X1.45Y-13.325
X1.45Y-13.425
X1.45Y-13.725
X1.45Y-13.825
X1.45Y-13.925
X1.45Y-14.025
X1.45Y-14.125
X1.45Y-14.225
X1.45Y-14.325
X1.45Y-14.425
X1.45Y-14.525
X1.45Y-14.625
X1.45Y-14.725
X1.65Y-6.25
X1.65Y-6.35
X1.65Y-6.45
X1.65Y-6.55
X1.65Y-6.65
X1.65Y-6.75
X1.65Y-6.85
X1.65Y-6.95
X1.65Y-7.05
X1.65Y-7.15
X1.65Y-7.25
X1.65Y-7.35
X1.65Y-7.45
X1.65Y-7.55
X1.65Y-7.65
X1.65Y-7.75
X1.65Y-7.85
X1.65Y-7.95
X1.65Y-8.05
X1.65Y-8.15
X1.7016Y-4.075
X1.8984Y-4.075
X2.05Y-4.65
X2.05Y-4.75
X2.05Y-4.85
X2.05Y-4.95
X2.05Y-5.05
X2.05Y-5.15
X2.05Y-5.25
X2.05Y-5.35
X2.05Y-5.45
X2.05Y-5.55
X2.05Y-5.775
X2.05Y-8.55
X2.05Y-8.65
X2.05Y-8.75
X2.05Y-8.85
X2.05Y-8.95
X2.05Y-9.05
X2.05Y-9.15
X2.05Y-9.25
X2.05Y-10.6
X2.05Y-10.7
X2.05Y-10.8
X2.05Y-10.9
X2.05Y-11.0
X2.05Y-11.1
X2.05Y-11.2
X2.05Y-11.525
X2.05Y-11.625
X2.05Y-11.725
X2.05Y-11.825
X2.05Y-11.925
X2.05Y-12.025
X2.05Y-12.125
X2.05Y-12.225
X2.05Y-12.325
X2.05Y-12.425
X2.05Y-12.725
X2.05Y-12.825
X2.05Y-12.925
X2.05Y-13.025
X2.05Y-13.125
X2.05Y-13.225
X2.05Y-13.325
X2.05Y-13.425
X2.05Y-14.025
X2.05Y-14.125
X2.05Y-14.225
X2.05Y-14.325
X2.05Y-14.425
X2.05Y-14.525
X2.05Y-14.625
X2.05Y-14.725
X2.0994Y-13.795
X2.1Y-3.375
X2.1Y-4.5
X2.1Y-9.45
X2.1Y-10.35
X2.1Y-11.325
X2.1Y-12.55
X2.1Y-13.575
X2.1Y-14.95
X2.2469Y-5.775
X2.2963Y-13.795
X2.2969Y-3.375
X2.2969Y-4.5
X2.2969Y-9.45
X2.2969Y-10.35
X2.2969Y-11.325
X2.2969Y-12.55
X2.2969Y-13.575
X2.2969Y-14.95
X2.35Y-4.65
X2.35Y-4.75
X2.35Y-4.85
X2.35Y-4.95
X2.35Y-5.05
X2.35Y-5.15
X2.35Y-5.25
X2.35Y-5.35
X2.35Y-5.45
X2.35Y-5.55
X2.35Y-8.55
X2.35Y-8.65
X2.35Y-8.75
X2.35Y-8.85
X2.35Y-8.95
X2.35Y-9.05
X2.35Y-9.15
X2.35Y-9.25
X2.35Y-10.6
X2.35Y-10.7
X2.35Y-10.8
X2.35Y-10.9
X2.35Y-11.0
X2.35Y-11.1
X2.35Y-11.2
X2.35Y-11.525
X2.35Y-11.625
X2.35Y-11.725
X2.35Y-11.825
X2.35Y-11.925
X2.35Y-12.025
X2.35Y-12.125
X2.35Y-12.225
X2.35Y-12.325
X2.35Y-12.425
X2.35Y-12.725
X2.35Y-12.825
X2.35Y-12.925
X2.35Y-13.025
X2.35Y-13.125
X2.35Y-13.225
X2.35Y-13.325
X2.35Y-13.425
X2.35Y-14.025
X2.35Y-14.125
X2.35Y-14.225
X2.35Y-14.325
X2.35Y-14.425
X2.35Y-14.525
X2.35Y-14.625
X2.35Y-14.725
X2.3988Y-3.7571
X2.3988Y-3.95
X2.8Y-6.25
X2.8Y-6.35
X2.8Y-6.45
X2.8Y-6.55
X2.8Y-6.65
X2.8Y-6.75
X2.8Y-6.85
X2.8Y-6.95
X2.8Y-7.05
X2.8Y-7.15
X2.8Y-7.25
X2.8Y-7.35
X2.8Y-7.45
X2.8Y-7.55
X2.8Y-7.65
X2.8Y-7.75
X2.8Y-7.85
X2.8Y-7.95
X2.8Y-8.05
X2.8Y-8.15
X2.95Y-12.8571
X2.95Y-13.05
X3.0Y-5.825
X3.0Y-6.025
X3.0496Y-10.5994
X3.0496Y-10.6994
X3.0496Y-10.7994
X3.0496Y-10.8994
X3.0496Y-10.9994
X3.0496Y-11.0994
X3.0496Y-11.1994
X3.0496Y-11.2994
X3.05Y-11.725
X3.05Y-11.825
X3.05Y-11.925
X3.05Y-12.025
X3.05Y-12.125
X3.05Y-12.225
X3.05Y-12.325
X3.05Y-12.425
X3.05Y-12.575
X3.05Y-14.125
X3.05Y-14.225
X3.05Y-14.325
X3.05Y-14.425
X3.05Y-14.525
X3.05Y-14.625
X3.05Y-14.725
X3.1Y-8.35
X3.1Y-8.45
X3.1Y-8.55
X3.1Y-8.65
X3.1Y-8.75
X3.1Y-8.85
X3.1Y-8.95
X3.1Y-9.05
X3.1Y-9.15
X3.1Y-9.25
X3.1Y-11.45
X3.1Y-14.95
X3.1969Y-5.825
X3.1969Y-6.025
X3.2Y-9.8781
X3.2Y-10.075
X3.2469Y-12.575
X3.2969Y-11.45
X3.2969Y-14.95
X3.3496Y-10.5994
X3.3496Y-10.6994
X3.3496Y-10.7994
X3.3496Y-10.8994
X3.3496Y-10.9994
X3.3496Y-11.0994
X3.3496Y-11.1994
X3.3496Y-11.2994
X3.35Y-11.725
X3.35Y-11.825
X3.35Y-11.925
X3.35Y-12.025
X3.35Y-12.125
X3.35Y-12.225
X3.35Y-12.325
X3.35Y-12.425
X3.35Y-13.5
X3.35Y-14.125
X3.35Y-14.225
X3.35Y-14.325
X3.35Y-14.425
X3.35Y-14.525
X3.35Y-14.625
X3.35Y-14.725
X3.3502Y-4.2496
X3.3502Y-4.3496
X3.3502Y-4.4496
X3.3502Y-4.5496
X3.3502Y-4.6496
X3.3502Y-4.7496
X3.3502Y-4.8496
X3.3502Y-4.9496
X3.3502Y-5.0496
X3.3502Y-5.1496
X3.3502Y-5.2496
X3.3502Y-5.3496
X3.3502Y-5.4496
X3.3502Y-5.5496
X3.4Y-6.25
X3.4Y-6.35
X3.4Y-6.45
X3.4Y-6.55
X3.4Y-6.65
X3.4Y-6.75
X3.4Y-6.85
X3.4Y-6.95
X3.4Y-7.05
X3.4Y-7.15
X3.4Y-7.25
X3.4Y-7.35
X3.4Y-7.45
X3.4Y-7.55
X3.4Y-7.65
X3.4Y-7.75
X3.4Y-7.85
X3.4Y-7.95
X3.4Y-8.05
X3.4Y-8.15
X3.4Y-8.35
X3.4Y-8.45
X3.4Y-8.55
X3.4Y-8.65
X3.4Y-8.75
X3.4Y-8.85
X3.4Y-8.95
X3.4Y-9.05
X3.4Y-9.15
X3.4Y-9.25
X3.475Y-3.45
X3.475Y-4.1
X3.5469Y-13.5
X3.6002Y-10.5246
X3.6002Y-10.6246
X3.6002Y-10.7246
X3.6002Y-10.8246
X3.6002Y-10.9246
X3.6002Y-11.0246
X3.6002Y-11.1246
X3.6002Y-11.2246
X3.6002Y-11.3246
X3.6002Y-11.4246
X3.6002Y-11.5246
X3.6002Y-11.6246
X3.6002Y-11.7246
X3.6002Y-11.8246
X3.6496Y-8.6502
X3.6496Y-8.7502
X3.6496Y-8.8502
X3.6496Y-8.9502
X3.6496Y-9.0502
X3.6496Y-9.1502
X3.6496Y-9.2502
X3.65Y-5.775
X3.65Y-6.55
X3.65Y-6.65
X3.65Y-6.75
X3.65Y-6.85
X3.65Y-6.95
X3.65Y-7.05
X3.65Y-7.15
X3.65Y-7.25
X3.65Y-7.35
X3.65Y-7.45
X3.6719Y-3.45
X3.6719Y-4.1
X3.675Y-9.55
X3.725Y-7.625
X3.775Y-11.975
X3.8469Y-5.775
X3.8719Y-9.55
X3.9Y-12.125
X3.9Y-12.225
X3.9Y-12.325
X3.9Y-12.425
X3.9Y-12.525
X3.9Y-12.625
X3.9Y-12.725
X3.9Y-12.825
X3.9Y-12.925
X3.9Y-13.025
X3.9Y-13.175
X3.9Y-13.275
X3.9Y-13.375
X3.9Y-13.475
X3.9Y-13.575
X3.9Y-13.675
X3.9Y-13.775
X3.9Y-14.025
X3.9Y-14.125
X3.9Y-14.225
X3.9Y-14.325
X3.9Y-14.425
X3.9Y-14.525
X3.9Y-14.625
X3.9Y-14.725
X3.9219Y-7.625
X3.9496Y-8.6502
X3.9496Y-8.7502
X3.9496Y-8.8502
X3.9496Y-8.9502
X3.9496Y-9.0502
X3.9496Y-9.1502
X3.9496Y-9.2502
X3.95Y-6.55
X3.95Y-6.65
X3.95Y-6.75
X3.95Y-6.85
X3.95Y-6.95
X3.95Y-7.05
X3.95Y-7.15
X3.95Y-7.25
X3.95Y-7.35
X3.95Y-7.45
X3.95Y-13.9
X3.9502Y-4.2496
X3.9502Y-4.3496
X3.9502Y-4.4496
X3.9502Y-4.5496
X3.9502Y-4.6496
X3.9502Y-4.7496
X3.9502Y-4.8496
X3.9502Y-4.9496
X3.9502Y-5.0496
X3.9502Y-5.1496
X3.9502Y-5.2496
X3.9502Y-5.3496
X3.9502Y-5.4496
X3.9502Y-5.5496
X3.9719Y-11.975
X4.05Y-14.95
X4.1469Y-13.9
X4.15Y-6.25
X4.15Y-6.35
X4.15Y-6.45
X4.15Y-6.55
X4.15Y-6.65
X4.15Y-6.75
X4.15Y-6.85
X4.15Y-6.95
X4.15Y-7.05
X4.15Y-7.15
X4.15Y-7.25
X4.15Y-7.35
X4.15Y-7.45
X4.15Y-7.55
X4.15Y-7.65
X4.15Y-7.75
X4.15Y-7.85
X4.15Y-7.95
X4.15Y-8.05
X4.15Y-8.15
X4.2Y-12.125
X4.2Y-12.225
X4.2Y-12.325
X4.2Y-12.425
X4.2Y-12.525
X4.2Y-12.625
X4.2Y-12.725
X4.2Y-12.825
X4.2Y-12.925
X4.2Y-13.025
X4.2Y-13.175
X4.2Y-13.275
X4.2Y-13.375
X4.2Y-13.475
X4.2Y-13.575
X4.2Y-13.675
X4.2Y-13.775
X4.2Y-14.025
X4.2Y-14.125
X4.2Y-14.225
X4.2Y-14.325
X4.2Y-14.425
X4.2Y-14.525
X4.2Y-14.625
X4.2Y-14.725
X4.2002Y-10.5246
X4.2002Y-10.6246
X4.2002Y-10.7246
X4.2002Y-10.8246
X4.2002Y-10.9246
X4.2002Y-11.0246
X4.2002Y-11.1246
X4.2002Y-11.2246
X4.2002Y-11.3246
X4.2002Y-11.4246
X4.2002Y-11.5246
X4.2002Y-11.6246
X4.2002Y-11.7246
X4.2002Y-11.8246
X4.2469Y-14.95
X4.45Y-5.075
X4.45Y-5.175
X4.45Y-5.275
X4.45Y-5.375
X4.45Y-5.475
X4.45Y-5.575
X4.45Y-5.675
X4.45Y-5.775
X4.45Y-5.875
X4.45Y-5.975
X4.45Y-8.6
X4.45Y-8.7
X4.45Y-8.8
X4.45Y-8.9
X4.45Y-9.0
X4.45Y-9.1
X4.45Y-9.2
X4.45Y-9.3
X4.45Y-9.6848
X4.45Y-9.8817
X4.5246Y-10.6248
X4.5246Y-10.7248
X4.5246Y-10.8248
X4.5246Y-10.9248
X4.5246Y-11.0248
X4.5246Y-11.1248
X4.5246Y-11.2248
X4.5246Y-11.3248
X4.5246Y-11.4248
X4.5246Y-11.5248
X4.5246Y-14.1252
X4.5246Y-14.2252
X4.5246Y-14.3252
X4.5246Y-14.4252
X4.5246Y-14.5252
X4.5246Y-14.6252
X4.5246Y-14.7252
X4.525Y-8.475
X4.525Y-12.125
X4.525Y-12.225
X4.525Y-12.325
X4.525Y-12.425
X4.525Y-12.525
X4.525Y-12.625
X4.525Y-12.725
X4.525Y-12.825
X4.525Y-12.925
X4.525Y-13.025
X4.525Y-13.175
X4.525Y-13.275
X4.525Y-13.375
X4.525Y-13.475
X4.525Y-13.575
X4.525Y-13.675
X4.525Y-13.775
X4.525Y-14.95
X4.55Y-3.65
X4.55Y-4.0
X4.55Y-6.125
X4.575Y-13.9
X4.625Y-11.8
X4.65Y-9.6848
X4.65Y-9.8817
X4.7219Y-8.475
X4.7219Y-14.95
X4.7469Y-3.65
X4.7469Y-4.0
X4.7469Y-6.125
X4.75Y-5.075
X4.75Y-5.175
X4.75Y-5.275
X4.75Y-5.375
X4.75Y-5.475
X4.75Y-5.575
X4.75Y-5.675
X4.75Y-5.775
X4.75Y-5.875
X4.75Y-5.975
X4.75Y-6.25
X4.75Y-6.35
X4.75Y-6.45
X4.75Y-6.55
X4.75Y-6.65
X4.75Y-6.75
X4.75Y-6.85
X4.75Y-6.95
X4.75Y-7.05
X4.75Y-7.15
X4.75Y-7.25
X4.75Y-7.35
X4.75Y-7.45
X4.75Y-7.55
X4.75Y-7.65
X4.75Y-7.75
X4.75Y-7.85
X4.75Y-7.95
X4.75Y-8.05
X4.75Y-8.15
X4.75Y-8.6
X4.75Y-8.7
X4.75Y-8.8
X4.75Y-8.9
X4.75Y-9.0
X4.75Y-9.1
X4.75Y-9.2
X4.75Y-9.3
X4.7719Y-13.9
X4.8219Y-11.8
X4.8246Y-10.6248
X4.8246Y-10.7248
X4.8246Y-10.8248
X4.8246Y-10.9248
X4.8246Y-11.0248
X4.8246Y-11.1248
X4.8246Y-11.2248
X4.8246Y-11.3248
X4.8246Y-11.4248
X4.8246Y-11.5248
X4.8246Y-14.1252
X4.8246Y-14.2252
X4.8246Y-14.3252
X4.8246Y-14.4252
X4.8246Y-14.5252
X4.8246Y-14.6252
X4.8246Y-14.7252
X4.825Y-12.125
X4.825Y-12.225
X4.825Y-12.325
X4.825Y-12.425
X4.825Y-12.525
X4.825Y-12.625
X4.825Y-12.725
X4.825Y-12.825
X4.825Y-12.925
X4.825Y-13.025
X4.825Y-13.175
X4.825Y-13.275
X4.825Y-13.375
X4.825Y-13.475
X4.825Y-13.575
X4.825Y-13.675
X4.825Y-13.775
X5.1496Y-12.1244
X5.1496Y-12.2244
X5.1496Y-12.3244
X5.1496Y-12.4244
X5.1496Y-12.5244
X5.1496Y-12.6244
X5.1496Y-12.7244
X5.1496Y-12.8244
X5.1496Y-14.1252
X5.1496Y-14.2252
X5.1496Y-14.3252
X5.1496Y-14.4252
X5.1496Y-14.5252
X5.1496Y-14.6252
X5.1496Y-14.7252
X5.15Y-10.625
X5.15Y-10.725
X5.15Y-10.825
X5.15Y-10.925
X5.15Y-11.025
X5.15Y-11.125
X5.15Y-11.225
X5.15Y-11.325
X5.15Y-11.425
X5.15Y-11.525
X5.15Y-13.175
X5.15Y-13.275
X5.15Y-13.375
X5.15Y-13.475
X5.15Y-13.575
X5.15Y-13.675
X5.15Y-13.775
X5.2Y-11.8
X5.2Y-13.05
X5.2Y-13.9
X5.2Y-14.95
X5.3496Y-5.0244
X5.3496Y-5.1244
X5.3496Y-5.2244
X5.3496Y-5.3244
X5.3496Y-5.4244
X5.3496Y-5.5244
X5.3496Y-5.6244
X5.3496Y-5.7244
X5.3496Y-8.7502
X5.3496Y-8.8502
X5.3496Y-8.9502
X5.3496Y-9.0502
X5.3496Y-9.1502
X5.3496Y-9.2502
X5.3496Y-9.3502
X5.35Y-3.825
X5.35Y-3.925
X5.35Y-4.025
X5.35Y-4.125
X5.35Y-4.225
X5.35Y-4.325
X5.35Y-4.425
X5.35Y-4.525
X5.35Y-4.625
X5.35Y-4.725
X5.35Y-6.25
X5.35Y-6.35
X5.35Y-6.45
X5.35Y-6.55
X5.35Y-6.65
X5.35Y-6.75
X5.35Y-6.85
X5.35Y-6.95
X5.35Y-7.05
X5.35Y-7.15
X5.35Y-7.25
X5.35Y-7.35
X5.35Y-7.45
X5.35Y-7.55
X5.35Y-7.65
X5.35Y-7.75
X5.35Y-7.85
X5.35Y-7.95
X5.35Y-8.05
X5.35Y-8.15
X5.3969Y-11.8
X5.3969Y-13.05
X5.3969Y-13.9
X5.3969Y-14.95
X5.4Y-3.65
X5.4Y-8.375
X5.4Y-8.575
X5.4496Y-12.1244
X5.4496Y-12.2244
X5.4496Y-12.3244
X5.4496Y-12.4244
X5.4496Y-12.5244
X5.4496Y-12.6244
X5.4496Y-12.7244
X5.4496Y-12.8244
X5.4496Y-14.1252
X5.4496Y-14.2252
X5.4496Y-14.3252
X5.4496Y-14.4252
X5.4496Y-14.5252
X5.4496Y-14.6252
X5.4496Y-14.7252
X5.45Y-5.9
X5.45Y-10.625
X5.45Y-10.725
X5.45Y-10.825
X5.45Y-10.925
X5.45Y-11.025
X5.45Y-11.125
X5.45Y-11.225
X5.45Y-11.325
X5.45Y-11.425
X5.45Y-11.525
X5.45Y-13.175
X5.45Y-13.275
X5.45Y-13.375
X5.45Y-13.475
X5.45Y-13.575
X5.45Y-13.675
X5.45Y-13.775
X5.5Y-9.8031
X5.5Y-10.0
X5.5969Y-3.65
X5.5969Y-8.375
X5.5969Y-8.575
X5.6469Y-5.9
X5.6496Y-5.0244
X5.6496Y-5.1244
X5.6496Y-5.2244
X5.6496Y-5.3244
X5.6496Y-5.4244
X5.6496Y-5.5244
X5.6496Y-5.6244
X5.6496Y-5.7244
X5.6496Y-8.7502
X5.6496Y-8.8502
X5.6496Y-8.9502
X5.6496Y-9.0502
X5.6496Y-9.1502
X5.6496Y-9.2502
X5.6496Y-9.3502
X5.65Y-3.825
X5.65Y-3.925
X5.65Y-4.025
X5.65Y-4.125
X5.65Y-4.225
X5.65Y-4.325
X5.65Y-4.425
X5.65Y-4.525
X5.65Y-4.625
X5.65Y-4.725
X5.95Y-6.25
X5.95Y-6.35
X5.95Y-6.45
X5.95Y-6.55
X5.95Y-6.65
X5.95Y-6.75
X5.95Y-6.85
X5.95Y-6.95
X5.95Y-7.05
X5.95Y-7.15
X5.95Y-7.25
X5.95Y-7.35
X5.95Y-7.45
X5.95Y-7.55
X5.95Y-7.65
X5.95Y-7.75
X5.95Y-7.85
X5.95Y-7.95
X5.95Y-8.05
X5.95Y-8.15
X5.95Y-10.925
X5.95Y-11.025
X5.95Y-11.125
X5.95Y-11.225
X5.95Y-11.325
X5.95Y-11.425
X5.95Y-11.525
X5.95Y-11.925
X5.95Y-12.025
X5.95Y-12.125
X5.95Y-12.225
X5.95Y-12.325
X5.95Y-12.425
X5.95Y-12.525
X5.95Y-13.175
X5.95Y-13.275
X5.95Y-13.375
X5.95Y-13.475
X5.95Y-13.575
X5.95Y-13.675
X5.95Y-13.775
X5.95Y-14.125
X5.95Y-14.225
X5.95Y-14.325
X5.95Y-14.425
X5.95Y-14.525
X5.95Y-14.625
X5.95Y-14.725
X5.975Y-10.725
X6.0Y-11.675
X6.0Y-12.7
X6.0Y-13.9
X6.0Y-14.95
X6.0054Y-12.925
X6.1719Y-10.725
X6.1969Y-11.675
X6.1969Y-12.7
X6.1969Y-13.9
X6.1969Y-14.95
X6.2023Y-12.925
X6.25Y-10.925
X6.25Y-11.025
X6.25Y-11.125
X6.25Y-11.225
X6.25Y-11.325
X6.25Y-11.425
X6.25Y-11.525
X6.25Y-11.925
X6.25Y-12.025
X6.25Y-12.125
X6.25Y-12.225
X6.25Y-12.325
X6.25Y-12.425
X6.25Y-12.525
X6.25Y-13.175
X6.25Y-13.275
X6.25Y-13.375
X6.25Y-13.475
X6.25Y-13.575
X6.25Y-13.675
X6.25Y-13.775
X6.25Y-14.125
X6.25Y-14.225
X6.25Y-14.325
X6.25Y-14.425
X6.25Y-14.525
X6.25Y-14.625
X6.25Y-14.725
X6.3804Y-10.025
X6.4496Y-6.2494
X6.4496Y-6.3494
X6.4496Y-6.4494
X6.4496Y-6.5494
X6.4496Y-6.6494
X6.4496Y-6.7494
X6.4496Y-6.8494
X6.4496Y-6.9494
X6.4496Y-8.5498
X6.4496Y-8.6498
X6.4496Y-8.7498
X6.4496Y-8.8498
X6.4496Y-8.9498
X6.4496Y-9.0498
X6.4496Y-9.1498
X6.4496Y-9.2498
X6.4496Y-9.3498
X6.4496Y-9.4498
X6.45Y-3.825
X6.45Y-3.925
X6.45Y-4.025
X6.45Y-4.125
X6.45Y-4.225
X6.45Y-4.325
X6.45Y-4.425
X6.45Y-4.525
X6.45Y-4.625
X6.45Y-4.725
X6.45Y-4.825
X6.45Y-4.925
X6.45Y-5.025
X6.45Y-5.125
X6.45Y-5.225
X6.45Y-5.325
X6.45Y-5.425
X6.45Y-5.525
X6.45Y-5.625
X6.45Y-5.725
X6.45Y-7.25
X6.45Y-7.35
X6.45Y-7.45
X6.45Y-7.55
X6.45Y-7.65
X6.45Y-7.75
X6.45Y-7.85
X6.45Y-7.95
X6.45Y-8.05
X6.45Y-8.15
X6.5Y-3.65
X6.5Y-7.125
X6.5773Y-10.025
X6.6969Y-3.65
X6.6969Y-7.125
X6.7496Y-6.2494
X6.7496Y-6.3494
X6.7496Y-6.4494
X6.7496Y-6.5494
X6.7496Y-6.6494
X6.7496Y-6.7494
X6.7496Y-6.8494
X6.7496Y-6.9494
X6.7496Y-8.5498
X6.7496Y-8.6498
X6.7496Y-8.7498
X6.7496Y-8.8498
X6.7496Y-8.9498
X6.7496Y-9.0498
X6.7496Y-9.1498
X6.7496Y-9.2498
X6.7496Y-9.3498
X6.7496Y-9.4498
X6.75Y-7.25
X6.75Y-7.35
X6.75Y-7.45
X6.75Y-7.55
X6.75Y-7.65
X6.75Y-7.75
X6.75Y-7.85
X6.75Y-7.95
X6.75Y-8.05
X6.75Y-8.15
X6.8Y-9.9281
X6.8Y-10.125
X6.8746Y-14.0244
X6.8746Y-14.1244
X6.8746Y-14.2244
X6.8746Y-14.3244
X6.8746Y-14.4244
X6.8746Y-14.5244
X6.8746Y-14.6244
X6.8746Y-14.7244
X6.875Y-10.65
X6.875Y-10.75
X6.875Y-10.85
X6.875Y-10.95
X6.875Y-11.05
X6.875Y-11.15
X6.875Y-11.25
X6.875Y-11.35
X6.875Y-11.45
X6.875Y-11.55
X6.875Y-11.825
X6.875Y-11.925
X6.875Y-12.025
X6.875Y-12.125
X6.875Y-12.225
X6.875Y-12.325
X6.875Y-12.425
X6.875Y-12.525
X6.875Y-12.825
X6.875Y-12.925
X6.875Y-13.025
X6.875Y-13.125
X6.875Y-13.225
X6.875Y-13.325
X6.875Y-13.425
X6.875Y-13.525
X6.875Y-13.625
X6.875Y-13.725
X6.925Y-11.7
X6.925Y-12.7
X6.925Y-13.875
X6.925Y-14.95
X7.05Y-3.825
X7.05Y-3.925
X7.05Y-4.025
X7.05Y-4.125
X7.05Y-4.225
X7.05Y-4.325
X7.05Y-4.425
X7.05Y-4.525
X7.05Y-4.625
X7.05Y-4.725
X7.05Y-4.825
X7.05Y-4.925
X7.05Y-5.025
X7.05Y-5.125
X7.05Y-5.225
X7.05Y-5.325
X7.05Y-5.425
X7.05Y-5.525
X7.05Y-5.625
X7.05Y-5.725
X7.1219Y-11.7
X7.1219Y-12.7
X7.1219Y-13.875
X7.1219Y-14.95
X7.1746Y-14.0244
X7.1746Y-14.1244
X7.1746Y-14.2244
X7.1746Y-14.3244
X7.1746Y-14.4244
X7.1746Y-14.5244
X7.1746Y-14.6244
X7.1746Y-14.7244
X7.175Y-10.65
X7.175Y-10.75
X7.175Y-10.85
X7.175Y-10.95
X7.175Y-11.05
X7.175Y-11.15
X7.175Y-11.25
X7.175Y-11.35
X7.175Y-11.45
X7.175Y-11.55
X7.175Y-11.825
X7.175Y-11.925
X7.175Y-12.025
X7.175Y-12.125
X7.175Y-12.225
X7.175Y-12.325
X7.175Y-12.425
X7.175Y-12.525
X7.175Y-12.825
X7.175Y-12.925
X7.175Y-13.025
X7.175Y-13.125
X7.175Y-13.225
X7.175Y-13.325
X7.175Y-13.425
X7.175Y-13.525
X7.175Y-13.625
X7.175Y-13.725
X7.55Y-10.525
X7.55Y-10.625
X7.55Y-10.725
X7.55Y-10.825
X7.55Y-10.925
X7.55Y-11.025
X7.55Y-11.125
X7.55Y-11.225
X7.55Y-11.325
X7.55Y-11.425
X7.55Y-12.125
X7.55Y-12.225
X7.55Y-12.325
X7.55Y-12.425
X7.55Y-12.525
X7.55Y-12.625
X7.55Y-12.725
X7.55Y-12.825
X7.55Y-12.925
X7.55Y-13.025
X7.55Y-13.825
X7.55Y-13.925
X7.55Y-14.025
X7.55Y-14.125
X7.55Y-14.225
X7.55Y-14.325
X7.55Y-14.425
X7.55Y-14.525
X7.55Y-14.625
X7.55Y-14.725
X7.6Y-10.4
X7.6Y-11.975
X7.6Y-13.59
X7.6Y-14.95
X7.6054Y-11.75
X7.6054Y-13.275
X7.7969Y-10.4
X7.7969Y-11.975
X7.7969Y-13.59
X7.7969Y-14.95
X7.8023Y-11.75
X7.8023Y-13.275
X7.8496Y-4.5502
X7.8496Y-4.6502
X7.8496Y-4.7502
X7.8496Y-4.8502
X7.8496Y-4.9502
X7.8496Y-5.0502
X7.8496Y-5.1502
X7.8496Y-5.7502
X7.8496Y-5.8502
X7.8496Y-5.9502
X7.8496Y-6.0502
X7.8496Y-6.1502
X7.8496Y-6.2502
X7.8496Y-6.3502
X7.85Y-6.95
X7.85Y-7.05
X7.85Y-7.15
X7.85Y-7.25
X7.85Y-7.35
X7.85Y-7.45
X7.85Y-7.55
X7.85Y-7.65
X7.85Y-10.525
X7.85Y-10.625
X7.85Y-10.725
X7.85Y-10.825
X7.85Y-10.925
X7.85Y-11.025
X7.85Y-11.125
X7.85Y-11.225
X7.85Y-11.325
X7.85Y-11.425
X7.85Y-12.125
X7.85Y-12.225
X7.85Y-12.325
X7.85Y-12.425
X7.85Y-12.525
X7.85Y-12.625
X7.85Y-12.725
X7.85Y-12.825
X7.85Y-12.925
X7.85Y-13.025
X7.85Y-13.825
X7.85Y-13.925
X7.85Y-14.025
X7.85Y-14.125
X7.85Y-14.225
X7.85Y-14.325
X7.85Y-14.425
X7.85Y-14.525
X7.85Y-14.625
X7.85Y-14.725
X7.9Y-5.26
X7.9Y-5.475
X7.9Y-6.7
X7.9Y-7.8
X7.975Y-3.2171
X8.0969Y-5.26
X8.0969Y-5.475
X8.0969Y-6.7
X8.0969Y-7.8
X8.1496Y-4.5502
X8.1496Y-4.6502
X8.1496Y-4.7502
X8.1496Y-4.8502
X8.1496Y-4.9502
X8.1496Y-5.0502
X8.1496Y-5.1502
X8.1496Y-5.7502
X8.1496Y-5.8502
X8.1496Y-5.9502
X8.1496Y-6.0502
X8.1496Y-6.1502
X8.1496Y-6.2502
X8.1496Y-6.3502
X8.15Y-6.95
X8.15Y-7.05
X8.15Y-7.15
X8.15Y-7.25
X8.15Y-7.35
X8.15Y-7.45
X8.15Y-7.55
X8.15Y-7.65
X8.15Y-12.825
X8.15Y-12.925
X8.15Y-13.025
X8.15Y-13.125
X8.15Y-13.225
X8.15Y-13.325
X8.15Y-13.425
X8.15Y-13.525
X8.15Y-14.025
X8.15Y-14.125
X8.15Y-14.225
X8.15Y-14.325
X8.15Y-14.425
X8.15Y-14.525
X8.15Y-14.625
X8.15Y-14.725
X8.1719Y-3.2171
X8.175Y-13.875
X8.175Y-14.95
X8.3719Y-13.875
X8.3719Y-14.95
X8.375Y-4.9
X8.45Y-12.825
X8.45Y-12.925
X8.45Y-13.025
X8.45Y-13.125
X8.45Y-13.225
X8.45Y-13.325
X8.45Y-13.425
X8.45Y-13.525
X8.45Y-14.025
X8.45Y-14.125
X8.45Y-14.225
X8.45Y-14.325
X8.45Y-14.425
X8.45Y-14.525
X8.45Y-14.625
X8.45Y-14.725
X8.6781Y-5.2
X8.875Y-4.9
X8.875Y-5.2
X8.95Y-5.75
X8.95Y-5.85
X8.95Y-5.95
X8.95Y-6.05
X8.95Y-6.15
X8.95Y-6.25
X8.95Y-6.35
X8.95Y-6.45
X8.95Y-6.55
X8.95Y-6.65
X8.95Y-6.75
X8.95Y-6.85
X8.95Y-6.95
X8.95Y-7.05
X8.95Y-7.15
X8.95Y-7.25
X8.95Y-7.35
X8.95Y-7.45
X8.95Y-7.55
X8.95Y-7.65
X9.0Y-5.5
X9.0Y-7.8
X9.15Y-3.8304
X9.15Y-4.0273
X9.15Y-4.475
X9.15Y-4.575
X9.15Y-4.675
X9.15Y-4.775
X9.15Y-4.875
X9.15Y-4.975
X9.15Y-5.075
X9.15Y-5.175
X9.15Y-10.875
X9.15Y-10.975
X9.15Y-11.075
X9.15Y-11.175
X9.15Y-11.275
X9.15Y-11.375
X9.15Y-11.475
X9.15Y-11.575
X9.15Y-11.975
X9.15Y-12.075
X9.15Y-12.175
X9.15Y-12.275
X9.15Y-12.375
X9.15Y-12.475
X9.15Y-12.575
X9.15Y-12.675
X9.15Y-12.925
X9.15Y-13.025
X9.15Y-13.125
X9.15Y-13.225
X9.15Y-13.325
X9.15Y-13.425
X9.15Y-13.525
X9.15Y-13.625
X9.15Y-14.025
X9.15Y-14.125
X9.15Y-14.225
X9.15Y-14.325
X9.15Y-14.425
X9.15Y-14.525
X9.15Y-14.625
X9.15Y-14.725
X9.1969Y-5.5
X9.1969Y-7.8
X9.2Y-4.325
X9.2031Y-11.825
X9.2031Y-12.8
X9.2031Y-13.875
X9.2031Y-14.8992
X9.25Y-10.5
X9.25Y-10.6969
X9.3969Y-4.325
X9.4Y-3.525
X9.4Y-4.125
X9.4Y-11.825
X9.4Y-12.8
X9.4Y-13.875
X9.4Y-14.8992
X9.45Y-4.475
X9.45Y-4.575
X9.45Y-4.675
X9.45Y-4.775
X9.45Y-4.875
X9.45Y-4.975
X9.45Y-5.075
X9.45Y-5.175
X9.45Y-10.875
X9.45Y-10.975
X9.45Y-11.075
X9.45Y-11.175
X9.45Y-11.275
X9.45Y-11.375
X9.45Y-11.475
X9.45Y-11.575
X9.45Y-11.975
X9.45Y-12.075
X9.45Y-12.175
X9.45Y-12.275
X9.45Y-12.375
X9.45Y-12.475
X9.45Y-12.575
X9.45Y-12.675
X9.45Y-12.925
X9.45Y-13.025
X9.45Y-13.125
X9.45Y-13.225
X9.45Y-13.325
X9.45Y-13.425
X9.45Y-13.525
X9.45Y-13.625
X9.45Y-14.025
X9.45Y-14.125
X9.45Y-14.225
X9.45Y-14.325
X9.45Y-14.425
X9.45Y-14.525
X9.45Y-14.625
X9.45Y-14.725
X9.55Y-5.75
X9.55Y-5.85
X9.55Y-5.95
X9.55Y-6.05
X9.55Y-6.15
X9.55Y-6.25
X9.55Y-6.35
X9.55Y-6.45
X9.55Y-6.55
X9.55Y-6.65
X9.55Y-6.75
X9.55Y-6.85
X9.55Y-6.95
X9.55Y-7.05
X9.55Y-7.15
X9.55Y-7.25
X9.55Y-7.35
X9.55Y-7.45
X9.55Y-7.55
X9.55Y-7.65
X9.6Y-10.875
X9.6Y-10.975
X9.6Y-11.075
X9.6Y-11.175
X9.6Y-11.275
X9.6Y-11.375
X9.6Y-11.475
X9.6Y-11.575
X9.6Y-11.975
X9.6Y-12.075
X9.6Y-12.175
X9.6Y-12.275
X9.6Y-12.375
X9.6Y-12.475
X9.6Y-12.575
X9.6Y-12.675
X9.6Y-12.925
X9.6Y-13.025
X9.6Y-13.125
X9.6Y-13.225
X9.6Y-13.325
X9.6Y-13.425
X9.6Y-13.525
X9.6Y-13.625
X9.6Y-14.025
X9.6Y-14.125
X9.6Y-14.225
X9.6Y-14.325
X9.6Y-14.425
X9.6Y-14.525
X9.6Y-14.625
X9.6Y-14.725
X9.6531Y-11.825
X9.6531Y-12.8
X9.6531Y-14.8992
X9.6781Y-13.875
X9.7Y-10.5
X9.7Y-10.6969
X9.85Y-11.825
X9.85Y-12.8
X9.85Y-14.8992
X9.875Y-13.875
X9.9Y-3.525
X9.9Y-4.125
X9.9Y-10.875
X9.9Y-10.975
X9.9Y-11.075
X9.9Y-11.175
X9.9Y-11.275
X9.9Y-11.375
X9.9Y-11.475
X9.9Y-11.575
X9.9Y-11.975
X9.9Y-12.075
X9.9Y-12.175
X9.9Y-12.275
X9.9Y-12.375
X9.9Y-12.475
X9.9Y-12.575
X9.9Y-12.675
X9.9Y-12.925
X9.9Y-13.025
X9.9Y-13.125
X9.9Y-13.225
X9.9Y-13.325
X9.9Y-13.425
X9.9Y-13.525
X9.9Y-13.625
X9.9Y-14.025
X9.9Y-14.125
X9.9Y-14.225
X9.9Y-14.325
X9.9Y-14.425
X9.9Y-14.525
X9.9Y-14.625
X9.9Y-14.725
X10.05Y-10.875
X10.05Y-10.975
X10.05Y-11.075
X10.05Y-11.175
X10.05Y-11.275
X10.05Y-11.375
X10.05Y-11.475
X10.05Y-11.575
X10.05Y-11.975
X10.05Y-12.075
X10.05Y-12.175
X10.05Y-12.275
X10.05Y-12.375
X10.05Y-12.475
X10.05Y-12.575
X10.05Y-12.675
X10.05Y-12.925
X10.05Y-13.025
X10.05Y-13.125
X10.05Y-13.225
X10.05Y-13.325
X10.05Y-13.425
X10.05Y-13.525
X10.05Y-13.625
X10.05Y-14.025
X10.05Y-14.125
X10.05Y-14.225
X10.05Y-14.325
X10.05Y-14.425
X10.05Y-14.525
X10.05Y-14.625
X10.05Y-14.725
X10.1031Y-11.825
X10.1031Y-12.8
X10.1031Y-13.875
X10.1031Y-14.8992
X10.15Y-10.5
X10.15Y-10.6969
X10.2Y-3.925
X10.2Y-4.025
X10.2Y-4.125
X10.3Y-11.825
X10.3Y-12.8
X10.3Y-13.875
X10.3Y-14.8992
X10.35Y-10.875
X10.35Y-10.975
X10.35Y-11.075
X10.35Y-11.175
X10.35Y-11.275
X10.35Y-11.375
X10.35Y-11.475
X10.35Y-11.575
X10.35Y-11.975
X10.35Y-12.075
X10.35Y-12.175
X10.35Y-12.275
X10.35Y-12.375
X10.35Y-12.475
X10.35Y-12.575
X10.35Y-12.675
X10.35Y-12.925
X10.35Y-13.025
X10.35Y-13.125
X10.35Y-13.225
X10.35Y-13.325
X10.35Y-13.425
X10.35Y-13.525
X10.35Y-13.625
X10.35Y-14.025
X10.35Y-14.125
X10.35Y-14.225
X10.35Y-14.325
X10.35Y-14.425
X10.35Y-14.525
X10.35Y-14.625
X10.35Y-14.725
X10.45Y-5.75
X10.45Y-5.85
X10.45Y-5.95
X10.45Y-6.05
X10.45Y-6.15
X10.45Y-6.25
X10.45Y-6.35
X10.45Y-6.45
X10.45Y-6.55
X10.45Y-6.65
X10.45Y-6.75
X10.45Y-6.85
X10.45Y-6.95
X10.45Y-7.05
X10.45Y-7.15
X10.45Y-7.25
X10.45Y-7.35
X10.45Y-7.45
X10.45Y-7.55
X10.45Y-7.65
X10.5Y-10.875
X10.5Y-10.975
X10.5Y-11.075
X10.5Y-11.175
X10.5Y-11.275
X10.5Y-11.375
X10.5Y-11.475
X10.5Y-11.575
X10.5Y-11.975
X10.5Y-12.075
X10.5Y-12.175
X10.5Y-12.275
X10.5Y-12.375
X10.5Y-12.475
X10.5Y-12.575
X10.5Y-12.675
X10.5Y-12.925
X10.5Y-13.025
X10.5Y-13.125
X10.5Y-13.225
X10.5Y-13.325
X10.5Y-13.425
X10.5Y-13.525
X10.5Y-13.625
X10.5Y-14.025
X10.5Y-14.125
X10.5Y-14.225
X10.5Y-14.325
X10.5Y-14.425
X10.5Y-14.525
X10.5Y-14.625
X10.5Y-14.725
X10.5531Y-11.825
X10.5531Y-12.8
X10.5531Y-13.875
X10.5531Y-14.8992
X10.6Y-4.85
X10.6Y-5.35
X10.6Y-7.8
X10.6Y-10.5
X10.6Y-10.6969
X10.7Y-4.525
X10.7Y-4.625
X10.7Y-4.725
X10.75Y-11.825
X10.75Y-12.8
X10.75Y-13.875
X10.75Y-14.8992
X10.7969Y-7.8
X10.8Y-10.875
X10.8Y-10.975
X10.8Y-11.075
X10.8Y-11.175
X10.8Y-11.275
X10.8Y-11.375
X10.8Y-11.475
X10.8Y-11.575
X10.8Y-11.975
X10.8Y-12.075
X10.8Y-12.175
X10.8Y-12.275
X10.8Y-12.375
X10.8Y-12.475
X10.8Y-12.575
X10.8Y-12.675
X10.8Y-12.925
X10.8Y-13.025
X10.8Y-13.125
X10.8Y-13.225
X10.8Y-13.325
X10.8Y-13.425
X10.8Y-13.525
X10.8Y-13.625
X10.8Y-14.025
X10.8Y-14.125
X10.8Y-14.225
X10.8Y-14.325
X10.8Y-14.425
X10.8Y-14.525
X10.8Y-14.625
X10.8Y-14.725
X10.9Y-4.525
X10.9Y-4.625
X10.9Y-4.725
X10.95Y-10.875
X10.95Y-10.975
X10.95Y-11.075
X10.95Y-11.175
X10.95Y-11.275
X10.95Y-11.375
X10.95Y-11.475
X10.95Y-11.575
X10.95Y-11.975
X10.95Y-12.075
X10.95Y-12.175
X10.95Y-12.275
X10.95Y-12.375
X10.95Y-12.475
X10.95Y-12.575
X10.95Y-12.675
X10.95Y-12.925
X10.95Y-13.025
X10.95Y-13.125
X10.95Y-13.225
X10.95Y-13.325
X10.95Y-13.425
X10.95Y-13.525
X10.95Y-13.625
X10.95Y-14.025
X10.95Y-14.125
X10.95Y-14.225
X10.95Y-14.325
X10.95Y-14.425
X10.95Y-14.525
X10.95Y-14.625
X10.95Y-14.725
X11.0031Y-11.825
X11.0031Y-12.8
X11.0031Y-13.875
X11.0031Y-14.8992
X11.05Y-5.75
X11.05Y-5.85
X11.05Y-5.95
X11.05Y-6.05
X11.05Y-6.15
X11.05Y-6.25
X11.05Y-6.35
X11.05Y-6.45
X11.05Y-6.55
X11.05Y-6.65
X11.05Y-6.75
X11.05Y-6.85
X11.05Y-6.95
X11.05Y-7.05
X11.05Y-7.15
X11.05Y-7.25
X11.05Y-7.35
X11.05Y-7.45
X11.05Y-7.55
X11.05Y-7.65
X11.05Y-10.5
X11.05Y-10.6969
X11.1Y-4.525
X11.1Y-4.625
X11.1Y-4.725
X11.2Y-11.825
X11.2Y-12.8
X11.2Y-13.875
X11.2Y-14.8992
X11.25Y-10.875
X11.25Y-10.975
X11.25Y-11.075
X11.25Y-11.175
X11.25Y-11.275
X11.25Y-11.375
X11.25Y-11.475
X11.25Y-11.575
X11.25Y-11.975
X11.25Y-12.075
X11.25Y-12.175
X11.25Y-12.275
X11.25Y-12.375
X11.25Y-12.475
X11.25Y-12.575
X11.25Y-12.675
X11.25Y-12.925
X11.25Y-13.025
X11.25Y-13.125
X11.25Y-13.225
X11.25Y-13.325
X11.25Y-13.425
X11.25Y-13.525
X11.25Y-13.625
X11.25Y-14.025
X11.25Y-14.125
X11.25Y-14.225
X11.25Y-14.325
X11.25Y-14.425
X11.25Y-14.525
X11.25Y-14.625
X11.25Y-14.725
X11.3Y-4.525
X11.3Y-4.625
X11.3Y-4.725
X11.4Y-3.875
X11.4Y-4.375
X11.4Y-4.85
X11.4Y-5.35
X11.4Y-10.875
X11.4Y-10.975
X11.4Y-11.075
X11.4Y-11.175
X11.4Y-11.275
X11.4Y-11.375
X11.4Y-11.475
X11.4Y-11.575
X11.4Y-11.975
X11.4Y-12.075
X11.4Y-12.175
X11.4Y-12.275
X11.4Y-12.375
X11.4Y-12.475
X11.4Y-12.575
X11.4Y-12.675
X11.4Y-12.925
X11.4Y-13.025
X11.4Y-13.125
X11.4Y-13.225
X11.4Y-13.325
X11.4Y-13.425
X11.4Y-13.525
X11.4Y-13.625
X11.4Y-14.025
X11.4Y-14.125
X11.4Y-14.225
X11.4Y-14.325
X11.4Y-14.425
X11.4Y-14.525
X11.4Y-14.625
X11.4Y-14.725
X11.4531Y-11.825
X11.4531Y-12.8
X11.4531Y-13.875
X11.4531Y-14.8992
X11.5Y-10.5
X11.5Y-10.6969
X11.6Y-4.85
X11.6Y-5.35
X11.65Y-11.825
X11.65Y-12.8
X11.65Y-13.875
X11.65Y-14.8992
X11.7Y-4.525
X11.7Y-5.025
X11.7Y-10.875
X11.7Y-10.975
X11.7Y-11.075
X11.7Y-11.175
X11.7Y-11.275
X11.7Y-11.375
X11.7Y-11.475
X11.7Y-11.575
X11.7Y-11.975
X11.7Y-12.075
X11.7Y-12.175
X11.7Y-12.275
X11.7Y-12.375
X11.7Y-12.475
X11.7Y-12.575
X11.7Y-12.675
X11.7Y-12.925
X11.7Y-13.025
X11.7Y-13.125
X11.7Y-13.225
X11.7Y-13.325
X11.7Y-13.425
X11.7Y-13.525
X11.7Y-13.625
X11.7Y-14.025
X11.7Y-14.125
X11.7Y-14.225
X11.7Y-14.325
X11.7Y-14.425
X11.7Y-14.525
X11.7Y-14.625
X11.7Y-14.725
X11.8Y-4.525
X11.8Y-5.025
X11.85Y-10.875
X11.85Y-10.975
X11.85Y-11.075
X11.85Y-11.175
X11.85Y-11.275
X11.85Y-11.375
X11.85Y-11.475
X11.85Y-11.575
X11.85Y-11.975
X11.85Y-12.075
X11.85Y-12.175
X11.85Y-12.275
X11.85Y-12.375
X11.85Y-12.475
X11.85Y-12.575
X11.85Y-12.675
X11.85Y-12.925
X11.85Y-13.025
X11.85Y-13.125
X11.85Y-13.225
X11.85Y-13.325
X11.85Y-13.425
X11.85Y-13.525
X11.85Y-13.625
X11.85Y-14.025
X11.85Y-14.125
X11.85Y-14.225
X11.85Y-14.325
X11.85Y-14.425
X11.85Y-14.525
X11.85Y-14.625
X11.85Y-14.725
X11.9Y-4.525
X11.9Y-5.025
X11.9031Y-11.825
X11.9031Y-12.8
X11.9031Y-13.875
X11.95Y-10.5
X11.95Y-10.6969
X12.0Y-4.525
X12.0Y-5.025
X12.1Y-11.825
X12.1Y-12.8
X12.1Y-13.875
X12.15Y-10.875
X12.15Y-10.975
X12.15Y-11.075
X12.15Y-11.175
X12.15Y-11.275
X12.15Y-11.375
X12.15Y-11.475
X12.15Y-11.575
X12.15Y-11.975
X12.15Y-12.075
X12.15Y-12.175
X12.15Y-12.275
X12.15Y-12.375
X12.15Y-12.475
X12.15Y-12.575
X12.15Y-12.675
X12.15Y-12.925
X12.15Y-13.025
X12.15Y-13.125
X12.15Y-13.225
X12.15Y-13.325
X12.15Y-13.425
X12.15Y-13.525
X12.15Y-13.625
X12.15Y-14.025
X12.15Y-14.125
X12.15Y-14.225
X12.15Y-14.325
X12.15Y-14.425
X12.15Y-14.525
X12.15Y-14.625
X12.15Y-14.725
X12.2Y-4.525
X12.2Y-5.025
X12.3Y-4.525
X12.3Y-5.025
X12.3Y-10.875
X12.3Y-10.975
X12.3Y-11.075
X12.3Y-11.175
X12.3Y-11.275
X12.3Y-11.375
X12.3Y-11.475
X12.3Y-11.575
X12.3Y-11.975
X12.3Y-12.075
X12.3Y-12.175
X12.3Y-12.275
X12.3Y-12.375
X12.3Y-12.475
X12.3Y-12.575
X12.3Y-12.675
X12.3Y-12.925
X12.3Y-13.025
X12.3Y-13.125
X12.3Y-13.225
X12.3Y-13.325
X12.3Y-13.425
X12.3Y-13.525
X12.3Y-13.625
X12.3Y-14.025
X12.3Y-14.125
X12.3Y-14.225
X12.3Y-14.325
X12.3Y-14.425
X12.3Y-14.525
X12.3Y-14.625
X12.3Y-14.725
X12.3531Y-11.825
X12.3531Y-12.8
X12.3531Y-13.875
X12.3531Y-14.8992
X12.4Y-10.5
X12.4Y-10.6969
X12.45Y-4.05
X12.45Y-4.15
X12.45Y-4.25
X12.5496Y-7.6252
X12.5496Y-7.7252
X12.5496Y-7.8252
X12.5496Y-7.9252
X12.5496Y-8.0252
X12.5496Y-8.1252
X12.5496Y-8.2252
X12.55Y-4.725
X12.55Y-4.9219
X12.55Y-8.625
X12.55Y-8.725
X12.55Y-8.825
X12.55Y-8.925
X12.55Y-9.025
X12.55Y-9.125
X12.55Y-9.225
X12.55Y-11.825
X12.55Y-12.8
X12.55Y-13.875
X12.55Y-14.8992
X12.6Y-7.4
X12.6Y-8.375
X12.6Y-9.425
X12.6Y-10.875
X12.6Y-10.975
X12.6Y-11.075
X12.6Y-11.175
X12.6Y-11.275
X12.6Y-11.375
X12.6Y-11.475
X12.6Y-11.575
X12.6Y-11.975
X12.6Y-12.075
X12.6Y-12.175
X12.6Y-12.275
X12.6Y-12.375
X12.6Y-12.475
X12.6Y-12.575
X12.6Y-12.675
X12.6Y-12.925
X12.6Y-13.025
X12.6Y-13.125
X12.6Y-13.225
X12.6Y-13.325
X12.6Y-13.425
X12.6Y-13.525
X12.6Y-13.625
X12.6Y-14.025
X12.6Y-14.125
X12.6Y-14.225
X12.6Y-14.325
X12.6Y-14.425
X12.6Y-14.525
X12.6Y-14.625
X12.6Y-14.725
X12.75Y-10.875
X12.75Y-10.975
X12.75Y-11.075
X12.75Y-11.175
X12.75Y-11.275
X12.75Y-11.375
X12.75Y-11.475
X12.75Y-11.575
X12.75Y-11.675
X12.75Y-11.975
X12.75Y-12.075
X12.75Y-12.175
X12.75Y-12.275
X12.75Y-12.375
X12.75Y-12.475
X12.75Y-12.575
X12.75Y-12.675
X12.75Y-12.775
X12.75Y-12.925
X12.75Y-13.025
X12.75Y-13.125
X12.75Y-13.225
X12.75Y-13.325
X12.75Y-13.425
X12.75Y-13.525
X12.75Y-13.625
X12.75Y-13.725
X12.75Y-14.025
X12.75Y-14.125
X12.75Y-14.225
X12.75Y-14.325
X12.75Y-14.425
X12.75Y-14.525
X12.75Y-14.625
X12.75Y-14.725
X12.75Y-14.825
X12.7969Y-7.4
X12.7969Y-8.375
X12.7969Y-9.425
X12.8496Y-7.6252
X12.8496Y-7.7252
X12.8496Y-7.8252
X12.8496Y-7.9252
X12.8496Y-8.0252
X12.8496Y-8.1252
X12.8496Y-8.2252
X12.85Y-8.625
X12.85Y-8.725
X12.85Y-8.825
X12.85Y-8.925
X12.85Y-9.025
X12.85Y-9.125
X12.85Y-9.225
X12.9996Y-13.1252
X12.9996Y-13.2252
X12.9996Y-13.3252
X12.9996Y-13.4252
X12.9996Y-13.5252
X12.9996Y-13.6252
X12.9996Y-13.7252
X13.05Y-4.65
X13.05Y-4.75
X13.05Y-4.85
X13.05Y-4.95
X13.05Y-5.05
X13.05Y-5.15
X13.05Y-5.25
X13.05Y-5.75
X13.05Y-5.85
X13.05Y-5.95
X13.05Y-6.05
X13.05Y-6.15
X13.05Y-6.25
X13.05Y-6.35
X13.05Y-6.45
X13.05Y-6.55
X13.05Y-6.65
X13.05Y-6.75
X13.05Y-6.85
X13.05Y-6.95
X13.05Y-7.05
X13.075Y-13.975
X13.075Y-14.2
X13.0766Y-3.925
X13.1Y-5.425
X13.125Y-7.25
X13.1258Y-11.525
X13.15Y-7.625
X13.15Y-7.725
X13.15Y-7.825
X13.15Y-7.925
X13.15Y-8.025
X13.15Y-8.125
X13.15Y-8.225
X13.15Y-8.625
X13.15Y-8.725
X13.15Y-8.825
X13.15Y-8.925
X13.15Y-9.025
X13.15Y-9.125
X13.15Y-9.225
X13.1766Y-12.8
X13.2Y-8.375
X13.2Y-9.425
X13.2242Y-11.525
X13.2719Y-13.975
X13.2719Y-14.2
X13.2734Y-3.925
X13.2969Y-5.425
X13.2996Y-13.1252
X13.2996Y-13.2252
X13.2996Y-13.3252
X13.2996Y-13.4252
X13.2996Y-13.5252
X13.2996Y-13.6252
X13.2996Y-13.7252
X13.3219Y-7.25
X13.35Y-4.65
X13.35Y-4.75
X13.35Y-4.85
X13.35Y-4.95
X13.35Y-5.05
X13.35Y-5.15
X13.35Y-5.25
X13.3734Y-12.8
X13.3969Y-8.375
X13.3969Y-9.425
X13.45Y-7.625
X13.45Y-7.725
X13.45Y-7.825
X13.45Y-7.925
X13.45Y-8.025
X13.45Y-8.125
X13.45Y-8.225
X13.45Y-8.625
X13.45Y-8.725
X13.45Y-8.825
X13.45Y-8.925
X13.45Y-9.025
X13.45Y-9.125
X13.45Y-9.225
X13.6Y-12.025
X13.6Y-12.125
X13.6Y-12.225
X13.6Y-12.325
X13.6016Y-12.475
X13.6016Y-12.675
X13.65Y-5.75
X13.65Y-5.85
X13.65Y-5.95
X13.65Y-6.05
X13.65Y-6.15
X13.65Y-6.25
X13.65Y-6.35
X13.65Y-6.45
X13.65Y-6.55
X13.65Y-6.65
X13.65Y-6.75
X13.65Y-6.85
X13.65Y-6.95
X13.65Y-7.05
X13.65Y-8.5766
X13.65Y-8.7734
X13.6516Y-11.85
X13.7984Y-12.475
X13.7984Y-12.675
X13.8Y-8.5766
X13.8Y-8.7734
X13.8484Y-11.85
X13.85Y-11.4
X13.85Y-11.5
X13.85Y-11.6
X13.8516Y-10.925
X13.8516Y-11.225
X13.9Y-12.025
X13.9Y-12.125
X13.9Y-12.225
X13.9Y-12.325
X13.95Y-6.45
X13.95Y-6.55
X13.95Y-6.65
X13.95Y-6.75
X13.95Y-6.85
X13.95Y-6.95
X13.95Y-7.05
X13.95Y-8.5766
X13.95Y-8.7734
X13.9738Y-5.7035
X13.9738Y-5.8965
X13.9746Y-4.6502
X13.9746Y-4.7502
X13.9746Y-4.8502
X13.9746Y-4.9502
X13.9746Y-5.0502
X13.9746Y-5.1502
X13.9746Y-5.2502
X14.0Y-4.5
X14.0Y-5.425
X14.0Y-6.225
X14.0Y-7.25
X14.0376Y-11.4
X14.0376Y-11.5
X14.0376Y-11.6
X14.0484Y-10.925
X14.0484Y-11.225
X14.075Y-7.825
X14.075Y-8.325
X14.1Y-8.5766
X14.1Y-8.7734
X14.1358Y-7.475
X14.1358Y-7.575
X14.1358Y-7.675
X14.1969Y-4.5
X14.1969Y-5.425
X14.1969Y-6.225
X14.1969Y-7.25
X14.225Y-11.4016
X14.225Y-11.5984
X14.25Y-6.45
X14.25Y-6.55
X14.25Y-6.65
X14.25Y-6.75
X14.25Y-6.85
X14.25Y-6.95
X14.25Y-7.05
X14.25Y-8.5766
X14.25Y-8.7734
X14.2746Y-4.6502
X14.2746Y-4.7502
X14.2746Y-4.8502
X14.2746Y-4.9502
X14.2746Y-5.0502
X14.2746Y-5.1502
X14.2746Y-5.2502
X14.3858Y-7.475
X14.3858Y-7.575
X14.3858Y-7.675
X14.4Y-8.5766
X14.4Y-8.7734
X14.475Y-7.825
X14.475Y-8.325
X14.875Y-8.0
X14.875Y-8.0984
T5
X2.9256Y-5.45
X2.9256Y-5.7
X3.0256Y-5.45
X3.0256Y-5.7
X3.1256Y-5.45
X3.1256Y-5.7
X3.625Y-14.5752
X3.625Y-14.6752
X4.075Y-8.65
X4.075Y-8.75
X4.325Y-9.1502
X4.325Y-9.2502
X4.9Y-3.275
X4.9Y-3.375
X5.0Y-3.275
X5.0Y-3.375
X5.1Y-3.275
X5.1Y-3.375
X5.175Y-8.85
X5.175Y-8.95
X5.175Y-9.05
X5.2Y-3.275
X5.2Y-3.375
X5.3Y-3.275
X5.3Y-3.375
X5.4Y-3.275
X5.4Y-3.375
X5.5Y-3.275
X5.5Y-3.375
X5.6Y-3.275
X5.6Y-3.375
X5.65Y-10.175
X5.7Y-3.275
X5.7Y-3.375
X5.75Y-10.175
X5.8Y-3.275
X5.8Y-3.375
X5.9Y-3.275
X5.9Y-3.375
X6.0Y-3.275
X6.0Y-3.375
X6.1Y-3.275
X6.1Y-3.375
X7.7Y-4.65
X7.7Y-4.75
X7.7Y-4.85
X7.975Y-8.55
X7.975Y-8.65
X7.975Y-9.05
X7.975Y-9.15
X7.975Y-9.55
X7.975Y-9.65
X8.075Y-8.55
X8.075Y-8.65
X8.075Y-9.05
X8.075Y-9.15
X8.075Y-9.55
X8.075Y-9.65
X8.175Y-8.55
X8.175Y-8.65
X8.175Y-9.05
X8.175Y-9.15
X8.175Y-9.55
X8.175Y-9.65
X8.275Y-8.55
X8.275Y-8.65
X8.275Y-9.05
X8.275Y-9.15
X8.275Y-9.55
X8.275Y-9.65
X8.375Y-8.55
X8.375Y-8.65
X8.375Y-9.05
X8.375Y-9.15
X8.375Y-9.55
X8.375Y-9.65
X8.475Y-8.55
X8.475Y-8.65
X8.475Y-9.05
X8.475Y-9.15
X8.475Y-9.55
X8.475Y-9.65
X8.575Y-8.55
X8.575Y-8.65
X8.575Y-9.05
X8.575Y-9.15
X8.575Y-9.55
X8.575Y-9.65
X8.675Y-8.55
X8.675Y-8.65
X8.675Y-9.05
X8.675Y-9.15
X8.675Y-9.55
X8.675Y-9.65
X8.6756Y-4.1
X8.775Y-8.55
X8.775Y-8.65
X8.775Y-9.05
X8.775Y-9.15
X8.775Y-9.55
X8.775Y-9.65
X8.7756Y-4.1
X8.875Y-8.55
X8.875Y-8.65
X8.875Y-9.05
X8.875Y-9.15
X8.875Y-9.55
X8.875Y-9.65
X8.8756Y-4.1
X8.975Y-8.55
X8.975Y-8.65
X8.975Y-9.05
X8.975Y-9.15
X8.975Y-9.55
X8.975Y-9.65
X9.075Y-8.55
X9.075Y-8.65
X9.075Y-9.05
X9.075Y-9.15
X9.075Y-9.55
X9.075Y-9.65
X9.1492Y-3.425
X9.1492Y-3.525
X9.1492Y-3.625
X9.175Y-8.55
X9.175Y-8.65
X9.175Y-9.05
X9.175Y-9.15
X9.175Y-9.55
X9.175Y-9.65
X9.275Y-8.55
X9.275Y-8.65
X9.275Y-9.05
X9.275Y-9.15
X9.275Y-9.55
X9.275Y-9.65
X9.375Y-8.55
X9.375Y-8.65
X9.375Y-9.05
X9.375Y-9.15
X9.375Y-9.55
X9.375Y-9.65
X9.475Y-8.55
X9.475Y-8.65
X9.475Y-9.05
X9.475Y-9.15
X9.475Y-9.55
X9.475Y-9.65
X9.575Y-8.55
X9.575Y-8.65
X9.575Y-9.05
X9.575Y-9.15
X9.575Y-9.55
X9.575Y-9.65
X9.675Y-8.55
X9.675Y-8.65
X9.675Y-9.05
X9.675Y-9.15
X9.675Y-9.55
X9.675Y-9.65
X9.775Y-8.55
X9.775Y-8.65
X9.775Y-9.05
X9.775Y-9.15
X9.775Y-9.55
X9.775Y-9.65
X9.875Y-8.55
X9.875Y-8.65
X9.875Y-9.05
X9.875Y-9.15
X9.875Y-9.55
X9.875Y-9.65
X9.975Y-4.6746
X9.975Y-4.7746
X9.975Y-4.8746
X9.975Y-4.9746
X9.975Y-8.55
X9.975Y-8.65
X9.975Y-9.05
X9.975Y-9.15
X9.975Y-9.55
X9.975Y-9.65
X10.075Y-8.55
X10.075Y-8.65
X10.075Y-9.05
X10.075Y-9.15
X10.075Y-9.55
X10.075Y-9.65
X10.175Y-8.55
X10.175Y-8.65
X10.175Y-9.05
X10.175Y-9.15
X10.175Y-9.55
X10.175Y-9.65
X10.225Y-9.875
X10.275Y-8.55
X10.275Y-8.65
X10.275Y-9.05
X10.275Y-9.15
X10.275Y-9.55
X10.275Y-9.65
X10.325Y-9.875
X10.375Y-8.55
X10.375Y-8.65
X10.375Y-9.05
X10.375Y-9.15
X10.375Y-9.55
X10.375Y-9.65
X10.425Y-9.875
X10.475Y-8.55
X10.475Y-8.65
X10.475Y-9.05
X10.475Y-9.15
X10.475Y-9.55
X10.475Y-9.65
X10.525Y-9.875
X10.575Y-8.55
X10.575Y-8.65
X10.575Y-9.05
X10.575Y-9.15
X10.575Y-9.55
X10.575Y-9.65
X10.675Y-8.55
X10.675Y-8.65
X10.675Y-9.05
X10.675Y-9.15
X10.675Y-9.55
X10.675Y-9.65
X10.775Y-8.55
X10.775Y-8.65
X10.775Y-9.05
X10.775Y-9.15
X10.775Y-9.55
X10.775Y-9.65
X10.875Y-8.55
X10.875Y-8.65
X10.875Y-9.05
X10.875Y-9.15
X10.875Y-9.55
X10.875Y-9.65
X10.975Y-8.55
X10.975Y-8.65
X10.975Y-9.05
X10.975Y-9.15
X10.975Y-9.55
X10.975Y-9.65
X11.075Y-8.55
X11.075Y-8.65
X11.075Y-9.05
X11.075Y-9.15
X11.075Y-9.55
X11.075Y-9.65
X12.15Y-10.0954
X12.15Y-10.1954
X12.25Y-10.0954
X12.25Y-10.1954
X12.35Y-10.0954
X12.35Y-10.1954
X12.45Y-10.0954
X12.45Y-10.1954
X12.55Y-10.0954
X12.55Y-10.1954
X12.65Y-10.0954
X12.65Y-10.1954
X12.75Y-10.0954
X12.75Y-10.1954
X12.85Y-10.0954
X12.85Y-10.1954
X12.95Y-10.0954
X12.95Y-10.1954
X13.0498Y-9.725
X13.05Y-10.0954
X13.05Y-10.1954
X13.125Y-3.35
X13.1498Y-9.725
X13.15Y-10.0954
X13.15Y-10.1954
X13.1795Y-3.2382
X13.2341Y-3.35
X13.25Y-10.0954
X13.25Y-10.1954
X13.2886Y-3.2382
X13.3431Y-3.35
X13.35Y-10.0954
X13.35Y-10.1954
X13.3976Y-3.2382
X13.4522Y-3.35
X13.5067Y-3.2382
X13.5612Y-3.35
X13.6157Y-3.2382
X13.6703Y-3.35
X13.7248Y-3.2382
X13.7793Y-3.35
X13.8339Y-3.2382
X13.8884Y-3.35
X13.9429Y-3.2382
X13.9974Y-3.35
X14.052Y-3.2382
X14.1065Y-3.35
X14.161Y-3.2382
X14.2156Y-3.35
X14.2701Y-3.2382
X14.3Y-11.0252
X14.3Y-11.1252
X14.3246Y-3.35
X14.3791Y-3.2382
X14.4337Y-3.35
T6
X9.4Y-3.3
X9.9Y-3.3
T7
X7.8531Y-3.5191
X7.8531Y-4.0191
X8.2469Y-3.4207
X8.2469Y-3.6175
X8.2469Y-3.9207
X8.2469Y-4.1175
X8.5766Y-3.7734
X8.675Y-3.4781
X8.7734Y-3.7734
T8
X11.0606Y-3.45
X11.0606Y-3.6469
X11.1531Y-3.0563
X11.1531Y-3.5484
X11.2516Y-3.0563
X11.35Y-3.45
X11.35Y-3.6469
X11.4484Y-3.0563
X11.5469Y-3.0563
X11.5469Y-3.5484
X11.6394Y-3.45
X11.6394Y-3.6469
X14.4281Y-12.225
X14.4369Y-9.7356
X14.4369Y-10.3144
X14.5266Y-12.0281
X14.5266Y-12.4219
X14.5353Y-9.8281
X14.5353Y-10.2219
X14.625Y-11.9356
X14.625Y-12.225
X14.625Y-12.5144
X14.6337Y-9.7356
X14.6337Y-10.025
X14.6337Y-10.3144
X15.0187Y-12.0281
X15.0187Y-12.1266
X15.0187Y-12.3234
X15.0187Y-12.4219
X15.0274Y-9.8281
X15.0274Y-9.9266
X15.0274Y-10.1234
X15.0274Y-10.2219
T9
X4.0632Y-10.175
X4.2191Y-10.175
X4.375Y-10.175
X4.5309Y-10.175
X4.6868Y-10.175
X4.8427Y-10.175
X4.9986Y-10.175
T10
X12.8522Y-3.3382
X14.7065Y-3.3382
T5
G00X14.4199Y-9.1
M15
G01X14.4002Y-9.1
M16
G05
G00X14.4199Y-9.3362
M15
G01X14.4002Y-9.3362
M16
G05
G00X14.5774Y-9.1
M15
G01X14.5577Y-9.1
M16
G05
G00X14.5774Y-9.3362
M15
G01X14.5577Y-9.3362
M16
G05
G00X14.7348Y-9.1
M15
G01X14.7152Y-9.1
M16
G05
G00X14.7348Y-9.3362
M15
G01X14.7152Y-9.3362
M16
G05
T0
M30
