G04 #@! TF.GenerationSoftware,KiCad,Pcbnew,(6.0.8)*
G04 #@! TF.CreationDate,2022-10-19T21:35:41+01:00*
G04 #@! TF.ProjectId,DgnBeta,44676e42-6574-4612-9e6b-696361645f70,rev?*
G04 #@! TF.SameCoordinates,Original*
G04 #@! TF.FileFunction,Legend,Bot*
G04 #@! TF.FilePolarity,Positive*
%FSLAX46Y46*%
G04 Gerber Fmt 4.6, Leading zero omitted, Abs format (unit mm)*
G04 Created by KiCad (PCBNEW (6.0.8)) date 2022-10-19 21:35:41*
%MOMM*%
%LPD*%
G01*
G04 APERTURE LIST*
%ADD10C,0.400000*%
%ADD11C,0.120000*%
G04 APERTURE END LIST*
D10*
X374906190Y-375565952D02*
X375739523Y-374375476D01*
X376334761Y-375565952D02*
X376334761Y-373065952D01*
X375382380Y-373065952D01*
X375144285Y-373185000D01*
X375025238Y-373304047D01*
X374906190Y-373542142D01*
X374906190Y-373899285D01*
X375025238Y-374137380D01*
X375144285Y-374256428D01*
X375382380Y-374375476D01*
X376334761Y-374375476D01*
X373834761Y-374256428D02*
X373001428Y-374256428D01*
X372644285Y-375565952D02*
X373834761Y-375565952D01*
X373834761Y-373065952D01*
X372644285Y-373065952D01*
X371572857Y-375565952D02*
X371572857Y-373065952D01*
X370620476Y-373065952D01*
X370382380Y-373185000D01*
X370263333Y-373304047D01*
X370144285Y-373542142D01*
X370144285Y-373899285D01*
X370263333Y-374137380D01*
X370382380Y-374256428D01*
X370620476Y-374375476D01*
X371572857Y-374375476D01*
X367644285Y-375565952D02*
X368477619Y-374375476D01*
X369072857Y-375565952D02*
X369072857Y-373065952D01*
X368120476Y-373065952D01*
X367882380Y-373185000D01*
X367763333Y-373304047D01*
X367644285Y-373542142D01*
X367644285Y-373899285D01*
X367763333Y-374137380D01*
X367882380Y-374256428D01*
X368120476Y-374375476D01*
X369072857Y-374375476D01*
X366096666Y-373065952D02*
X365620476Y-373065952D01*
X365382380Y-373185000D01*
X365144285Y-373423095D01*
X365025238Y-373899285D01*
X365025238Y-374732619D01*
X365144285Y-375208809D01*
X365382380Y-375446904D01*
X365620476Y-375565952D01*
X366096666Y-375565952D01*
X366334761Y-375446904D01*
X366572857Y-375208809D01*
X366691904Y-374732619D01*
X366691904Y-373899285D01*
X366572857Y-373423095D01*
X366334761Y-373185000D01*
X366096666Y-373065952D01*
X363953809Y-375565952D02*
X363953809Y-373065952D01*
X363358571Y-373065952D01*
X363001428Y-373185000D01*
X362763333Y-373423095D01*
X362644285Y-373661190D01*
X362525238Y-374137380D01*
X362525238Y-374494523D01*
X362644285Y-374970714D01*
X362763333Y-375208809D01*
X363001428Y-375446904D01*
X363358571Y-375565952D01*
X363953809Y-375565952D01*
X361453809Y-373065952D02*
X361453809Y-375089761D01*
X361334761Y-375327857D01*
X361215714Y-375446904D01*
X360977619Y-375565952D01*
X360501428Y-375565952D01*
X360263333Y-375446904D01*
X360144285Y-375327857D01*
X360025238Y-375089761D01*
X360025238Y-373065952D01*
X357406190Y-375327857D02*
X357525238Y-375446904D01*
X357882380Y-375565952D01*
X358120476Y-375565952D01*
X358477619Y-375446904D01*
X358715714Y-375208809D01*
X358834761Y-374970714D01*
X358953809Y-374494523D01*
X358953809Y-374137380D01*
X358834761Y-373661190D01*
X358715714Y-373423095D01*
X358477619Y-373185000D01*
X358120476Y-373065952D01*
X357882380Y-373065952D01*
X357525238Y-373185000D01*
X357406190Y-373304047D01*
X356691904Y-373065952D02*
X355263333Y-373065952D01*
X355977619Y-375565952D02*
X355977619Y-373065952D01*
X354430000Y-375565952D02*
X354430000Y-373065952D01*
X352763333Y-373065952D02*
X352287142Y-373065952D01*
X352049047Y-373185000D01*
X351810952Y-373423095D01*
X351691904Y-373899285D01*
X351691904Y-374732619D01*
X351810952Y-375208809D01*
X352049047Y-375446904D01*
X352287142Y-375565952D01*
X352763333Y-375565952D01*
X353001428Y-375446904D01*
X353239523Y-375208809D01*
X353358571Y-374732619D01*
X353358571Y-373899285D01*
X353239523Y-373423095D01*
X353001428Y-373185000D01*
X352763333Y-373065952D01*
X350620476Y-375565952D02*
X350620476Y-373065952D01*
X349191904Y-375565952D01*
X349191904Y-373065952D01*
X345263333Y-374256428D02*
X344906190Y-374375476D01*
X344787142Y-374494523D01*
X344668095Y-374732619D01*
X344668095Y-375089761D01*
X344787142Y-375327857D01*
X344906190Y-375446904D01*
X345144285Y-375565952D01*
X346096666Y-375565952D01*
X346096666Y-373065952D01*
X345263333Y-373065952D01*
X345025238Y-373185000D01*
X344906190Y-373304047D01*
X344787142Y-373542142D01*
X344787142Y-373780238D01*
X344906190Y-374018333D01*
X345025238Y-374137380D01*
X345263333Y-374256428D01*
X346096666Y-374256428D01*
X343120476Y-374375476D02*
X343120476Y-375565952D01*
X343953809Y-373065952D02*
X343120476Y-374375476D01*
X342287142Y-373065952D01*
X376334761Y-379590952D02*
X376334761Y-377090952D01*
X375739523Y-377090952D01*
X375382380Y-377210000D01*
X375144285Y-377448095D01*
X375025238Y-377686190D01*
X374906190Y-378162380D01*
X374906190Y-378519523D01*
X375025238Y-378995714D01*
X375144285Y-379233809D01*
X375382380Y-379471904D01*
X375739523Y-379590952D01*
X376334761Y-379590952D01*
X372406190Y-379590952D02*
X373239523Y-378400476D01*
X373834761Y-379590952D02*
X373834761Y-377090952D01*
X372882380Y-377090952D01*
X372644285Y-377210000D01*
X372525238Y-377329047D01*
X372406190Y-377567142D01*
X372406190Y-377924285D01*
X372525238Y-378162380D01*
X372644285Y-378281428D01*
X372882380Y-378400476D01*
X373834761Y-378400476D01*
X371453809Y-378876666D02*
X370263333Y-378876666D01*
X371691904Y-379590952D02*
X370858571Y-377090952D01*
X370025238Y-379590952D01*
X367882380Y-377210000D02*
X368120476Y-377090952D01*
X368477619Y-377090952D01*
X368834761Y-377210000D01*
X369072857Y-377448095D01*
X369191904Y-377686190D01*
X369310952Y-378162380D01*
X369310952Y-378519523D01*
X369191904Y-378995714D01*
X369072857Y-379233809D01*
X368834761Y-379471904D01*
X368477619Y-379590952D01*
X368239523Y-379590952D01*
X367882380Y-379471904D01*
X367763333Y-379352857D01*
X367763333Y-378519523D01*
X368239523Y-378519523D01*
X366215714Y-377090952D02*
X365739523Y-377090952D01*
X365501428Y-377210000D01*
X365263333Y-377448095D01*
X365144285Y-377924285D01*
X365144285Y-378757619D01*
X365263333Y-379233809D01*
X365501428Y-379471904D01*
X365739523Y-379590952D01*
X366215714Y-379590952D01*
X366453809Y-379471904D01*
X366691904Y-379233809D01*
X366810952Y-378757619D01*
X366810952Y-377924285D01*
X366691904Y-377448095D01*
X366453809Y-377210000D01*
X366215714Y-377090952D01*
X364072857Y-379590952D02*
X364072857Y-377090952D01*
X362644285Y-379590952D01*
X362644285Y-377090952D01*
X361453809Y-379590952D02*
X361453809Y-377090952D01*
X360501428Y-377090952D01*
X360263333Y-377210000D01*
X360144285Y-377329047D01*
X360025238Y-377567142D01*
X360025238Y-377924285D01*
X360144285Y-378162380D01*
X360263333Y-378281428D01*
X360501428Y-378400476D01*
X361453809Y-378400476D01*
X357763333Y-379590952D02*
X358953809Y-379590952D01*
X358953809Y-377090952D01*
X356930000Y-377090952D02*
X356930000Y-379114761D01*
X356810952Y-379352857D01*
X356691904Y-379471904D01*
X356453809Y-379590952D01*
X355977619Y-379590952D01*
X355739523Y-379471904D01*
X355620476Y-379352857D01*
X355501428Y-379114761D01*
X355501428Y-377090952D01*
X354430000Y-379471904D02*
X354072857Y-379590952D01*
X353477619Y-379590952D01*
X353239523Y-379471904D01*
X353120476Y-379352857D01*
X353001428Y-379114761D01*
X353001428Y-378876666D01*
X353120476Y-378638571D01*
X353239523Y-378519523D01*
X353477619Y-378400476D01*
X353953809Y-378281428D01*
X354191904Y-378162380D01*
X354310952Y-378043333D01*
X354430000Y-377805238D01*
X354430000Y-377567142D01*
X354310952Y-377329047D01*
X354191904Y-377210000D01*
X353953809Y-377090952D01*
X353358571Y-377090952D01*
X353001428Y-377210000D01*
X350025238Y-378281428D02*
X349191904Y-378281428D01*
X348834761Y-379590952D02*
X350025238Y-379590952D01*
X350025238Y-377090952D01*
X348834761Y-377090952D01*
X346572857Y-379590952D02*
X347763333Y-379590952D01*
X347763333Y-377090952D01*
X345739523Y-378281428D02*
X344906190Y-378281428D01*
X344549047Y-379590952D02*
X345739523Y-379590952D01*
X345739523Y-377090952D01*
X344549047Y-377090952D01*
X342049047Y-379352857D02*
X342168095Y-379471904D01*
X342525238Y-379590952D01*
X342763333Y-379590952D01*
X343120476Y-379471904D01*
X343358571Y-379233809D01*
X343477619Y-378995714D01*
X343596666Y-378519523D01*
X343596666Y-378162380D01*
X343477619Y-377686190D01*
X343358571Y-377448095D01*
X343120476Y-377210000D01*
X342763333Y-377090952D01*
X342525238Y-377090952D01*
X342168095Y-377210000D01*
X342049047Y-377329047D01*
X341334761Y-377090952D02*
X339906190Y-377090952D01*
X340620476Y-379590952D02*
X340620476Y-377090952D01*
X337644285Y-379590952D02*
X338477619Y-378400476D01*
X339072857Y-379590952D02*
X339072857Y-377090952D01*
X338120476Y-377090952D01*
X337882380Y-377210000D01*
X337763333Y-377329047D01*
X337644285Y-377567142D01*
X337644285Y-377924285D01*
X337763333Y-378162380D01*
X337882380Y-378281428D01*
X338120476Y-378400476D01*
X339072857Y-378400476D01*
X336096666Y-377090952D02*
X335620476Y-377090952D01*
X335382380Y-377210000D01*
X335144285Y-377448095D01*
X335025238Y-377924285D01*
X335025238Y-378757619D01*
X335144285Y-379233809D01*
X335382380Y-379471904D01*
X335620476Y-379590952D01*
X336096666Y-379590952D01*
X336334761Y-379471904D01*
X336572857Y-379233809D01*
X336691904Y-378757619D01*
X336691904Y-377924285D01*
X336572857Y-377448095D01*
X336334761Y-377210000D01*
X336096666Y-377090952D01*
X333953809Y-379590952D02*
X333953809Y-377090952D01*
X332525238Y-379590952D01*
X332525238Y-377090952D01*
X331334761Y-379590952D02*
X331334761Y-377090952D01*
X328715714Y-379352857D02*
X328834761Y-379471904D01*
X329191904Y-379590952D01*
X329430000Y-379590952D01*
X329787142Y-379471904D01*
X330025238Y-379233809D01*
X330144285Y-378995714D01*
X330263333Y-378519523D01*
X330263333Y-378162380D01*
X330144285Y-377686190D01*
X330025238Y-377448095D01*
X329787142Y-377210000D01*
X329430000Y-377090952D01*
X329191904Y-377090952D01*
X328834761Y-377210000D01*
X328715714Y-377329047D01*
X327763333Y-379471904D02*
X327406190Y-379590952D01*
X326810952Y-379590952D01*
X326572857Y-379471904D01*
X326453809Y-379352857D01*
X326334761Y-379114761D01*
X326334761Y-378876666D01*
X326453809Y-378638571D01*
X326572857Y-378519523D01*
X326810952Y-378400476D01*
X327287142Y-378281428D01*
X327525238Y-378162380D01*
X327644285Y-378043333D01*
X327763333Y-377805238D01*
X327763333Y-377567142D01*
X327644285Y-377329047D01*
X327525238Y-377210000D01*
X327287142Y-377090952D01*
X326691904Y-377090952D01*
X326334761Y-377210000D01*
X376691904Y-381115952D02*
X375858571Y-383615952D01*
X375025238Y-381115952D01*
X373715714Y-381115952D02*
X373477619Y-381115952D01*
X373239523Y-381235000D01*
X373120476Y-381354047D01*
X373001428Y-381592142D01*
X372882380Y-382068333D01*
X372882380Y-382663571D01*
X373001428Y-383139761D01*
X373120476Y-383377857D01*
X373239523Y-383496904D01*
X373477619Y-383615952D01*
X373715714Y-383615952D01*
X373953809Y-383496904D01*
X374072857Y-383377857D01*
X374191904Y-383139761D01*
X374310952Y-382663571D01*
X374310952Y-382068333D01*
X374191904Y-381592142D01*
X374072857Y-381354047D01*
X373953809Y-381235000D01*
X373715714Y-381115952D01*
X371810952Y-383377857D02*
X371691904Y-383496904D01*
X371810952Y-383615952D01*
X371930000Y-383496904D01*
X371810952Y-383377857D01*
X371810952Y-383615952D01*
X369549047Y-381115952D02*
X370025238Y-381115952D01*
X370263333Y-381235000D01*
X370382380Y-381354047D01*
X370620476Y-381711190D01*
X370739523Y-382187380D01*
X370739523Y-383139761D01*
X370620476Y-383377857D01*
X370501428Y-383496904D01*
X370263333Y-383615952D01*
X369787142Y-383615952D01*
X369549047Y-383496904D01*
X369430000Y-383377857D01*
X369310952Y-383139761D01*
X369310952Y-382544523D01*
X369430000Y-382306428D01*
X369549047Y-382187380D01*
X369787142Y-382068333D01*
X370263333Y-382068333D01*
X370501428Y-382187380D01*
X370620476Y-382306428D01*
X370739523Y-382544523D01*
X366334761Y-382663571D02*
X364430000Y-382663571D01*
X361453809Y-381354047D02*
X361334761Y-381235000D01*
X361096666Y-381115952D01*
X360501428Y-381115952D01*
X360263333Y-381235000D01*
X360144285Y-381354047D01*
X360025238Y-381592142D01*
X360025238Y-381830238D01*
X360144285Y-382187380D01*
X361572857Y-383615952D01*
X360025238Y-383615952D01*
X358834761Y-383615952D02*
X358358571Y-383615952D01*
X358120476Y-383496904D01*
X358001428Y-383377857D01*
X357763333Y-383020714D01*
X357644285Y-382544523D01*
X357644285Y-381592142D01*
X357763333Y-381354047D01*
X357882380Y-381235000D01*
X358120476Y-381115952D01*
X358596666Y-381115952D01*
X358834761Y-381235000D01*
X358953809Y-381354047D01*
X359072857Y-381592142D01*
X359072857Y-382187380D01*
X358953809Y-382425476D01*
X358834761Y-382544523D01*
X358596666Y-382663571D01*
X358120476Y-382663571D01*
X357882380Y-382544523D01*
X357763333Y-382425476D01*
X357644285Y-382187380D01*
X353953809Y-381115952D02*
X353953809Y-382901666D01*
X354072857Y-383258809D01*
X354310952Y-383496904D01*
X354668095Y-383615952D01*
X354906190Y-383615952D01*
X351691904Y-381949285D02*
X351691904Y-383615952D01*
X352763333Y-381949285D02*
X352763333Y-383258809D01*
X352644285Y-383496904D01*
X352406190Y-383615952D01*
X352049047Y-383615952D01*
X351810952Y-383496904D01*
X351691904Y-383377857D01*
X350501428Y-381949285D02*
X350501428Y-383615952D01*
X350501428Y-382187380D02*
X350382380Y-382068333D01*
X350144285Y-381949285D01*
X349787142Y-381949285D01*
X349549047Y-382068333D01*
X349430000Y-382306428D01*
X349430000Y-383615952D01*
X346453809Y-381354047D02*
X346334761Y-381235000D01*
X346096666Y-381115952D01*
X345501428Y-381115952D01*
X345263333Y-381235000D01*
X345144285Y-381354047D01*
X345025238Y-381592142D01*
X345025238Y-381830238D01*
X345144285Y-382187380D01*
X346572857Y-383615952D01*
X345025238Y-383615952D01*
X343477619Y-381115952D02*
X343239523Y-381115952D01*
X343001428Y-381235000D01*
X342882380Y-381354047D01*
X342763333Y-381592142D01*
X342644285Y-382068333D01*
X342644285Y-382663571D01*
X342763333Y-383139761D01*
X342882380Y-383377857D01*
X343001428Y-383496904D01*
X343239523Y-383615952D01*
X343477619Y-383615952D01*
X343715714Y-383496904D01*
X343834761Y-383377857D01*
X343953809Y-383139761D01*
X344072857Y-382663571D01*
X344072857Y-382068333D01*
X343953809Y-381592142D01*
X343834761Y-381354047D01*
X343715714Y-381235000D01*
X343477619Y-381115952D01*
X341691904Y-381354047D02*
X341572857Y-381235000D01*
X341334761Y-381115952D01*
X340739523Y-381115952D01*
X340501428Y-381235000D01*
X340382380Y-381354047D01*
X340263333Y-381592142D01*
X340263333Y-381830238D01*
X340382380Y-382187380D01*
X341810952Y-383615952D01*
X340263333Y-383615952D01*
X339310952Y-381354047D02*
X339191904Y-381235000D01*
X338953809Y-381115952D01*
X338358571Y-381115952D01*
X338120476Y-381235000D01*
X338001428Y-381354047D01*
X337882380Y-381592142D01*
X337882380Y-381830238D01*
X338001428Y-382187380D01*
X339430000Y-383615952D01*
X337882380Y-383615952D01*
X335025238Y-381354047D02*
X334906190Y-381235000D01*
X334668095Y-381115952D01*
X334072857Y-381115952D01*
X333834761Y-381235000D01*
X333715714Y-381354047D01*
X333596666Y-381592142D01*
X333596666Y-381830238D01*
X333715714Y-382187380D01*
X335144285Y-383615952D01*
X333596666Y-383615952D01*
X332644285Y-381354047D02*
X332525238Y-381235000D01*
X332287142Y-381115952D01*
X331691904Y-381115952D01*
X331453809Y-381235000D01*
X331334761Y-381354047D01*
X331215714Y-381592142D01*
X331215714Y-381830238D01*
X331334761Y-382187380D01*
X332763333Y-383615952D01*
X331215714Y-383615952D01*
X330144285Y-383377857D02*
X330025238Y-383496904D01*
X330144285Y-383615952D01*
X330263333Y-383496904D01*
X330144285Y-383377857D01*
X330144285Y-383615952D01*
X330144285Y-382068333D02*
X330025238Y-382187380D01*
X330144285Y-382306428D01*
X330263333Y-382187380D01*
X330144285Y-382068333D01*
X330144285Y-382306428D01*
X329191904Y-381115952D02*
X327644285Y-381115952D01*
X328477619Y-382068333D01*
X328120476Y-382068333D01*
X327882380Y-382187380D01*
X327763333Y-382306428D01*
X327644285Y-382544523D01*
X327644285Y-383139761D01*
X327763333Y-383377857D01*
X327882380Y-383496904D01*
X328120476Y-383615952D01*
X328834761Y-383615952D01*
X329072857Y-383496904D01*
X329191904Y-383377857D01*
X325501428Y-381949285D02*
X325501428Y-383615952D01*
X326096666Y-380996904D02*
X326691904Y-382782619D01*
X325144285Y-382782619D01*
D11*
X374396000Y-229174302D02*
G75*
G03*
X374396000Y-229174302I-381000J0D01*
G01*
M02*
