G04 #@! TF.GenerationSoftware,KiCad,Pcbnew,(6.0.8)*
G04 #@! TF.CreationDate,2022-10-19T21:35:43+01:00*
G04 #@! TF.ProjectId,DgnBeta,44676e42-6574-4612-9e6b-696361645f70,rev?*
G04 #@! TF.SameCoordinates,Original*
G04 #@! TF.FileFunction,Soldermask,Bot*
G04 #@! TF.FilePolarity,Negative*
%FSLAX46Y46*%
G04 Gerber Fmt 4.6, Leading zero omitted, Abs format (unit mm)*
G04 Created by KiCad (PCBNEW (6.0.8)) date 2022-10-19 21:35:43*
%MOMM*%
%LPD*%
G01*
G04 APERTURE LIST*
G04 Aperture macros list*
%AMRoundRect*
0 Rectangle with rounded corners*
0 $1 Rounding radius*
0 $2 $3 $4 $5 $6 $7 $8 $9 X,Y pos of 4 corners*
0 Add a 4 corners polygon primitive as box body*
4,1,4,$2,$3,$4,$5,$6,$7,$8,$9,$2,$3,0*
0 Add four circle primitives for the rounded corners*
1,1,$1+$1,$2,$3*
1,1,$1+$1,$4,$5*
1,1,$1+$1,$6,$7*
1,1,$1+$1,$8,$9*
0 Add four rect primitives between the rounded corners*
20,1,$1+$1,$2,$3,$4,$5,0*
20,1,$1+$1,$4,$5,$6,$7,0*
20,1,$1+$1,$6,$7,$8,$9,0*
20,1,$1+$1,$8,$9,$2,$3,0*%
G04 Aperture macros list end*
%ADD10RoundRect,0.051000X0.800000X0.800000X-0.800000X0.800000X-0.800000X-0.800000X0.800000X-0.800000X0*%
%ADD11O,1.702000X1.702000*%
%ADD12C,1.702000*%
%ADD13RoundRect,0.051000X-0.800000X-0.800000X0.800000X-0.800000X0.800000X0.800000X-0.800000X0.800000X0*%
%ADD14C,1.502000*%
%ADD15O,1.502000X1.502000*%
%ADD16RoundRect,0.051000X0.800000X-0.800000X0.800000X0.800000X-0.800000X0.800000X-0.800000X-0.800000X0*%
%ADD17C,1.602000*%
%ADD18RoundRect,0.051000X-0.800000X0.800000X-0.800000X-0.800000X0.800000X-0.800000X0.800000X0.800000X0*%
%ADD19C,2.902000*%
%ADD20RoundRect,0.051000X0.850000X-0.850000X0.850000X0.850000X-0.850000X0.850000X-0.850000X-0.850000X0*%
%ADD21C,1.802000*%
%ADD22RoundRect,0.051000X0.850000X0.850000X-0.850000X0.850000X-0.850000X-0.850000X0.850000X-0.850000X0*%
%ADD23O,1.802000X1.802000*%
%ADD24RoundRect,0.051000X-0.850000X0.850000X-0.850000X-0.850000X0.850000X-0.850000X0.850000X0.850000X0*%
%ADD25RoundRect,0.301000X-1.330000X-1.800000X1.330000X-1.800000X1.330000X1.800000X-1.330000X1.800000X0*%
%ADD26O,3.262000X4.202000*%
%ADD27RoundRect,0.051000X-0.750000X0.750000X-0.750000X-0.750000X0.750000X-0.750000X0.750000X0.750000X0*%
%ADD28C,4.102000*%
%ADD29C,2.602000*%
%ADD30RoundRect,0.051000X-1.100000X-1.100000X1.100000X-1.100000X1.100000X1.100000X-1.100000X1.100000X0*%
%ADD31O,2.302000X2.302000*%
%ADD32RoundRect,0.051000X-0.900000X0.900000X-0.900000X-0.900000X0.900000X-0.900000X0.900000X0.900000X0*%
%ADD33O,1.902000X1.902000*%
%ADD34C,3.302000*%
%ADD35C,2.442000*%
%ADD36RoundRect,0.051000X-0.850000X-0.850000X0.850000X-0.850000X0.850000X0.850000X-0.850000X0.850000X0*%
%ADD37RoundRect,0.301000X-0.600000X0.600000X-0.600000X-0.600000X0.600000X-0.600000X0.600000X0.600000X0*%
%ADD38O,2.302000X1.802000*%
G04 APERTURE END LIST*
D10*
X151130000Y-207010000D03*
D11*
X151130000Y-204470000D03*
X151130000Y-201930000D03*
X151130000Y-199390000D03*
X151130000Y-196850000D03*
X151130000Y-194310000D03*
X151130000Y-191770000D03*
X151130000Y-189230000D03*
X151130000Y-186690000D03*
X151130000Y-184150000D03*
X151130000Y-181610000D03*
X151130000Y-179070000D03*
X151130000Y-176530000D03*
X151130000Y-173990000D03*
X151130000Y-171450000D03*
X151130000Y-168910000D03*
X151130000Y-166370000D03*
X151130000Y-163830000D03*
X151130000Y-161290000D03*
X151130000Y-158750000D03*
X135890000Y-158750000D03*
X135890000Y-161290000D03*
X135890000Y-163830000D03*
X135890000Y-166370000D03*
X135890000Y-168910000D03*
X135890000Y-171450000D03*
X135890000Y-173990000D03*
X135890000Y-176530000D03*
X135890000Y-179070000D03*
X135890000Y-181610000D03*
X135890000Y-184150000D03*
X135890000Y-186690000D03*
X135890000Y-189230000D03*
X135890000Y-191770000D03*
X135890000Y-194310000D03*
X135890000Y-196850000D03*
X135890000Y-199390000D03*
X135890000Y-201930000D03*
X135890000Y-204470000D03*
X135890000Y-207010000D03*
D10*
X85090000Y-374015000D03*
D11*
X85090000Y-371475000D03*
X85090000Y-368935000D03*
X85090000Y-366395000D03*
X85090000Y-363855000D03*
X85090000Y-361315000D03*
X85090000Y-358775000D03*
X77470000Y-358775000D03*
X77470000Y-361315000D03*
X77470000Y-363855000D03*
X77470000Y-366395000D03*
X77470000Y-368935000D03*
X77470000Y-371475000D03*
X77470000Y-374015000D03*
D12*
X29210000Y-288925000D03*
X34210000Y-288925000D03*
D13*
X27940000Y-311785000D03*
D12*
X32940000Y-311785000D03*
D10*
X120650000Y-207010000D03*
D11*
X120650000Y-204470000D03*
X120650000Y-201930000D03*
X120650000Y-199390000D03*
X120650000Y-196850000D03*
X120650000Y-194310000D03*
X120650000Y-191770000D03*
X120650000Y-189230000D03*
X120650000Y-186690000D03*
X120650000Y-184150000D03*
X120650000Y-181610000D03*
X120650000Y-179070000D03*
X120650000Y-176530000D03*
X120650000Y-173990000D03*
X120650000Y-171450000D03*
X120650000Y-168910000D03*
X120650000Y-166370000D03*
X120650000Y-163830000D03*
X120650000Y-161290000D03*
X120650000Y-158750000D03*
X105410000Y-158750000D03*
X105410000Y-161290000D03*
X105410000Y-163830000D03*
X105410000Y-166370000D03*
X105410000Y-168910000D03*
X105410000Y-171450000D03*
X105410000Y-173990000D03*
X105410000Y-176530000D03*
X105410000Y-179070000D03*
X105410000Y-181610000D03*
X105410000Y-184150000D03*
X105410000Y-186690000D03*
X105410000Y-189230000D03*
X105410000Y-191770000D03*
X105410000Y-194310000D03*
X105410000Y-196850000D03*
X105410000Y-199390000D03*
X105410000Y-201930000D03*
X105410000Y-204470000D03*
X105410000Y-207010000D03*
D12*
X28575000Y-344805000D03*
X33575000Y-344805000D03*
D14*
X88900000Y-372745000D03*
D15*
X88900000Y-360045000D03*
D12*
X29210000Y-379730000D03*
X34210000Y-379730000D03*
X30480000Y-265430000D03*
X35480000Y-265430000D03*
D16*
X323850000Y-376555000D03*
D11*
X323850000Y-374015000D03*
X323850000Y-371475000D03*
X323850000Y-368935000D03*
X323850000Y-366395000D03*
X323850000Y-363855000D03*
X323850000Y-361315000D03*
X323850000Y-358775000D03*
X323850000Y-356235000D03*
D16*
X323850000Y-348615000D03*
D11*
X323850000Y-346075000D03*
X323850000Y-343535000D03*
X323850000Y-340995000D03*
X323850000Y-338455000D03*
X323850000Y-335915000D03*
X323850000Y-333375000D03*
X323850000Y-330835000D03*
X323850000Y-328295000D03*
D16*
X323850000Y-324485000D03*
D11*
X323850000Y-321945000D03*
X323850000Y-319405000D03*
X323850000Y-316865000D03*
X323850000Y-314325000D03*
X323850000Y-311785000D03*
X323850000Y-309245000D03*
X323850000Y-306705000D03*
X323850000Y-304165000D03*
D12*
X85090000Y-342900000D03*
X90090000Y-342900000D03*
D10*
X34290000Y-234950000D03*
D11*
X34290000Y-232410000D03*
X34290000Y-229870000D03*
X34290000Y-227330000D03*
X34290000Y-224790000D03*
X34290000Y-222250000D03*
X34290000Y-219710000D03*
X26670000Y-219710000D03*
X26670000Y-222250000D03*
X26670000Y-224790000D03*
X26670000Y-227330000D03*
X26670000Y-229870000D03*
X26670000Y-232410000D03*
X26670000Y-234950000D03*
D17*
X74930000Y-331470000D03*
X74930000Y-326570000D03*
D16*
X323850000Y-296545000D03*
D11*
X323850000Y-294005000D03*
X323850000Y-291465000D03*
X323850000Y-288925000D03*
X323850000Y-286385000D03*
X323850000Y-283845000D03*
X323850000Y-281305000D03*
X323850000Y-278765000D03*
X323850000Y-276225000D03*
D10*
X36830000Y-284480000D03*
D11*
X36830000Y-281940000D03*
X36830000Y-279400000D03*
X36830000Y-276860000D03*
X36830000Y-274320000D03*
X36830000Y-271780000D03*
X36830000Y-269240000D03*
X29210000Y-269240000D03*
X29210000Y-271780000D03*
X29210000Y-274320000D03*
X29210000Y-276860000D03*
X29210000Y-279400000D03*
X29210000Y-281940000D03*
X29210000Y-284480000D03*
D10*
X106680000Y-330835000D03*
D11*
X106680000Y-328295000D03*
X106680000Y-325755000D03*
X106680000Y-323215000D03*
X106680000Y-320675000D03*
X106680000Y-318135000D03*
X106680000Y-315595000D03*
X106680000Y-313055000D03*
X106680000Y-310515000D03*
X106680000Y-307975000D03*
X99060000Y-307975000D03*
X99060000Y-310515000D03*
X99060000Y-313055000D03*
X99060000Y-315595000D03*
X99060000Y-318135000D03*
X99060000Y-320675000D03*
X99060000Y-323215000D03*
X99060000Y-325755000D03*
X99060000Y-328295000D03*
X99060000Y-330835000D03*
D14*
X77470000Y-346075000D03*
D15*
X90170000Y-346075000D03*
D10*
X36830000Y-340995000D03*
D11*
X36830000Y-338455000D03*
X36830000Y-335915000D03*
X36830000Y-333375000D03*
X36830000Y-330835000D03*
X36830000Y-328295000D03*
X36830000Y-325755000D03*
X36830000Y-323215000D03*
X36830000Y-320675000D03*
X36830000Y-318135000D03*
X36830000Y-315595000D03*
X26670000Y-315595000D03*
X26670000Y-318135000D03*
X26670000Y-320675000D03*
X26670000Y-323215000D03*
X26670000Y-325755000D03*
X26670000Y-328295000D03*
X26670000Y-330835000D03*
X26670000Y-333375000D03*
X26670000Y-335915000D03*
X26670000Y-338455000D03*
X26670000Y-340995000D03*
D10*
X36830000Y-374015000D03*
D11*
X36830000Y-371475000D03*
X36830000Y-368935000D03*
X36830000Y-366395000D03*
X36830000Y-363855000D03*
X36830000Y-361315000D03*
X36830000Y-358775000D03*
X36830000Y-356235000D03*
X36830000Y-353695000D03*
X36830000Y-351155000D03*
X36830000Y-348615000D03*
X26670000Y-348615000D03*
X26670000Y-351155000D03*
X26670000Y-353695000D03*
X26670000Y-356235000D03*
X26670000Y-358775000D03*
X26670000Y-361315000D03*
X26670000Y-363855000D03*
X26670000Y-366395000D03*
X26670000Y-368935000D03*
X26670000Y-371475000D03*
X26670000Y-374015000D03*
D14*
X77410001Y-348420001D03*
D15*
X90110001Y-348420001D03*
D14*
X90170000Y-352425000D03*
D15*
X77470000Y-352425000D03*
D10*
X199390000Y-290195000D03*
D11*
X199390000Y-287655000D03*
X199390000Y-285115000D03*
X199390000Y-282575000D03*
X199390000Y-280035000D03*
X199390000Y-277495000D03*
X199390000Y-274955000D03*
X199390000Y-272415000D03*
X199390000Y-269875000D03*
X199390000Y-267335000D03*
X191770000Y-267335000D03*
X191770000Y-269875000D03*
X191770000Y-272415000D03*
X191770000Y-274955000D03*
X191770000Y-277495000D03*
X191770000Y-280035000D03*
X191770000Y-282575000D03*
X191770000Y-285115000D03*
X191770000Y-287655000D03*
X191770000Y-290195000D03*
D10*
X199390000Y-374015000D03*
D11*
X199390000Y-371475000D03*
X199390000Y-368935000D03*
X199390000Y-366395000D03*
X199390000Y-363855000D03*
X199390000Y-361315000D03*
X199390000Y-358775000D03*
X199390000Y-356235000D03*
X199390000Y-353695000D03*
X199390000Y-351155000D03*
X191770000Y-351155000D03*
X191770000Y-353695000D03*
X191770000Y-356235000D03*
X191770000Y-358775000D03*
X191770000Y-361315000D03*
X191770000Y-363855000D03*
X191770000Y-366395000D03*
X191770000Y-368935000D03*
X191770000Y-371475000D03*
X191770000Y-374015000D03*
D10*
X214630000Y-343535000D03*
D11*
X214630000Y-340995000D03*
X214630000Y-338455000D03*
X214630000Y-335915000D03*
X214630000Y-333375000D03*
X214630000Y-330835000D03*
X214630000Y-328295000D03*
X214630000Y-325755000D03*
X207010000Y-325755000D03*
X207010000Y-328295000D03*
X207010000Y-330835000D03*
X207010000Y-333375000D03*
X207010000Y-335915000D03*
X207010000Y-338455000D03*
X207010000Y-340995000D03*
X207010000Y-343535000D03*
D14*
X39370000Y-91440000D03*
D15*
X52070000Y-91440000D03*
D10*
X182245000Y-318135000D03*
D11*
X182245000Y-315595000D03*
X182245000Y-313055000D03*
X182245000Y-310515000D03*
X182245000Y-307975000D03*
X182245000Y-305435000D03*
X182245000Y-302895000D03*
X182245000Y-300355000D03*
X174625000Y-300355000D03*
X174625000Y-302895000D03*
X174625000Y-305435000D03*
X174625000Y-307975000D03*
X174625000Y-310515000D03*
X174625000Y-313055000D03*
X174625000Y-315595000D03*
X174625000Y-318135000D03*
D10*
X158750000Y-349885000D03*
D11*
X158750000Y-347345000D03*
X158750000Y-344805000D03*
X158750000Y-342265000D03*
X158750000Y-339725000D03*
X158750000Y-337185000D03*
X158750000Y-334645000D03*
X151130000Y-334645000D03*
X151130000Y-337185000D03*
X151130000Y-339725000D03*
X151130000Y-342265000D03*
X151130000Y-344805000D03*
X151130000Y-347345000D03*
X151130000Y-349885000D03*
D10*
X41910000Y-207010000D03*
D11*
X41910000Y-204470000D03*
X41910000Y-201930000D03*
X41910000Y-199390000D03*
X41910000Y-196850000D03*
X41910000Y-194310000D03*
X41910000Y-191770000D03*
X41910000Y-189230000D03*
X41910000Y-186690000D03*
X41910000Y-184150000D03*
X41910000Y-181610000D03*
X41910000Y-179070000D03*
X41910000Y-176530000D03*
X41910000Y-173990000D03*
X41910000Y-171450000D03*
X41910000Y-168910000D03*
X41910000Y-166370000D03*
X41910000Y-163830000D03*
X41910000Y-161290000D03*
X41910000Y-158750000D03*
X26670000Y-158750000D03*
X26670000Y-161290000D03*
X26670000Y-163830000D03*
X26670000Y-166370000D03*
X26670000Y-168910000D03*
X26670000Y-171450000D03*
X26670000Y-173990000D03*
X26670000Y-176530000D03*
X26670000Y-179070000D03*
X26670000Y-181610000D03*
X26670000Y-184150000D03*
X26670000Y-186690000D03*
X26670000Y-189230000D03*
X26670000Y-191770000D03*
X26670000Y-194310000D03*
X26670000Y-196850000D03*
X26670000Y-199390000D03*
X26670000Y-201930000D03*
X26670000Y-204470000D03*
X26670000Y-207010000D03*
D10*
X158750000Y-374015000D03*
D11*
X158750000Y-371475000D03*
X158750000Y-368935000D03*
X158750000Y-366395000D03*
X158750000Y-363855000D03*
X158750000Y-361315000D03*
X158750000Y-358775000D03*
X151130000Y-358775000D03*
X151130000Y-361315000D03*
X151130000Y-363855000D03*
X151130000Y-366395000D03*
X151130000Y-368935000D03*
X151130000Y-371475000D03*
X151130000Y-374015000D03*
D10*
X158750000Y-292735000D03*
D11*
X158750000Y-290195000D03*
X158750000Y-287655000D03*
X158750000Y-285115000D03*
X158750000Y-282575000D03*
X158750000Y-280035000D03*
X158750000Y-277495000D03*
X151130000Y-277495000D03*
X151130000Y-280035000D03*
X151130000Y-282575000D03*
X151130000Y-285115000D03*
X151130000Y-287655000D03*
X151130000Y-290195000D03*
X151130000Y-292735000D03*
D10*
X158750000Y-318135000D03*
D11*
X158750000Y-315595000D03*
X158750000Y-313055000D03*
X158750000Y-310515000D03*
X158750000Y-307975000D03*
X158750000Y-305435000D03*
X158750000Y-302895000D03*
X151130000Y-302895000D03*
X151130000Y-305435000D03*
X151130000Y-307975000D03*
X151130000Y-310515000D03*
X151130000Y-313055000D03*
X151130000Y-315595000D03*
X151130000Y-318135000D03*
D10*
X182245000Y-293370000D03*
D11*
X182245000Y-290830000D03*
X182245000Y-288290000D03*
X182245000Y-285750000D03*
X182245000Y-283210000D03*
X182245000Y-280670000D03*
X182245000Y-278130000D03*
X182245000Y-275590000D03*
X182245000Y-273050000D03*
X182245000Y-270510000D03*
X174625000Y-270510000D03*
X174625000Y-273050000D03*
X174625000Y-275590000D03*
X174625000Y-278130000D03*
X174625000Y-280670000D03*
X174625000Y-283210000D03*
X174625000Y-285750000D03*
X174625000Y-288290000D03*
X174625000Y-290830000D03*
X174625000Y-293370000D03*
D14*
X203200000Y-321945000D03*
D15*
X215900000Y-321945000D03*
D10*
X86360000Y-207010000D03*
D11*
X86360000Y-204470000D03*
X86360000Y-201930000D03*
X86360000Y-199390000D03*
X86360000Y-196850000D03*
X86360000Y-194310000D03*
X86360000Y-191770000D03*
X86360000Y-189230000D03*
X86360000Y-186690000D03*
X86360000Y-184150000D03*
X86360000Y-181610000D03*
X86360000Y-179070000D03*
X86360000Y-176530000D03*
X86360000Y-173990000D03*
X86360000Y-171450000D03*
X86360000Y-168910000D03*
X86360000Y-166370000D03*
X86360000Y-163830000D03*
X86360000Y-161290000D03*
X86360000Y-158750000D03*
X71120000Y-158750000D03*
X71120000Y-161290000D03*
X71120000Y-163830000D03*
X71120000Y-166370000D03*
X71120000Y-168910000D03*
X71120000Y-171450000D03*
X71120000Y-173990000D03*
X71120000Y-176530000D03*
X71120000Y-179070000D03*
X71120000Y-181610000D03*
X71120000Y-184150000D03*
X71120000Y-186690000D03*
X71120000Y-189230000D03*
X71120000Y-191770000D03*
X71120000Y-194310000D03*
X71120000Y-196850000D03*
X71120000Y-199390000D03*
X71120000Y-201930000D03*
X71120000Y-204470000D03*
X71120000Y-207010000D03*
D14*
X203200000Y-314960000D03*
D15*
X215900000Y-314960000D03*
D10*
X59690000Y-234950000D03*
D11*
X59690000Y-232410000D03*
X59690000Y-229870000D03*
X59690000Y-227330000D03*
X59690000Y-224790000D03*
X59690000Y-222250000D03*
X59690000Y-219710000D03*
X59690000Y-217170000D03*
X52070000Y-217170000D03*
X52070000Y-219710000D03*
X52070000Y-222250000D03*
X52070000Y-224790000D03*
X52070000Y-227330000D03*
X52070000Y-229870000D03*
X52070000Y-232410000D03*
X52070000Y-234950000D03*
D10*
X100330000Y-189230000D03*
D11*
X100330000Y-186690000D03*
X100330000Y-184150000D03*
X100330000Y-181610000D03*
X100330000Y-179070000D03*
X100330000Y-176530000D03*
X100330000Y-173990000D03*
X100330000Y-171450000D03*
X100330000Y-168910000D03*
X100330000Y-166370000D03*
X92710000Y-166370000D03*
X92710000Y-168910000D03*
X92710000Y-171450000D03*
X92710000Y-173990000D03*
X92710000Y-176530000D03*
X92710000Y-179070000D03*
X92710000Y-181610000D03*
X92710000Y-184150000D03*
X92710000Y-186690000D03*
X92710000Y-189230000D03*
D10*
X59690000Y-374015000D03*
D11*
X59690000Y-371475000D03*
X59690000Y-368935000D03*
X59690000Y-366395000D03*
X59690000Y-363855000D03*
X59690000Y-361315000D03*
X59690000Y-358775000D03*
X59690000Y-356235000D03*
X52070000Y-356235000D03*
X52070000Y-358775000D03*
X52070000Y-361315000D03*
X52070000Y-363855000D03*
X52070000Y-366395000D03*
X52070000Y-368935000D03*
X52070000Y-371475000D03*
X52070000Y-374015000D03*
D10*
X59690000Y-315595000D03*
D11*
X59690000Y-313055000D03*
X59690000Y-310515000D03*
X59690000Y-307975000D03*
X59690000Y-305435000D03*
X59690000Y-302895000D03*
X59690000Y-300355000D03*
X59690000Y-297815000D03*
X59690000Y-295275000D03*
X59690000Y-292735000D03*
X52070000Y-292735000D03*
X52070000Y-295275000D03*
X52070000Y-297815000D03*
X52070000Y-300355000D03*
X52070000Y-302895000D03*
X52070000Y-305435000D03*
X52070000Y-307975000D03*
X52070000Y-310515000D03*
X52070000Y-313055000D03*
X52070000Y-315595000D03*
D10*
X59690000Y-140970000D03*
D11*
X59690000Y-138430000D03*
X59690000Y-135890000D03*
X59690000Y-133350000D03*
X59690000Y-130810000D03*
X59690000Y-128270000D03*
X59690000Y-125730000D03*
X59690000Y-123190000D03*
X59690000Y-120650000D03*
X59690000Y-118110000D03*
X52070000Y-118110000D03*
X52070000Y-120650000D03*
X52070000Y-123190000D03*
X52070000Y-125730000D03*
X52070000Y-128270000D03*
X52070000Y-130810000D03*
X52070000Y-133350000D03*
X52070000Y-135890000D03*
X52070000Y-138430000D03*
X52070000Y-140970000D03*
D14*
X203200000Y-319405000D03*
D15*
X215900000Y-319405000D03*
D10*
X214630000Y-374015000D03*
D11*
X214630000Y-371475000D03*
X214630000Y-368935000D03*
X214630000Y-366395000D03*
X214630000Y-363855000D03*
X214630000Y-361315000D03*
X214630000Y-358775000D03*
X214630000Y-356235000D03*
X207010000Y-356235000D03*
X207010000Y-358775000D03*
X207010000Y-361315000D03*
X207010000Y-363855000D03*
X207010000Y-366395000D03*
X207010000Y-368935000D03*
X207010000Y-371475000D03*
X207010000Y-374015000D03*
D10*
X308610000Y-374015000D03*
D11*
X308610000Y-371475000D03*
X308610000Y-368935000D03*
X308610000Y-366395000D03*
X308610000Y-363855000D03*
X308610000Y-361315000D03*
X308610000Y-358775000D03*
X308610000Y-356235000D03*
X300990000Y-356235000D03*
X300990000Y-358775000D03*
X300990000Y-361315000D03*
X300990000Y-363855000D03*
X300990000Y-366395000D03*
X300990000Y-368935000D03*
X300990000Y-371475000D03*
X300990000Y-374015000D03*
D10*
X297180000Y-374015000D03*
D11*
X297180000Y-371475000D03*
X297180000Y-368935000D03*
X297180000Y-366395000D03*
X297180000Y-363855000D03*
X297180000Y-361315000D03*
X297180000Y-358775000D03*
X297180000Y-356235000D03*
X289560000Y-356235000D03*
X289560000Y-358775000D03*
X289560000Y-361315000D03*
X289560000Y-363855000D03*
X289560000Y-366395000D03*
X289560000Y-368935000D03*
X289560000Y-371475000D03*
X289560000Y-374015000D03*
D14*
X203200000Y-312420000D03*
D15*
X215900000Y-312420000D03*
D14*
X203200000Y-306070000D03*
D15*
X215900000Y-306070000D03*
D14*
X203210000Y-280035000D03*
D15*
X215910000Y-280035000D03*
D14*
X203210000Y-274955000D03*
D15*
X215910000Y-274955000D03*
D14*
X203210000Y-272415000D03*
D15*
X215910000Y-272415000D03*
D14*
X203200000Y-269875000D03*
D15*
X215900000Y-269875000D03*
D14*
X203210000Y-282575000D03*
D15*
X215910000Y-282575000D03*
D10*
X308610000Y-321945000D03*
D11*
X308610000Y-319405000D03*
X308610000Y-316865000D03*
X308610000Y-314325000D03*
X308610000Y-311785000D03*
X308610000Y-309245000D03*
X308610000Y-306705000D03*
X308610000Y-304165000D03*
X300990000Y-304165000D03*
X300990000Y-306705000D03*
X300990000Y-309245000D03*
X300990000Y-311785000D03*
X300990000Y-314325000D03*
X300990000Y-316865000D03*
X300990000Y-319405000D03*
X300990000Y-321945000D03*
D14*
X203200000Y-308610000D03*
D15*
X215900000Y-308610000D03*
D14*
X203210000Y-277495000D03*
D15*
X215910000Y-277495000D03*
D10*
X320040000Y-374015000D03*
D11*
X320040000Y-371475000D03*
X320040000Y-368935000D03*
X320040000Y-366395000D03*
X320040000Y-363855000D03*
X320040000Y-361315000D03*
X320040000Y-358775000D03*
X320040000Y-356235000D03*
X312420000Y-356235000D03*
X312420000Y-358775000D03*
X312420000Y-361315000D03*
X312420000Y-363855000D03*
X312420000Y-366395000D03*
X312420000Y-368935000D03*
X312420000Y-371475000D03*
X312420000Y-374015000D03*
D10*
X308610000Y-294005000D03*
D11*
X308610000Y-291465000D03*
X308610000Y-288925000D03*
X308610000Y-286385000D03*
X308610000Y-283845000D03*
X308610000Y-281305000D03*
X308610000Y-278765000D03*
X308610000Y-276225000D03*
X300990000Y-276225000D03*
X300990000Y-278765000D03*
X300990000Y-281305000D03*
X300990000Y-283845000D03*
X300990000Y-286385000D03*
X300990000Y-288925000D03*
X300990000Y-291465000D03*
X300990000Y-294005000D03*
D10*
X320040000Y-346075000D03*
D11*
X320040000Y-343535000D03*
X320040000Y-340995000D03*
X320040000Y-338455000D03*
X320040000Y-335915000D03*
X320040000Y-333375000D03*
X320040000Y-330835000D03*
X320040000Y-328295000D03*
X312420000Y-328295000D03*
X312420000Y-330835000D03*
X312420000Y-333375000D03*
X312420000Y-335915000D03*
X312420000Y-338455000D03*
X312420000Y-340995000D03*
X312420000Y-343535000D03*
X312420000Y-346075000D03*
D10*
X308610000Y-346075000D03*
D11*
X308610000Y-343535000D03*
X308610000Y-340995000D03*
X308610000Y-338455000D03*
X308610000Y-335915000D03*
X308610000Y-333375000D03*
X308610000Y-330835000D03*
X308610000Y-328295000D03*
X300990000Y-328295000D03*
X300990000Y-330835000D03*
X300990000Y-333375000D03*
X300990000Y-335915000D03*
X300990000Y-338455000D03*
X300990000Y-340995000D03*
X300990000Y-343535000D03*
X300990000Y-346075000D03*
D10*
X320040000Y-321945000D03*
D11*
X320040000Y-319405000D03*
X320040000Y-316865000D03*
X320040000Y-314325000D03*
X320040000Y-311785000D03*
X320040000Y-309245000D03*
X320040000Y-306705000D03*
X320040000Y-304165000D03*
X312420000Y-304165000D03*
X312420000Y-306705000D03*
X312420000Y-309245000D03*
X312420000Y-311785000D03*
X312420000Y-314325000D03*
X312420000Y-316865000D03*
X312420000Y-319405000D03*
X312420000Y-321945000D03*
D10*
X320040000Y-294005000D03*
D11*
X320040000Y-291465000D03*
X320040000Y-288925000D03*
X320040000Y-286385000D03*
X320040000Y-283845000D03*
X320040000Y-281305000D03*
X320040000Y-278765000D03*
X320040000Y-276225000D03*
X312420000Y-276225000D03*
X312420000Y-278765000D03*
X312420000Y-281305000D03*
X312420000Y-283845000D03*
X312420000Y-286385000D03*
X312420000Y-288925000D03*
X312420000Y-291465000D03*
X312420000Y-294005000D03*
D10*
X251460000Y-346075000D03*
D11*
X251460000Y-343535000D03*
X251460000Y-340995000D03*
X251460000Y-338455000D03*
X251460000Y-335915000D03*
X251460000Y-333375000D03*
X251460000Y-330835000D03*
X251460000Y-328295000D03*
X243840000Y-328295000D03*
X243840000Y-330835000D03*
X243840000Y-333375000D03*
X243840000Y-335915000D03*
X243840000Y-338455000D03*
X243840000Y-340995000D03*
X243840000Y-343535000D03*
X243840000Y-346075000D03*
D10*
X251460000Y-374015000D03*
D11*
X251460000Y-371475000D03*
X251460000Y-368935000D03*
X251460000Y-366395000D03*
X251460000Y-363855000D03*
X251460000Y-361315000D03*
X251460000Y-358775000D03*
X251460000Y-356235000D03*
X243840000Y-356235000D03*
X243840000Y-358775000D03*
X243840000Y-361315000D03*
X243840000Y-363855000D03*
X243840000Y-366395000D03*
X243840000Y-368935000D03*
X243840000Y-371475000D03*
X243840000Y-374015000D03*
D10*
X297180000Y-346075000D03*
D11*
X297180000Y-343535000D03*
X297180000Y-340995000D03*
X297180000Y-338455000D03*
X297180000Y-335915000D03*
X297180000Y-333375000D03*
X297180000Y-330835000D03*
X297180000Y-328295000D03*
X289560000Y-328295000D03*
X289560000Y-330835000D03*
X289560000Y-333375000D03*
X289560000Y-335915000D03*
X289560000Y-338455000D03*
X289560000Y-340995000D03*
X289560000Y-343535000D03*
X289560000Y-346075000D03*
D10*
X297180000Y-321945000D03*
D11*
X297180000Y-319405000D03*
X297180000Y-316865000D03*
X297180000Y-314325000D03*
X297180000Y-311785000D03*
X297180000Y-309245000D03*
X297180000Y-306705000D03*
X297180000Y-304165000D03*
X289560000Y-304165000D03*
X289560000Y-306705000D03*
X289560000Y-309245000D03*
X289560000Y-311785000D03*
X289560000Y-314325000D03*
X289560000Y-316865000D03*
X289560000Y-319405000D03*
X289560000Y-321945000D03*
D10*
X297180000Y-294005000D03*
D11*
X297180000Y-291465000D03*
X297180000Y-288925000D03*
X297180000Y-286385000D03*
X297180000Y-283845000D03*
X297180000Y-281305000D03*
X297180000Y-278765000D03*
X297180000Y-276225000D03*
X289560000Y-276225000D03*
X289560000Y-278765000D03*
X289560000Y-281305000D03*
X289560000Y-283845000D03*
X289560000Y-286385000D03*
X289560000Y-288925000D03*
X289560000Y-291465000D03*
X289560000Y-294005000D03*
D10*
X285750000Y-374015000D03*
D11*
X285750000Y-371475000D03*
X285750000Y-368935000D03*
X285750000Y-366395000D03*
X285750000Y-363855000D03*
X285750000Y-361315000D03*
X285750000Y-358775000D03*
X285750000Y-356235000D03*
X278130000Y-356235000D03*
X278130000Y-358775000D03*
X278130000Y-361315000D03*
X278130000Y-363855000D03*
X278130000Y-366395000D03*
X278130000Y-368935000D03*
X278130000Y-371475000D03*
X278130000Y-374015000D03*
D10*
X285750000Y-294005000D03*
D11*
X285750000Y-291465000D03*
X285750000Y-288925000D03*
X285750000Y-286385000D03*
X285750000Y-283845000D03*
X285750000Y-281305000D03*
X285750000Y-278765000D03*
X285750000Y-276225000D03*
X278130000Y-276225000D03*
X278130000Y-278765000D03*
X278130000Y-281305000D03*
X278130000Y-283845000D03*
X278130000Y-286385000D03*
X278130000Y-288925000D03*
X278130000Y-291465000D03*
X278130000Y-294005000D03*
D10*
X274320000Y-374015000D03*
D11*
X274320000Y-371475000D03*
X274320000Y-368935000D03*
X274320000Y-366395000D03*
X274320000Y-363855000D03*
X274320000Y-361315000D03*
X274320000Y-358775000D03*
X274320000Y-356235000D03*
X266700000Y-356235000D03*
X266700000Y-358775000D03*
X266700000Y-361315000D03*
X266700000Y-363855000D03*
X266700000Y-366395000D03*
X266700000Y-368935000D03*
X266700000Y-371475000D03*
X266700000Y-374015000D03*
D10*
X262890000Y-346075000D03*
D11*
X262890000Y-343535000D03*
X262890000Y-340995000D03*
X262890000Y-338455000D03*
X262890000Y-335915000D03*
X262890000Y-333375000D03*
X262890000Y-330835000D03*
X262890000Y-328295000D03*
X255270000Y-328295000D03*
X255270000Y-330835000D03*
X255270000Y-333375000D03*
X255270000Y-335915000D03*
X255270000Y-338455000D03*
X255270000Y-340995000D03*
X255270000Y-343535000D03*
X255270000Y-346075000D03*
D10*
X274320000Y-294005000D03*
D11*
X274320000Y-291465000D03*
X274320000Y-288925000D03*
X274320000Y-286385000D03*
X274320000Y-283845000D03*
X274320000Y-281305000D03*
X274320000Y-278765000D03*
X274320000Y-276225000D03*
X266700000Y-276225000D03*
X266700000Y-278765000D03*
X266700000Y-281305000D03*
X266700000Y-283845000D03*
X266700000Y-286385000D03*
X266700000Y-288925000D03*
X266700000Y-291465000D03*
X266700000Y-294005000D03*
D10*
X262890000Y-294005000D03*
D11*
X262890000Y-291465000D03*
X262890000Y-288925000D03*
X262890000Y-286385000D03*
X262890000Y-283845000D03*
X262890000Y-281305000D03*
X262890000Y-278765000D03*
X262890000Y-276225000D03*
X255270000Y-276225000D03*
X255270000Y-278765000D03*
X255270000Y-281305000D03*
X255270000Y-283845000D03*
X255270000Y-286385000D03*
X255270000Y-288925000D03*
X255270000Y-291465000D03*
X255270000Y-294005000D03*
D10*
X262890000Y-374015000D03*
D11*
X262890000Y-371475000D03*
X262890000Y-368935000D03*
X262890000Y-366395000D03*
X262890000Y-363855000D03*
X262890000Y-361315000D03*
X262890000Y-358775000D03*
X262890000Y-356235000D03*
X255270000Y-356235000D03*
X255270000Y-358775000D03*
X255270000Y-361315000D03*
X255270000Y-363855000D03*
X255270000Y-366395000D03*
X255270000Y-368935000D03*
X255270000Y-371475000D03*
X255270000Y-374015000D03*
D10*
X251460000Y-321945000D03*
D11*
X251460000Y-319405000D03*
X251460000Y-316865000D03*
X251460000Y-314325000D03*
X251460000Y-311785000D03*
X251460000Y-309245000D03*
X251460000Y-306705000D03*
X251460000Y-304165000D03*
X243840000Y-304165000D03*
X243840000Y-306705000D03*
X243840000Y-309245000D03*
X243840000Y-311785000D03*
X243840000Y-314325000D03*
X243840000Y-316865000D03*
X243840000Y-319405000D03*
X243840000Y-321945000D03*
D10*
X285750000Y-346075000D03*
D11*
X285750000Y-343535000D03*
X285750000Y-340995000D03*
X285750000Y-338455000D03*
X285750000Y-335915000D03*
X285750000Y-333375000D03*
X285750000Y-330835000D03*
X285750000Y-328295000D03*
X278130000Y-328295000D03*
X278130000Y-330835000D03*
X278130000Y-333375000D03*
X278130000Y-335915000D03*
X278130000Y-338455000D03*
X278130000Y-340995000D03*
X278130000Y-343535000D03*
X278130000Y-346075000D03*
D10*
X274320000Y-321945000D03*
D11*
X274320000Y-319405000D03*
X274320000Y-316865000D03*
X274320000Y-314325000D03*
X274320000Y-311785000D03*
X274320000Y-309245000D03*
X274320000Y-306705000D03*
X274320000Y-304165000D03*
X266700000Y-304165000D03*
X266700000Y-306705000D03*
X266700000Y-309245000D03*
X266700000Y-311785000D03*
X266700000Y-314325000D03*
X266700000Y-316865000D03*
X266700000Y-319405000D03*
X266700000Y-321945000D03*
D10*
X285750000Y-321945000D03*
D11*
X285750000Y-319405000D03*
X285750000Y-316865000D03*
X285750000Y-314325000D03*
X285750000Y-311785000D03*
X285750000Y-309245000D03*
X285750000Y-306705000D03*
X285750000Y-304165000D03*
X278130000Y-304165000D03*
X278130000Y-306705000D03*
X278130000Y-309245000D03*
X278130000Y-311785000D03*
X278130000Y-314325000D03*
X278130000Y-316865000D03*
X278130000Y-319405000D03*
X278130000Y-321945000D03*
D10*
X274320000Y-346075000D03*
D11*
X274320000Y-343535000D03*
X274320000Y-340995000D03*
X274320000Y-338455000D03*
X274320000Y-335915000D03*
X274320000Y-333375000D03*
X274320000Y-330835000D03*
X274320000Y-328295000D03*
X266700000Y-328295000D03*
X266700000Y-330835000D03*
X266700000Y-333375000D03*
X266700000Y-335915000D03*
X266700000Y-338455000D03*
X266700000Y-340995000D03*
X266700000Y-343535000D03*
X266700000Y-346075000D03*
D10*
X262890000Y-321945000D03*
D11*
X262890000Y-319405000D03*
X262890000Y-316865000D03*
X262890000Y-314325000D03*
X262890000Y-311785000D03*
X262890000Y-309245000D03*
X262890000Y-306705000D03*
X262890000Y-304165000D03*
X255270000Y-304165000D03*
X255270000Y-306705000D03*
X255270000Y-309245000D03*
X255270000Y-311785000D03*
X255270000Y-314325000D03*
X255270000Y-316865000D03*
X255270000Y-319405000D03*
X255270000Y-321945000D03*
D10*
X240030000Y-374015000D03*
D11*
X240030000Y-371475000D03*
X240030000Y-368935000D03*
X240030000Y-366395000D03*
X240030000Y-363855000D03*
X240030000Y-361315000D03*
X240030000Y-358775000D03*
X240030000Y-356235000D03*
X232410000Y-356235000D03*
X232410000Y-358775000D03*
X232410000Y-361315000D03*
X232410000Y-363855000D03*
X232410000Y-366395000D03*
X232410000Y-368935000D03*
X232410000Y-371475000D03*
X232410000Y-374015000D03*
D10*
X240030000Y-346075000D03*
D11*
X240030000Y-343535000D03*
X240030000Y-340995000D03*
X240030000Y-338455000D03*
X240030000Y-335915000D03*
X240030000Y-333375000D03*
X240030000Y-330835000D03*
X240030000Y-328295000D03*
X232410000Y-328295000D03*
X232410000Y-330835000D03*
X232410000Y-333375000D03*
X232410000Y-335915000D03*
X232410000Y-338455000D03*
X232410000Y-340995000D03*
X232410000Y-343535000D03*
X232410000Y-346075000D03*
D10*
X240030000Y-321945000D03*
D11*
X240030000Y-319405000D03*
X240030000Y-316865000D03*
X240030000Y-314325000D03*
X240030000Y-311785000D03*
X240030000Y-309245000D03*
X240030000Y-306705000D03*
X240030000Y-304165000D03*
X232410000Y-304165000D03*
X232410000Y-306705000D03*
X232410000Y-309245000D03*
X232410000Y-311785000D03*
X232410000Y-314325000D03*
X232410000Y-316865000D03*
X232410000Y-319405000D03*
X232410000Y-321945000D03*
D18*
X303530000Y-266700000D03*
D12*
X303530000Y-271700000D03*
D18*
X314960000Y-266700000D03*
D12*
X314960000Y-271700000D03*
D10*
X240030000Y-294005000D03*
D11*
X240030000Y-291465000D03*
X240030000Y-288925000D03*
X240030000Y-286385000D03*
X240030000Y-283845000D03*
X240030000Y-281305000D03*
X240030000Y-278765000D03*
X240030000Y-276225000D03*
X232410000Y-276225000D03*
X232410000Y-278765000D03*
X232410000Y-281305000D03*
X232410000Y-283845000D03*
X232410000Y-286385000D03*
X232410000Y-288925000D03*
X232410000Y-291465000D03*
X232410000Y-294005000D03*
D10*
X251460000Y-294005000D03*
D11*
X251460000Y-291465000D03*
X251460000Y-288925000D03*
X251460000Y-286385000D03*
X251460000Y-283845000D03*
X251460000Y-281305000D03*
X251460000Y-278765000D03*
X251460000Y-276225000D03*
X243840000Y-276225000D03*
X243840000Y-278765000D03*
X243840000Y-281305000D03*
X243840000Y-283845000D03*
X243840000Y-286385000D03*
X243840000Y-288925000D03*
X243840000Y-291465000D03*
X243840000Y-294005000D03*
D18*
X269240000Y-266700000D03*
D12*
X269240000Y-271700000D03*
D18*
X292100000Y-266700000D03*
D12*
X292100000Y-271700000D03*
D18*
X280670000Y-266700000D03*
D12*
X280670000Y-271700000D03*
D18*
X257810000Y-266700000D03*
D12*
X257810000Y-271700000D03*
D18*
X234950000Y-266700000D03*
D12*
X234950000Y-271700000D03*
D19*
X196935000Y-217470000D03*
X286935000Y-217470000D03*
D20*
X202565000Y-219710000D03*
D21*
X205105000Y-219710000D03*
X207645000Y-219710000D03*
X210185000Y-219710000D03*
X212725000Y-219710000D03*
X215265000Y-219710000D03*
X217805000Y-219710000D03*
X220345000Y-219710000D03*
X222885000Y-219710000D03*
X225425000Y-219710000D03*
X227965000Y-219710000D03*
X230505000Y-219710000D03*
X233045000Y-219710000D03*
X235585000Y-219710000D03*
X238125000Y-219710000D03*
X240665000Y-219710000D03*
X243205000Y-219710000D03*
X245745000Y-219710000D03*
X248285000Y-219710000D03*
X250825000Y-219710000D03*
X253365000Y-219710000D03*
X255905000Y-219710000D03*
X258445000Y-219710000D03*
X260985000Y-219710000D03*
X263525000Y-219710000D03*
X266065000Y-219710000D03*
X268605000Y-219710000D03*
X271145000Y-219710000D03*
X273685000Y-219710000D03*
X276225000Y-219710000D03*
X278765000Y-219710000D03*
X281305000Y-219710000D03*
X202565000Y-217170000D03*
X205105000Y-217170000D03*
X207645000Y-217170000D03*
X210185000Y-217170000D03*
X212725000Y-217170000D03*
X215265000Y-217170000D03*
X217805000Y-217170000D03*
X220345000Y-217170000D03*
X222885000Y-217170000D03*
X225425000Y-217170000D03*
X227965000Y-217170000D03*
X230505000Y-217170000D03*
X233045000Y-217170000D03*
X235585000Y-217170000D03*
X238125000Y-217170000D03*
X240665000Y-217170000D03*
X243205000Y-217170000D03*
X245745000Y-217170000D03*
X248285000Y-217170000D03*
X250825000Y-217170000D03*
X253365000Y-217170000D03*
X255905000Y-217170000D03*
X258445000Y-217170000D03*
X260985000Y-217170000D03*
X263525000Y-217170000D03*
X266065000Y-217170000D03*
X268605000Y-217170000D03*
X271145000Y-217170000D03*
X273685000Y-217170000D03*
X276225000Y-217170000D03*
X278765000Y-217170000D03*
X281305000Y-217170000D03*
D18*
X246380000Y-266700000D03*
D12*
X246380000Y-271700000D03*
D19*
X196935000Y-230170000D03*
X286935000Y-230170000D03*
D20*
X202565000Y-232410000D03*
D21*
X205105000Y-232410000D03*
X207645000Y-232410000D03*
X210185000Y-232410000D03*
X212725000Y-232410000D03*
X215265000Y-232410000D03*
X217805000Y-232410000D03*
X220345000Y-232410000D03*
X222885000Y-232410000D03*
X225425000Y-232410000D03*
X227965000Y-232410000D03*
X230505000Y-232410000D03*
X233045000Y-232410000D03*
X235585000Y-232410000D03*
X238125000Y-232410000D03*
X240665000Y-232410000D03*
X243205000Y-232410000D03*
X245745000Y-232410000D03*
X248285000Y-232410000D03*
X250825000Y-232410000D03*
X253365000Y-232410000D03*
X255905000Y-232410000D03*
X258445000Y-232410000D03*
X260985000Y-232410000D03*
X263525000Y-232410000D03*
X266065000Y-232410000D03*
X268605000Y-232410000D03*
X271145000Y-232410000D03*
X273685000Y-232410000D03*
X276225000Y-232410000D03*
X278765000Y-232410000D03*
X281305000Y-232410000D03*
X202565000Y-229870000D03*
X205105000Y-229870000D03*
X207645000Y-229870000D03*
X210185000Y-229870000D03*
X212725000Y-229870000D03*
X215265000Y-229870000D03*
X217805000Y-229870000D03*
X220345000Y-229870000D03*
X222885000Y-229870000D03*
X225425000Y-229870000D03*
X227965000Y-229870000D03*
X230505000Y-229870000D03*
X233045000Y-229870000D03*
X235585000Y-229870000D03*
X238125000Y-229870000D03*
X240665000Y-229870000D03*
X243205000Y-229870000D03*
X245745000Y-229870000D03*
X248285000Y-229870000D03*
X250825000Y-229870000D03*
X253365000Y-229870000D03*
X255905000Y-229870000D03*
X258445000Y-229870000D03*
X260985000Y-229870000D03*
X263525000Y-229870000D03*
X266065000Y-229870000D03*
X268605000Y-229870000D03*
X271145000Y-229870000D03*
X273685000Y-229870000D03*
X276225000Y-229870000D03*
X278765000Y-229870000D03*
X281305000Y-229870000D03*
D19*
X286935000Y-242870000D03*
X196935000Y-242870000D03*
D20*
X202565000Y-245110000D03*
D21*
X205105000Y-245110000D03*
X207645000Y-245110000D03*
X210185000Y-245110000D03*
X212725000Y-245110000D03*
X215265000Y-245110000D03*
X217805000Y-245110000D03*
X220345000Y-245110000D03*
X222885000Y-245110000D03*
X225425000Y-245110000D03*
X227965000Y-245110000D03*
X230505000Y-245110000D03*
X233045000Y-245110000D03*
X235585000Y-245110000D03*
X238125000Y-245110000D03*
X240665000Y-245110000D03*
X243205000Y-245110000D03*
X245745000Y-245110000D03*
X248285000Y-245110000D03*
X250825000Y-245110000D03*
X253365000Y-245110000D03*
X255905000Y-245110000D03*
X258445000Y-245110000D03*
X260985000Y-245110000D03*
X263525000Y-245110000D03*
X266065000Y-245110000D03*
X268605000Y-245110000D03*
X271145000Y-245110000D03*
X273685000Y-245110000D03*
X276225000Y-245110000D03*
X278765000Y-245110000D03*
X281305000Y-245110000D03*
X202565000Y-242570000D03*
X205105000Y-242570000D03*
X207645000Y-242570000D03*
X210185000Y-242570000D03*
X212725000Y-242570000D03*
X215265000Y-242570000D03*
X217805000Y-242570000D03*
X220345000Y-242570000D03*
X222885000Y-242570000D03*
X225425000Y-242570000D03*
X227965000Y-242570000D03*
X230505000Y-242570000D03*
X233045000Y-242570000D03*
X235585000Y-242570000D03*
X238125000Y-242570000D03*
X240665000Y-242570000D03*
X243205000Y-242570000D03*
X245745000Y-242570000D03*
X248285000Y-242570000D03*
X250825000Y-242570000D03*
X253365000Y-242570000D03*
X255905000Y-242570000D03*
X258445000Y-242570000D03*
X260985000Y-242570000D03*
X263525000Y-242570000D03*
X266065000Y-242570000D03*
X268605000Y-242570000D03*
X271145000Y-242570000D03*
X273685000Y-242570000D03*
X276225000Y-242570000D03*
X278765000Y-242570000D03*
X281305000Y-242570000D03*
D10*
X182245000Y-348615000D03*
D11*
X182245000Y-346075000D03*
X182245000Y-343535000D03*
X182245000Y-340995000D03*
X182245000Y-338455000D03*
X182245000Y-335915000D03*
X182245000Y-333375000D03*
X182245000Y-330835000D03*
X182245000Y-328295000D03*
X182245000Y-325755000D03*
X174625000Y-325755000D03*
X174625000Y-328295000D03*
X174625000Y-330835000D03*
X174625000Y-333375000D03*
X174625000Y-335915000D03*
X174625000Y-338455000D03*
X174625000Y-340995000D03*
X174625000Y-343535000D03*
X174625000Y-346075000D03*
X174625000Y-348615000D03*
D10*
X242570000Y-194310000D03*
D11*
X242570000Y-191770000D03*
X242570000Y-189230000D03*
X242570000Y-186690000D03*
X242570000Y-184150000D03*
X242570000Y-181610000D03*
X242570000Y-179070000D03*
X242570000Y-176530000D03*
X242570000Y-173990000D03*
X242570000Y-171450000D03*
X242570000Y-168910000D03*
X242570000Y-166370000D03*
X242570000Y-163830000D03*
X242570000Y-161290000D03*
X242570000Y-158750000D03*
X242570000Y-156210000D03*
X242570000Y-153670000D03*
X242570000Y-151130000D03*
X242570000Y-148590000D03*
X242570000Y-146050000D03*
X227330000Y-146050000D03*
X227330000Y-148590000D03*
X227330000Y-151130000D03*
X227330000Y-153670000D03*
X227330000Y-156210000D03*
X227330000Y-158750000D03*
X227330000Y-161290000D03*
X227330000Y-163830000D03*
X227330000Y-166370000D03*
X227330000Y-168910000D03*
X227330000Y-171450000D03*
X227330000Y-173990000D03*
X227330000Y-176530000D03*
X227330000Y-179070000D03*
X227330000Y-181610000D03*
X227330000Y-184150000D03*
X227330000Y-186690000D03*
X227330000Y-189230000D03*
X227330000Y-191770000D03*
X227330000Y-194310000D03*
D10*
X59690000Y-284480000D03*
D11*
X59690000Y-281940000D03*
X59690000Y-279400000D03*
X59690000Y-276860000D03*
X59690000Y-274320000D03*
X59690000Y-271780000D03*
X59690000Y-269240000D03*
X52070000Y-269240000D03*
X52070000Y-271780000D03*
X52070000Y-274320000D03*
X52070000Y-276860000D03*
X52070000Y-279400000D03*
X52070000Y-281940000D03*
X52070000Y-284480000D03*
D14*
X281940000Y-111125000D03*
D15*
X281940000Y-98425000D03*
D14*
X287020000Y-98425000D03*
D15*
X287020000Y-111125000D03*
D10*
X326390000Y-234315000D03*
D11*
X326390000Y-231775000D03*
X326390000Y-229235000D03*
X326390000Y-226695000D03*
X326390000Y-224155000D03*
X326390000Y-221615000D03*
X326390000Y-219075000D03*
X318770000Y-219075000D03*
X318770000Y-221615000D03*
X318770000Y-224155000D03*
X318770000Y-226695000D03*
X318770000Y-229235000D03*
X318770000Y-231775000D03*
X318770000Y-234315000D03*
D10*
X85090000Y-315595000D03*
D11*
X85090000Y-313055000D03*
X85090000Y-310515000D03*
X85090000Y-307975000D03*
X85090000Y-305435000D03*
X85090000Y-302895000D03*
X85090000Y-300355000D03*
X85090000Y-297815000D03*
X77470000Y-297815000D03*
X77470000Y-300355000D03*
X77470000Y-302895000D03*
X77470000Y-305435000D03*
X77470000Y-307975000D03*
X77470000Y-310515000D03*
X77470000Y-313055000D03*
X77470000Y-315595000D03*
D10*
X86360000Y-234950000D03*
D11*
X86360000Y-232410000D03*
X86360000Y-229870000D03*
X86360000Y-227330000D03*
X86360000Y-224790000D03*
X86360000Y-222250000D03*
X86360000Y-219710000D03*
X86360000Y-217170000D03*
X86360000Y-214630000D03*
X86360000Y-212090000D03*
X78740000Y-212090000D03*
X78740000Y-214630000D03*
X78740000Y-217170000D03*
X78740000Y-219710000D03*
X78740000Y-222250000D03*
X78740000Y-224790000D03*
X78740000Y-227330000D03*
X78740000Y-229870000D03*
X78740000Y-232410000D03*
X78740000Y-234950000D03*
D22*
X92075000Y-372750000D03*
D23*
X92075000Y-370210000D03*
D24*
X154940000Y-85725000D03*
D23*
X154940000Y-83185000D03*
X152400000Y-85725000D03*
X152400000Y-83185000D03*
X149860000Y-85725000D03*
X149860000Y-83185000D03*
X147320000Y-85725000D03*
X147320000Y-83185000D03*
X144780000Y-85725000D03*
X144780000Y-83185000D03*
X142240000Y-85725000D03*
X142240000Y-83185000D03*
X139700000Y-85725000D03*
X139700000Y-83185000D03*
X137160000Y-85725000D03*
X137160000Y-83185000D03*
X134620000Y-85725000D03*
X134620000Y-83185000D03*
X132080000Y-85725000D03*
X132080000Y-83185000D03*
X129540000Y-85725000D03*
X129540000Y-83185000D03*
X127000000Y-85725000D03*
X127000000Y-83185000D03*
X124460000Y-85725000D03*
X124460000Y-83185000D03*
D10*
X143510000Y-120015000D03*
D11*
X143510000Y-117475000D03*
X143510000Y-114935000D03*
X143510000Y-112395000D03*
X143510000Y-109855000D03*
X143510000Y-107315000D03*
X143510000Y-104775000D03*
X143510000Y-102235000D03*
X143510000Y-99695000D03*
X143510000Y-97155000D03*
X135890000Y-97155000D03*
X135890000Y-99695000D03*
X135890000Y-102235000D03*
X135890000Y-104775000D03*
X135890000Y-107315000D03*
X135890000Y-109855000D03*
X135890000Y-112395000D03*
X135890000Y-114935000D03*
X135890000Y-117475000D03*
X135890000Y-120015000D03*
D10*
X179070000Y-145415000D03*
D11*
X179070000Y-142875000D03*
X179070000Y-140335000D03*
X179070000Y-137795000D03*
X179070000Y-135255000D03*
X179070000Y-132715000D03*
X179070000Y-130175000D03*
X179070000Y-127635000D03*
X179070000Y-125095000D03*
X179070000Y-122555000D03*
X179070000Y-120015000D03*
X179070000Y-117475000D03*
X179070000Y-114935000D03*
X179070000Y-112395000D03*
X179070000Y-109855000D03*
X179070000Y-107315000D03*
X179070000Y-104775000D03*
X179070000Y-102235000D03*
X179070000Y-99695000D03*
X179070000Y-97155000D03*
X163830000Y-97155000D03*
X163830000Y-99695000D03*
X163830000Y-102235000D03*
X163830000Y-104775000D03*
X163830000Y-107315000D03*
X163830000Y-109855000D03*
X163830000Y-112395000D03*
X163830000Y-114935000D03*
X163830000Y-117475000D03*
X163830000Y-120015000D03*
X163830000Y-122555000D03*
X163830000Y-125095000D03*
X163830000Y-127635000D03*
X163830000Y-130175000D03*
X163830000Y-132715000D03*
X163830000Y-135255000D03*
X163830000Y-137795000D03*
X163830000Y-140335000D03*
X163830000Y-142875000D03*
X163830000Y-145415000D03*
D14*
X125730000Y-112395000D03*
D15*
X113030000Y-112395000D03*
D14*
X125730000Y-114935000D03*
D15*
X113030000Y-114935000D03*
D14*
X125730000Y-109855000D03*
D15*
X113030000Y-109855000D03*
D14*
X179070000Y-86995000D03*
D15*
X191770000Y-86995000D03*
D14*
X189230000Y-156845000D03*
D15*
X189230000Y-169545000D03*
D14*
X192405000Y-156845000D03*
D15*
X192405000Y-169545000D03*
D13*
X27940000Y-85725000D03*
D12*
X32940000Y-85725000D03*
X27940000Y-111760000D03*
X32940000Y-111760000D03*
X27940000Y-149860000D03*
X32940000Y-149860000D03*
X26670000Y-210185000D03*
X31670000Y-210185000D03*
X27305000Y-241300000D03*
X32305000Y-241300000D03*
D13*
X53340000Y-85725000D03*
D12*
X58340000Y-85725000D03*
X53340000Y-114300000D03*
X58340000Y-114300000D03*
D13*
X52070000Y-146685000D03*
D12*
X57070000Y-146685000D03*
X53340000Y-240030000D03*
X58340000Y-240030000D03*
X53340000Y-262890000D03*
X58340000Y-262890000D03*
X53340000Y-318770000D03*
X58340000Y-318770000D03*
X53340000Y-344805000D03*
X58340000Y-344805000D03*
X53340000Y-379730000D03*
X58340000Y-379730000D03*
X78740000Y-290830000D03*
X83740000Y-290830000D03*
X77470000Y-319405000D03*
X82470000Y-319405000D03*
X78740000Y-379730000D03*
X83740000Y-379730000D03*
D13*
X88265000Y-87630000D03*
D12*
X93265000Y-87630000D03*
X88265000Y-104140000D03*
X93265000Y-104140000D03*
X94615000Y-193675000D03*
X99615000Y-193675000D03*
X93345000Y-242570000D03*
X98345000Y-242570000D03*
X100330000Y-353060000D03*
X105330000Y-353060000D03*
X102870000Y-379730000D03*
X107870000Y-379730000D03*
X115570000Y-92710000D03*
X120570000Y-92710000D03*
X115570000Y-155575000D03*
X120570000Y-155575000D03*
X114935000Y-215265000D03*
X119935000Y-215265000D03*
X118110000Y-245995001D03*
X118110000Y-250995001D03*
X117475000Y-299720000D03*
X122475000Y-299720000D03*
X116205000Y-353060000D03*
X121205000Y-353060000D03*
X114935000Y-379730000D03*
X119935000Y-379730000D03*
X138430000Y-149860000D03*
X143430000Y-149860000D03*
X139700000Y-254000000D03*
X139700000Y-249000000D03*
X132080000Y-299720000D03*
X137080000Y-299720000D03*
X132080000Y-331470000D03*
X137080000Y-331470000D03*
X132080000Y-353060000D03*
X137080000Y-353060000D03*
X132080000Y-379730000D03*
X137080000Y-379730000D03*
X151765000Y-272415000D03*
X156765000Y-272415000D03*
X152400000Y-379730000D03*
X157400000Y-379730000D03*
X165100000Y-180975000D03*
X170100000Y-180975000D03*
X172720000Y-257175000D03*
X172720000Y-252175000D03*
X200660000Y-133604000D03*
X205660000Y-133604000D03*
X200660000Y-170180000D03*
X205660000Y-170180000D03*
X200660000Y-198120000D03*
X205660000Y-198120000D03*
X233680000Y-109855000D03*
X238680000Y-109855000D03*
X269240000Y-198120000D03*
X274240000Y-198120000D03*
X332145000Y-99695000D03*
X337145000Y-99695000D03*
X332740000Y-137795000D03*
X337740000Y-137795000D03*
X320040000Y-212725000D03*
X325040000Y-212725000D03*
X320040000Y-239395000D03*
X325040000Y-239395000D03*
X333375000Y-184150000D03*
X338375000Y-184150000D03*
X335280000Y-212725000D03*
X340280000Y-212725000D03*
X335280000Y-239395000D03*
X340280000Y-239395000D03*
X332105000Y-360680000D03*
X337105000Y-360680000D03*
X355600000Y-114300000D03*
X360600000Y-114300000D03*
X355600000Y-137795000D03*
X360600000Y-137795000D03*
X355600000Y-184150000D03*
X360600000Y-184150000D03*
X53340000Y-287655000D03*
X58340000Y-287655000D03*
D13*
X27940000Y-116840000D03*
D12*
X32940000Y-116840000D03*
D13*
X30480000Y-253365000D03*
D12*
X35480000Y-253365000D03*
D13*
X53324949Y-350393000D03*
D12*
X58324949Y-350393000D03*
D13*
X76200000Y-153035000D03*
D12*
X81200000Y-153035000D03*
D13*
X92710000Y-146685000D03*
D12*
X97710000Y-146685000D03*
D13*
X115570000Y-101600000D03*
D12*
X120570000Y-101600000D03*
D13*
X137160000Y-212725000D03*
D12*
X142160000Y-212725000D03*
D13*
X162062349Y-254635000D03*
D12*
X167062349Y-254635000D03*
D13*
X200660000Y-139065000D03*
D12*
X205660000Y-139065000D03*
D13*
X228600000Y-139700000D03*
D12*
X233600000Y-139700000D03*
D18*
X318770000Y-120015000D03*
D12*
X318770000Y-125015000D03*
D13*
X320040000Y-187960000D03*
D12*
X325040000Y-187960000D03*
D13*
X332105000Y-354965000D03*
D12*
X337105000Y-354965000D03*
D13*
X355600000Y-158115000D03*
D12*
X360600000Y-158115000D03*
X137160000Y-92710000D03*
X142160000Y-92710000D03*
X152400000Y-296545000D03*
X157400000Y-296545000D03*
X152400000Y-322580000D03*
X157400000Y-322580000D03*
X152400000Y-353060000D03*
X157400000Y-353060000D03*
X165100000Y-92710000D03*
X170100000Y-92710000D03*
X175895000Y-297180000D03*
X180895000Y-297180000D03*
X175895000Y-322580000D03*
X180895000Y-322580000D03*
X175895000Y-352425000D03*
X180895000Y-352425000D03*
X175895000Y-379730000D03*
X180895000Y-379730000D03*
X193040000Y-264160000D03*
X198040000Y-264160000D03*
X193040000Y-304165000D03*
X198040000Y-304165000D03*
X193040000Y-345186000D03*
X198040000Y-345186000D03*
X207645000Y-352425000D03*
X212645000Y-352425000D03*
X207645000Y-379730000D03*
X212645000Y-379730000D03*
X238760000Y-300355000D03*
X233760000Y-300355000D03*
X238760000Y-325120000D03*
X233760000Y-325120000D03*
X238760000Y-352425000D03*
X233760000Y-352425000D03*
D10*
X238760000Y-378440153D03*
D12*
X233760000Y-378440153D03*
X250190000Y-300355000D03*
X245190000Y-300355000D03*
X250190000Y-325120000D03*
X245190000Y-325120000D03*
X250825000Y-352425000D03*
X245825000Y-352425000D03*
D10*
X250190000Y-378440153D03*
D12*
X245190000Y-378440153D03*
X261620000Y-300355000D03*
X256620000Y-300355000D03*
X261620000Y-325120000D03*
X256620000Y-325120000D03*
X261620000Y-352425000D03*
X256620000Y-352425000D03*
D10*
X261620000Y-378440153D03*
D12*
X256620000Y-378440153D03*
X273050000Y-300355000D03*
X268050000Y-300355000D03*
X273050000Y-325120000D03*
X268050000Y-325120000D03*
X273050000Y-352425000D03*
X268050000Y-352425000D03*
D10*
X273050000Y-378440153D03*
D12*
X268050000Y-378440153D03*
X284480000Y-300355000D03*
X279480000Y-300355000D03*
X284480000Y-325120000D03*
X279480000Y-325120000D03*
X284480000Y-352425000D03*
X279480000Y-352425000D03*
D10*
X284480000Y-378440153D03*
D12*
X279480000Y-378440153D03*
X295910000Y-300355000D03*
X290910000Y-300355000D03*
X295910000Y-325120000D03*
X290910000Y-325120000D03*
X295910000Y-352425000D03*
X290910000Y-352425000D03*
D10*
X295910000Y-378440153D03*
D12*
X290910000Y-378440153D03*
X307340000Y-300355000D03*
X302340000Y-300355000D03*
X307340000Y-325120000D03*
X302340000Y-325120000D03*
X307340000Y-352425000D03*
X302340000Y-352425000D03*
X318770000Y-300355000D03*
X313770000Y-300355000D03*
X318770000Y-325120000D03*
X313770000Y-325120000D03*
X318770000Y-352425000D03*
X313770000Y-352425000D03*
D10*
X318770000Y-378440153D03*
D12*
X313770000Y-378440153D03*
D14*
X26670000Y-243840000D03*
D15*
X39370000Y-243840000D03*
D12*
X113030000Y-245995001D03*
X113030000Y-250995001D03*
D14*
X191770000Y-92075000D03*
D15*
X179070000Y-92075000D03*
D14*
X191770000Y-89535000D03*
D15*
X179070000Y-89535000D03*
D12*
X193040000Y-379730000D03*
X198040000Y-379730000D03*
X76200000Y-147955000D03*
X81200000Y-147955000D03*
X137160000Y-217805000D03*
X142160000Y-217805000D03*
X228600000Y-198120000D03*
X233600000Y-198120000D03*
X81280000Y-255905000D03*
X81280000Y-250905000D03*
X95885000Y-304165000D03*
X100885000Y-304165000D03*
D25*
X103205000Y-258445000D03*
D26*
X107165000Y-258445000D03*
X111125000Y-258445000D03*
X115085000Y-258445000D03*
X119045000Y-258445000D03*
X123005000Y-258445000D03*
X126965000Y-258445000D03*
D27*
X287020000Y-114935000D03*
D17*
X287020000Y-120015000D03*
X287020000Y-117475000D03*
D28*
X326445000Y-84790000D03*
X373545000Y-84790000D03*
D10*
X333375000Y-85090000D03*
D12*
X336145000Y-85090000D03*
X338915000Y-85090000D03*
X341685000Y-85090000D03*
X344455000Y-85090000D03*
X347225000Y-85090000D03*
X349995000Y-85090000D03*
X352765000Y-85090000D03*
X355535000Y-85090000D03*
X358305000Y-85090000D03*
X361075000Y-85090000D03*
X363845000Y-85090000D03*
X366615000Y-85090000D03*
X334760000Y-82250000D03*
X337530000Y-82250000D03*
X340300000Y-82250000D03*
X343070000Y-82250000D03*
X345840000Y-82250000D03*
X348610000Y-82250000D03*
X351380000Y-82250000D03*
X354150000Y-82250000D03*
X356920000Y-82250000D03*
X359690000Y-82250000D03*
X362460000Y-82250000D03*
X365230000Y-82250000D03*
D14*
X284480000Y-123190000D03*
D15*
X284480000Y-135890000D03*
D14*
X279400000Y-98425000D03*
D15*
X279400000Y-111125000D03*
D27*
X281940000Y-114935000D03*
D17*
X281940000Y-120015000D03*
X281940000Y-117475000D03*
D14*
X264160000Y-135890000D03*
D15*
X264160000Y-123190000D03*
D10*
X240030000Y-131445000D03*
D11*
X240030000Y-128905000D03*
X240030000Y-126365000D03*
X240030000Y-123825000D03*
X240030000Y-121285000D03*
X240030000Y-118745000D03*
X240030000Y-116205000D03*
X240030000Y-113665000D03*
X232410000Y-113665000D03*
X232410000Y-116205000D03*
X232410000Y-118745000D03*
X232410000Y-121285000D03*
X232410000Y-123825000D03*
X232410000Y-126365000D03*
X232410000Y-128905000D03*
X232410000Y-131445000D03*
D14*
X274320000Y-98425000D03*
D15*
X274320000Y-111125000D03*
D14*
X266700000Y-135890000D03*
D15*
X266700000Y-123190000D03*
D14*
X279400000Y-123190000D03*
D15*
X279400000Y-135890000D03*
D27*
X276860000Y-114935000D03*
D17*
X276860000Y-120015000D03*
X276860000Y-117475000D03*
D14*
X269240000Y-98425000D03*
D15*
X269240000Y-111125000D03*
D14*
X271780000Y-135890000D03*
D15*
X271780000Y-123190000D03*
D14*
X274320000Y-123190000D03*
D15*
X274320000Y-135890000D03*
D27*
X271780000Y-114935000D03*
D17*
X271780000Y-120015000D03*
X271780000Y-117475000D03*
D18*
X289560000Y-98425000D03*
D11*
X289560000Y-111125000D03*
D18*
X269240000Y-123190000D03*
D11*
X269240000Y-135890000D03*
D18*
X289560000Y-123190000D03*
D11*
X289560000Y-135890000D03*
D18*
X294640000Y-123190000D03*
D11*
X294640000Y-135890000D03*
D18*
X297180000Y-114935000D03*
D11*
X297180000Y-127635000D03*
D18*
X299720000Y-114935000D03*
D11*
X299720000Y-127635000D03*
D18*
X309880000Y-114935000D03*
D11*
X309880000Y-127635000D03*
D18*
X312420000Y-114935000D03*
D11*
X312420000Y-127635000D03*
D14*
X276860000Y-123190000D03*
D15*
X276860000Y-135890000D03*
D14*
X281940000Y-123190000D03*
D15*
X281940000Y-135890000D03*
D14*
X287020000Y-123190000D03*
D15*
X287020000Y-135890000D03*
D14*
X299720000Y-98425000D03*
D15*
X299720000Y-111125000D03*
D14*
X294640000Y-111125000D03*
D15*
X294640000Y-98425000D03*
D18*
X302260000Y-114935000D03*
D11*
X302260000Y-127635000D03*
D18*
X304800000Y-114935000D03*
D11*
X304800000Y-127635000D03*
D14*
X302260000Y-98425000D03*
D15*
X302260000Y-111125000D03*
D14*
X304800000Y-98425000D03*
D15*
X304800000Y-111125000D03*
D14*
X297180000Y-98425000D03*
D15*
X297180000Y-111125000D03*
D14*
X292100000Y-135890000D03*
D15*
X292100000Y-123190000D03*
D14*
X266700000Y-98425000D03*
D15*
X266700000Y-111125000D03*
D14*
X271780000Y-98425000D03*
D15*
X271780000Y-111125000D03*
D14*
X276860000Y-98425000D03*
D15*
X276860000Y-111125000D03*
D14*
X321310000Y-98425000D03*
D15*
X321310000Y-111125000D03*
D14*
X284480000Y-98425000D03*
D15*
X284480000Y-111125000D03*
D14*
X307340000Y-127635000D03*
D15*
X307340000Y-114935000D03*
D14*
X292100000Y-98425000D03*
D15*
X292100000Y-111125000D03*
D14*
X307340000Y-98425000D03*
D15*
X307340000Y-111125000D03*
D14*
X309880000Y-98425000D03*
D15*
X309880000Y-111125000D03*
D27*
X316230000Y-102870000D03*
D17*
X316230000Y-107950000D03*
X316230000Y-105410000D03*
D29*
X280940000Y-87630000D03*
X288290000Y-87630000D03*
X295640000Y-87630000D03*
X283290000Y-90130000D03*
X293290000Y-90130000D03*
X280940000Y-92630000D03*
X295640000Y-92630000D03*
X288290000Y-92630000D03*
X290790000Y-77630000D03*
X285790000Y-77630000D03*
X293290000Y-77630000D03*
X283290000Y-77630000D03*
D30*
X238760000Y-83820000D03*
D31*
X251460000Y-83820000D03*
D10*
X34280000Y-307980000D03*
D11*
X34280000Y-305440000D03*
X34280000Y-302900000D03*
X34280000Y-300360000D03*
X34280000Y-297820000D03*
X34280000Y-295280000D03*
X34280000Y-292740000D03*
X26660000Y-292740000D03*
X26660000Y-295280000D03*
X26660000Y-297820000D03*
X26660000Y-300360000D03*
X26660000Y-302900000D03*
X26660000Y-305440000D03*
X26660000Y-307980000D03*
D14*
X372745000Y-198755000D03*
D15*
X372745000Y-211455000D03*
D12*
X350520000Y-217845000D03*
X350520000Y-222845000D03*
D10*
X122555000Y-349885000D03*
D11*
X122555000Y-347345000D03*
X122555000Y-344805000D03*
X122555000Y-342265000D03*
X122555000Y-339725000D03*
X122555000Y-337185000D03*
X122555000Y-334645000D03*
X114935000Y-334645000D03*
X114935000Y-337185000D03*
X114935000Y-339725000D03*
X114935000Y-342265000D03*
X114935000Y-344805000D03*
X114935000Y-347345000D03*
X114935000Y-349885000D03*
D14*
X342265000Y-295275000D03*
D15*
X333375000Y-295275000D03*
D14*
X362585000Y-198755000D03*
D15*
X362585000Y-211455000D03*
D29*
X371696000Y-247285000D03*
X371696000Y-254635000D03*
X371696000Y-261985000D03*
X369196000Y-249635000D03*
X369196000Y-259635000D03*
X366696000Y-247285000D03*
X366696000Y-261985000D03*
X381696000Y-257135000D03*
X381696000Y-252135000D03*
X381696000Y-259635000D03*
X381696000Y-249635000D03*
D14*
X361315000Y-267335000D03*
D15*
X352425000Y-267335000D03*
D10*
X59690000Y-340995000D03*
D11*
X59690000Y-338455000D03*
X59690000Y-335915000D03*
X59690000Y-333375000D03*
X59690000Y-330835000D03*
X59690000Y-328295000D03*
X59690000Y-325755000D03*
X59690000Y-323215000D03*
X52070000Y-323215000D03*
X52070000Y-325755000D03*
X52070000Y-328295000D03*
X52070000Y-330835000D03*
X52070000Y-333375000D03*
X52070000Y-335915000D03*
X52070000Y-338455000D03*
X52070000Y-340995000D03*
D14*
X288925000Y-250825000D03*
D15*
X288925000Y-263525000D03*
D20*
X74310000Y-144780000D03*
D23*
X76850000Y-144780000D03*
X79390000Y-144780000D03*
D18*
X232410000Y-97292349D03*
D12*
X232410000Y-102292349D03*
D14*
X259080000Y-90805000D03*
D15*
X271780000Y-90805000D03*
D14*
X349885000Y-282575000D03*
D15*
X358775000Y-282575000D03*
D10*
X143500000Y-237495000D03*
D11*
X143500000Y-234955000D03*
X143500000Y-232415000D03*
X143500000Y-229875000D03*
X143500000Y-227335000D03*
X143500000Y-224795000D03*
X143500000Y-222255000D03*
X135880000Y-222255000D03*
X135880000Y-224795000D03*
X135880000Y-227335000D03*
X135880000Y-229875000D03*
X135880000Y-232415000D03*
X135880000Y-234955000D03*
X135880000Y-237495000D03*
D22*
X253365000Y-126355000D03*
D23*
X253365000Y-123815000D03*
X253365000Y-121275000D03*
X253365000Y-118735000D03*
D10*
X199390000Y-330835000D03*
D11*
X199390000Y-328295000D03*
X199390000Y-325755000D03*
X199390000Y-323215000D03*
X199390000Y-320675000D03*
X199390000Y-318135000D03*
X199390000Y-315595000D03*
X199390000Y-313055000D03*
X199390000Y-310515000D03*
X199390000Y-307975000D03*
X191770000Y-307975000D03*
X191770000Y-310515000D03*
X191770000Y-313055000D03*
X191770000Y-315595000D03*
X191770000Y-318135000D03*
X191770000Y-320675000D03*
X191770000Y-323215000D03*
X191770000Y-325755000D03*
X191770000Y-328295000D03*
X191770000Y-330835000D03*
D29*
X371475000Y-303165000D03*
X371475000Y-310515000D03*
X371475000Y-317865000D03*
X368975000Y-305515000D03*
X368975000Y-315515000D03*
X366475000Y-310515000D03*
X381475000Y-313015000D03*
X381475000Y-308015000D03*
X381475000Y-315515000D03*
X381475000Y-305515000D03*
D14*
X52070000Y-95250000D03*
D15*
X39370000Y-95250000D03*
D10*
X138420000Y-325740000D03*
D11*
X138420000Y-323200000D03*
X138420000Y-320660000D03*
X138420000Y-318120000D03*
X138420000Y-315580000D03*
X138420000Y-313040000D03*
X138420000Y-310500000D03*
X138420000Y-307960000D03*
X130800000Y-307960000D03*
X130800000Y-310500000D03*
X130800000Y-313040000D03*
X130800000Y-315580000D03*
X130800000Y-318120000D03*
X130800000Y-320660000D03*
X130800000Y-323200000D03*
X130800000Y-325740000D03*
D14*
X212725000Y-121920000D03*
D15*
X225425000Y-121920000D03*
D10*
X122545000Y-292730000D03*
D11*
X122545000Y-290190000D03*
X122545000Y-287650000D03*
X122545000Y-285110000D03*
X122545000Y-282570000D03*
X122545000Y-280030000D03*
X122545000Y-277490000D03*
X122545000Y-274950000D03*
X122545000Y-272410000D03*
X122545000Y-269870000D03*
X114925000Y-269870000D03*
X114925000Y-272410000D03*
X114925000Y-274950000D03*
X114925000Y-277490000D03*
X114925000Y-280030000D03*
X114925000Y-282570000D03*
X114925000Y-285110000D03*
X114925000Y-287650000D03*
X114925000Y-290190000D03*
X114925000Y-292730000D03*
D18*
X357505000Y-198755000D03*
D11*
X357505000Y-211455000D03*
D14*
X366420000Y-340995000D03*
D15*
X366420000Y-328295000D03*
D14*
X349885000Y-111125000D03*
D15*
X362585000Y-111125000D03*
D32*
X232390600Y-86995000D03*
D33*
X232390600Y-89535000D03*
X232390600Y-92075000D03*
D14*
X352425000Y-247015000D03*
D15*
X361315000Y-247015000D03*
D34*
X304800000Y-381635000D03*
D12*
X350480000Y-321945000D03*
X345480000Y-321945000D03*
X351830000Y-277495000D03*
X356830000Y-277495000D03*
D14*
X342265000Y-313055000D03*
D15*
X333375000Y-313055000D03*
D12*
X350480000Y-316865000D03*
X345480000Y-316865000D03*
D14*
X349885000Y-274955000D03*
D15*
X358775000Y-274955000D03*
D27*
X359050000Y-189865000D03*
D17*
X359050000Y-194945000D03*
X359050000Y-192405000D03*
D12*
X361950000Y-217845000D03*
X361950000Y-222845000D03*
D10*
X207000000Y-130815000D03*
D11*
X207000000Y-128275000D03*
X207000000Y-125735000D03*
X207000000Y-123195000D03*
X207000000Y-120655000D03*
X207000000Y-118115000D03*
X207000000Y-115575000D03*
X199380000Y-115575000D03*
X199380000Y-118115000D03*
X199380000Y-120655000D03*
X199380000Y-123195000D03*
X199380000Y-125735000D03*
X199380000Y-128275000D03*
X199380000Y-130815000D03*
D10*
X171440000Y-176515000D03*
D11*
X171440000Y-173975000D03*
X171440000Y-171435000D03*
X171440000Y-168895000D03*
X171440000Y-166355000D03*
X171440000Y-163815000D03*
X171440000Y-161275000D03*
X171440000Y-158735000D03*
X163820000Y-158735000D03*
X163820000Y-161275000D03*
X163820000Y-163815000D03*
X163820000Y-166355000D03*
X163820000Y-168895000D03*
X163820000Y-171435000D03*
X163820000Y-173975000D03*
X163820000Y-176515000D03*
D35*
X209470000Y-99585000D03*
X199470000Y-102085000D03*
X209470000Y-104585000D03*
D14*
X251460000Y-102235000D03*
D15*
X238760000Y-102235000D03*
D20*
X220360000Y-104140000D03*
D23*
X222900000Y-104140000D03*
X225440000Y-104140000D03*
D10*
X346710000Y-179070000D03*
D11*
X346710000Y-176530000D03*
X346710000Y-173990000D03*
X346710000Y-171450000D03*
X346710000Y-168910000D03*
X346710000Y-166370000D03*
X346710000Y-163830000D03*
X346710000Y-161290000D03*
X346710000Y-158750000D03*
X346710000Y-156210000D03*
X346710000Y-153670000D03*
X346710000Y-151130000D03*
X346710000Y-148590000D03*
X346710000Y-146050000D03*
X331470000Y-146050000D03*
X331470000Y-148590000D03*
X331470000Y-151130000D03*
X331470000Y-153670000D03*
X331470000Y-156210000D03*
X331470000Y-158750000D03*
X331470000Y-161290000D03*
X331470000Y-163830000D03*
X331470000Y-166370000D03*
X331470000Y-168910000D03*
X331470000Y-171450000D03*
X331470000Y-173990000D03*
X331470000Y-176530000D03*
X331470000Y-179070000D03*
D12*
X346750000Y-300990000D03*
X351750000Y-300990000D03*
D10*
X341630000Y-234315000D03*
D11*
X341630000Y-231775000D03*
X341630000Y-229235000D03*
X341630000Y-226695000D03*
X341630000Y-224155000D03*
X341630000Y-221615000D03*
X341630000Y-219075000D03*
X334010000Y-219075000D03*
X334010000Y-221615000D03*
X334010000Y-224155000D03*
X334010000Y-226695000D03*
X334010000Y-229235000D03*
X334010000Y-231775000D03*
X334010000Y-234315000D03*
D34*
X19685000Y-139700000D03*
D14*
X363855000Y-340995000D03*
D15*
X363855000Y-328295000D03*
D14*
X225425000Y-127000000D03*
D15*
X212725000Y-127000000D03*
D14*
X352425000Y-249555000D03*
D15*
X361315000Y-249555000D03*
D13*
X152537349Y-328295000D03*
D12*
X157537349Y-328295000D03*
D10*
X138430000Y-292735000D03*
D11*
X138430000Y-290195000D03*
X138430000Y-287655000D03*
X138430000Y-285115000D03*
X138430000Y-282575000D03*
X138430000Y-280035000D03*
X138430000Y-277495000D03*
X138430000Y-274955000D03*
X138430000Y-272415000D03*
X138430000Y-269875000D03*
X130810000Y-269875000D03*
X130810000Y-272415000D03*
X130810000Y-274955000D03*
X130810000Y-277495000D03*
X130810000Y-280035000D03*
X130810000Y-282575000D03*
X130810000Y-285115000D03*
X130810000Y-287655000D03*
X130810000Y-290195000D03*
X130810000Y-292735000D03*
D10*
X100320000Y-234955000D03*
D11*
X100320000Y-232415000D03*
X100320000Y-229875000D03*
X100320000Y-227335000D03*
X100320000Y-224795000D03*
X100320000Y-222255000D03*
X100320000Y-219715000D03*
X92700000Y-219715000D03*
X92700000Y-222255000D03*
X92700000Y-224795000D03*
X92700000Y-227335000D03*
X92700000Y-229875000D03*
X92700000Y-232415000D03*
X92700000Y-234955000D03*
D14*
X352425000Y-264795000D03*
D15*
X361315000Y-264795000D03*
D14*
X361315000Y-257175000D03*
D15*
X352425000Y-257175000D03*
D14*
X238760000Y-97155000D03*
D15*
X251460000Y-97155000D03*
D10*
X138430000Y-349885000D03*
D11*
X138430000Y-347345000D03*
X138430000Y-344805000D03*
X138430000Y-342265000D03*
X138430000Y-339725000D03*
X138430000Y-337185000D03*
X138430000Y-334645000D03*
X130810000Y-334645000D03*
X130810000Y-337185000D03*
X130810000Y-339725000D03*
X130810000Y-342265000D03*
X130810000Y-344805000D03*
X130810000Y-347345000D03*
X130810000Y-349885000D03*
D10*
X353060000Y-313055000D03*
D11*
X353060000Y-310515000D03*
X353060000Y-307975000D03*
X353060000Y-305435000D03*
X345440000Y-305435000D03*
X345440000Y-307975000D03*
X345440000Y-310515000D03*
X345440000Y-313055000D03*
D10*
X339090000Y-133350000D03*
D11*
X339090000Y-130810000D03*
X339090000Y-128270000D03*
X339090000Y-125730000D03*
X339090000Y-123190000D03*
X339090000Y-120650000D03*
X339090000Y-118110000D03*
X331470000Y-118110000D03*
X331470000Y-120650000D03*
X331470000Y-123190000D03*
X331470000Y-125730000D03*
X331470000Y-128270000D03*
X331470000Y-130810000D03*
X331470000Y-133350000D03*
D12*
X361315000Y-294600000D03*
X361315000Y-289600000D03*
D20*
X259715000Y-250825000D03*
D23*
X262255000Y-250825000D03*
X264795000Y-250825000D03*
X267335000Y-250825000D03*
D14*
X223520000Y-206375000D03*
D15*
X232410000Y-206375000D03*
D10*
X120650000Y-236220000D03*
D11*
X120650000Y-233680000D03*
X120650000Y-231140000D03*
X120650000Y-228600000D03*
X120650000Y-226060000D03*
X120650000Y-223520000D03*
X120650000Y-220980000D03*
X120650000Y-218440000D03*
X113030000Y-218440000D03*
X113030000Y-220980000D03*
X113030000Y-223520000D03*
X113030000Y-226060000D03*
X113030000Y-228600000D03*
X113030000Y-231140000D03*
X113030000Y-233680000D03*
X113030000Y-236220000D03*
D14*
X361315000Y-241935000D03*
D15*
X352425000Y-241935000D03*
D13*
X238760000Y-104775000D03*
D11*
X251460000Y-104775000D03*
D13*
X193177349Y-298450000D03*
D12*
X198177349Y-298450000D03*
D14*
X238760000Y-94615000D03*
D15*
X251460000Y-94615000D03*
D12*
X225425000Y-132080000D03*
X220425000Y-132080000D03*
D10*
X207000000Y-161295000D03*
D11*
X207000000Y-158755000D03*
X207000000Y-156215000D03*
X207000000Y-153675000D03*
X207000000Y-151135000D03*
X207000000Y-148595000D03*
X207000000Y-146055000D03*
X199380000Y-146055000D03*
X199380000Y-148595000D03*
X199380000Y-151135000D03*
X199380000Y-153675000D03*
X199380000Y-156215000D03*
X199380000Y-158755000D03*
X199380000Y-161295000D03*
D14*
X52070000Y-97790000D03*
D15*
X39370000Y-97790000D03*
D34*
X379730000Y-278130000D03*
D14*
X342265000Y-300355000D03*
D15*
X333375000Y-300355000D03*
D27*
X365400000Y-189865000D03*
D17*
X365400000Y-194945000D03*
X365400000Y-192405000D03*
D12*
X354330000Y-217845000D03*
X354330000Y-222845000D03*
D10*
X34290000Y-107950000D03*
D11*
X34290000Y-105410000D03*
X34290000Y-102870000D03*
X34290000Y-100330000D03*
X34290000Y-97790000D03*
X34290000Y-95250000D03*
X34290000Y-92710000D03*
X26670000Y-92710000D03*
X26670000Y-95250000D03*
X26670000Y-97790000D03*
X26670000Y-100330000D03*
X26670000Y-102870000D03*
X26670000Y-105410000D03*
X26670000Y-107950000D03*
D14*
X333375000Y-319405000D03*
D15*
X342265000Y-319405000D03*
D14*
X361315000Y-252095000D03*
D15*
X352425000Y-252095000D03*
D14*
X349885000Y-103505000D03*
D15*
X362585000Y-103505000D03*
D13*
X334685000Y-325120000D03*
D12*
X339685000Y-325120000D03*
D10*
X85080000Y-287005000D03*
D11*
X85080000Y-284465000D03*
X85080000Y-281925000D03*
X85080000Y-279385000D03*
X85080000Y-276845000D03*
X85080000Y-274305000D03*
X85080000Y-271765000D03*
X85080000Y-269225000D03*
X77460000Y-269225000D03*
X77460000Y-271765000D03*
X77460000Y-274305000D03*
X77460000Y-276845000D03*
X77460000Y-279385000D03*
X77460000Y-281925000D03*
X77460000Y-284465000D03*
X77460000Y-287005000D03*
D14*
X333375000Y-290195000D03*
D15*
X342265000Y-290195000D03*
D14*
X342265000Y-297815000D03*
D15*
X333375000Y-297815000D03*
D12*
X43220000Y-103505000D03*
X48220000Y-103505000D03*
D14*
X361315000Y-340995000D03*
D15*
X361315000Y-328295000D03*
D35*
X209470000Y-86885000D03*
X199470000Y-89385000D03*
X209470000Y-91885000D03*
D14*
X333375000Y-302895000D03*
D15*
X342265000Y-302895000D03*
D14*
X358775000Y-340995000D03*
D15*
X358775000Y-328295000D03*
D14*
X259080000Y-88265000D03*
D15*
X271780000Y-88265000D03*
D17*
X354935000Y-149770000D03*
X354935000Y-144870000D03*
D14*
X342265000Y-287655000D03*
D15*
X333375000Y-287655000D03*
D12*
X333395000Y-292735000D03*
X335895000Y-292735000D03*
X351830000Y-285115000D03*
X356830000Y-285115000D03*
D14*
X352425000Y-244475000D03*
D15*
X361315000Y-244475000D03*
D14*
X352425000Y-269875000D03*
D15*
X361315000Y-269875000D03*
D12*
X365760000Y-217845000D03*
X365760000Y-222845000D03*
D36*
X195580000Y-118110000D03*
D23*
X195580000Y-120650000D03*
X195580000Y-123190000D03*
D14*
X358775000Y-280035000D03*
D15*
X349885000Y-280035000D03*
D37*
X339090000Y-256422500D03*
D21*
X339090000Y-258962500D03*
X336550000Y-256422500D03*
X336550000Y-258962500D03*
X334010000Y-256422500D03*
X334010000Y-258962500D03*
X331470000Y-256422500D03*
X331470000Y-258962500D03*
X328930000Y-256422500D03*
X328930000Y-258962500D03*
X326390000Y-256422500D03*
X326390000Y-258962500D03*
X323850000Y-256422500D03*
X323850000Y-258962500D03*
X321310000Y-256422500D03*
X321310000Y-258962500D03*
X318770000Y-256422500D03*
X318770000Y-258962500D03*
X316230000Y-256422500D03*
X316230000Y-258962500D03*
X313690000Y-256422500D03*
X313690000Y-258962500D03*
X311150000Y-256422500D03*
X311150000Y-258962500D03*
X308610000Y-256422500D03*
X308610000Y-258962500D03*
D20*
X74310000Y-138430000D03*
D23*
X76850000Y-138430000D03*
X79390000Y-138430000D03*
D14*
X352425000Y-254635000D03*
D15*
X361315000Y-254635000D03*
D27*
X259080000Y-99695000D03*
D17*
X259080000Y-104775000D03*
X259080000Y-102235000D03*
D14*
X342265000Y-305435000D03*
D15*
X333375000Y-305435000D03*
D14*
X276225000Y-250825000D03*
D15*
X276225000Y-263525000D03*
D18*
X367665000Y-198755000D03*
D11*
X367665000Y-211455000D03*
D36*
X131445000Y-224790000D03*
D23*
X131445000Y-227330000D03*
X131445000Y-229870000D03*
D10*
X122555000Y-330835000D03*
D11*
X122555000Y-328295000D03*
X122555000Y-325755000D03*
X122555000Y-323215000D03*
X122555000Y-320675000D03*
X122555000Y-318135000D03*
X122555000Y-315595000D03*
X122555000Y-313055000D03*
X122555000Y-310515000D03*
X122555000Y-307975000D03*
X114935000Y-307975000D03*
X114935000Y-310515000D03*
X114935000Y-313055000D03*
X114935000Y-315595000D03*
X114935000Y-318135000D03*
X114935000Y-320675000D03*
X114935000Y-323215000D03*
X114935000Y-325755000D03*
X114935000Y-328295000D03*
X114935000Y-330835000D03*
D13*
X193177349Y-337185000D03*
D12*
X198177349Y-337185000D03*
D10*
X182235000Y-374000000D03*
D11*
X182235000Y-371460000D03*
X182235000Y-368920000D03*
X182235000Y-366380000D03*
X182235000Y-363840000D03*
X182235000Y-361300000D03*
X182235000Y-358760000D03*
X182235000Y-356220000D03*
X174615000Y-356220000D03*
X174615000Y-358760000D03*
X174615000Y-361300000D03*
X174615000Y-363840000D03*
X174615000Y-366380000D03*
X174615000Y-368920000D03*
X174615000Y-371460000D03*
X174615000Y-374000000D03*
D14*
X333375000Y-285115000D03*
D15*
X342265000Y-285115000D03*
D10*
X34290000Y-138430000D03*
D11*
X34290000Y-135890000D03*
X34290000Y-133350000D03*
X34290000Y-130810000D03*
X34290000Y-128270000D03*
X34290000Y-125730000D03*
X34290000Y-123190000D03*
X26670000Y-123190000D03*
X26670000Y-125730000D03*
X26670000Y-128270000D03*
X26670000Y-130810000D03*
X26670000Y-133350000D03*
X26670000Y-135890000D03*
X26670000Y-138430000D03*
D14*
X283845000Y-250825000D03*
D15*
X283845000Y-263525000D03*
D10*
X341630000Y-208915000D03*
D11*
X341630000Y-206375000D03*
X341630000Y-203835000D03*
X341630000Y-201295000D03*
X341630000Y-198755000D03*
X341630000Y-196215000D03*
X341630000Y-193675000D03*
X334010000Y-193675000D03*
X334010000Y-196215000D03*
X334010000Y-198755000D03*
X334010000Y-201295000D03*
X334010000Y-203835000D03*
X334010000Y-206375000D03*
X334010000Y-208915000D03*
D14*
X349885000Y-298450000D03*
D15*
X358775000Y-298450000D03*
D10*
X171450000Y-207010000D03*
D11*
X171450000Y-204470000D03*
X171450000Y-201930000D03*
X171450000Y-199390000D03*
X171450000Y-196850000D03*
X171450000Y-194310000D03*
X171450000Y-191770000D03*
X171450000Y-189230000D03*
X171450000Y-186690000D03*
X171450000Y-184150000D03*
X163830000Y-184150000D03*
X163830000Y-186690000D03*
X163830000Y-189230000D03*
X163830000Y-191770000D03*
X163830000Y-194310000D03*
X163830000Y-196850000D03*
X163830000Y-199390000D03*
X163830000Y-201930000D03*
X163830000Y-204470000D03*
X163830000Y-207010000D03*
D17*
X60930000Y-100330000D03*
X60930000Y-95430000D03*
D24*
X334005000Y-247015000D03*
D23*
X331465000Y-247015000D03*
D10*
X106685000Y-300345000D03*
D11*
X106685000Y-297805000D03*
X106685000Y-295265000D03*
X106685000Y-292725000D03*
X106685000Y-290185000D03*
X106685000Y-287645000D03*
X106685000Y-285105000D03*
X106685000Y-282565000D03*
X106685000Y-280025000D03*
X106685000Y-277485000D03*
X106685000Y-274945000D03*
X106685000Y-272405000D03*
X106685000Y-269865000D03*
X106685000Y-267325000D03*
X91445000Y-267325000D03*
X91445000Y-269865000D03*
X91445000Y-272405000D03*
X91445000Y-274945000D03*
X91445000Y-277485000D03*
X91445000Y-280025000D03*
X91445000Y-282565000D03*
X91445000Y-285105000D03*
X91445000Y-287645000D03*
X91445000Y-290185000D03*
X91445000Y-292725000D03*
X91445000Y-295265000D03*
X91445000Y-297805000D03*
X91445000Y-300345000D03*
D10*
X122545000Y-374020000D03*
D11*
X122545000Y-371480000D03*
X122545000Y-368940000D03*
X122545000Y-366400000D03*
X122545000Y-363860000D03*
X122545000Y-361320000D03*
X122545000Y-358780000D03*
X114925000Y-358780000D03*
X114925000Y-361320000D03*
X114925000Y-363860000D03*
X114925000Y-366400000D03*
X114925000Y-368940000D03*
X114925000Y-371480000D03*
X114925000Y-374020000D03*
D10*
X106680000Y-349885000D03*
D11*
X106680000Y-347345000D03*
X106680000Y-344805000D03*
X106680000Y-342265000D03*
X106680000Y-339725000D03*
X106680000Y-337185000D03*
X106680000Y-334645000D03*
X99060000Y-334645000D03*
X99060000Y-337185000D03*
X99060000Y-339725000D03*
X99060000Y-342265000D03*
X99060000Y-344805000D03*
X99060000Y-347345000D03*
X99060000Y-349885000D03*
D34*
X182880000Y-246380000D03*
D13*
X202565000Y-81715000D03*
D12*
X207565000Y-81715000D03*
D14*
X361315000Y-262255000D03*
D15*
X352425000Y-262255000D03*
D34*
X92710000Y-381635000D03*
D14*
X251460000Y-86995000D03*
D15*
X238760000Y-86995000D03*
D34*
X241935000Y-252095000D03*
D14*
X238760000Y-92075000D03*
D15*
X251460000Y-92075000D03*
D10*
X120650000Y-151765000D03*
D11*
X120650000Y-149225000D03*
X120650000Y-146685000D03*
X120650000Y-144145000D03*
X120650000Y-141605000D03*
X120650000Y-139065000D03*
X120650000Y-136525000D03*
X120650000Y-133985000D03*
X120650000Y-131445000D03*
X120650000Y-128905000D03*
X113030000Y-128905000D03*
X113030000Y-131445000D03*
X113030000Y-133985000D03*
X113030000Y-136525000D03*
X113030000Y-139065000D03*
X113030000Y-141605000D03*
X113030000Y-144145000D03*
X113030000Y-146685000D03*
X113030000Y-149225000D03*
X113030000Y-151765000D03*
D14*
X216535000Y-249555000D03*
D15*
X225425000Y-249555000D03*
D14*
X281305000Y-250825000D03*
D15*
X281305000Y-263525000D03*
D10*
X337810000Y-348620000D03*
D11*
X337810000Y-346080000D03*
X337810000Y-343540000D03*
X337810000Y-341000000D03*
X337810000Y-338460000D03*
X337810000Y-335920000D03*
X337810000Y-333380000D03*
X330190000Y-333380000D03*
X330190000Y-335920000D03*
X330190000Y-338460000D03*
X330190000Y-341000000D03*
X330190000Y-343540000D03*
X330190000Y-346080000D03*
X330190000Y-348620000D03*
D14*
X342265000Y-277495000D03*
D15*
X333375000Y-277495000D03*
D27*
X351790000Y-289560000D03*
D17*
X351790000Y-294640000D03*
X351790000Y-292100000D03*
D10*
X171440000Y-240025000D03*
D11*
X171440000Y-237485000D03*
X171440000Y-234945000D03*
X171440000Y-232405000D03*
X171440000Y-229865000D03*
X171440000Y-227325000D03*
X171440000Y-224785000D03*
X171440000Y-222245000D03*
X171440000Y-219705000D03*
X171440000Y-217165000D03*
X163820000Y-217165000D03*
X163820000Y-219705000D03*
X163820000Y-222245000D03*
X163820000Y-224785000D03*
X163820000Y-227325000D03*
X163820000Y-229865000D03*
X163820000Y-232405000D03*
X163820000Y-234945000D03*
X163820000Y-237485000D03*
X163820000Y-240025000D03*
D27*
X356555000Y-289560000D03*
D17*
X356555000Y-294640000D03*
X356555000Y-292100000D03*
D10*
X138420000Y-374020000D03*
D11*
X138420000Y-371480000D03*
X138420000Y-368940000D03*
X138420000Y-366400000D03*
X138420000Y-363860000D03*
X138420000Y-361320000D03*
X138420000Y-358780000D03*
X130800000Y-358780000D03*
X130800000Y-361320000D03*
X130800000Y-363860000D03*
X130800000Y-366400000D03*
X130800000Y-368940000D03*
X130800000Y-371480000D03*
X130800000Y-374020000D03*
D10*
X207010000Y-194310000D03*
D11*
X207010000Y-191770000D03*
X207010000Y-189230000D03*
X207010000Y-186690000D03*
X207010000Y-184150000D03*
X207010000Y-181610000D03*
X207010000Y-179070000D03*
X207010000Y-176530000D03*
X199390000Y-176530000D03*
X199390000Y-179070000D03*
X199390000Y-181610000D03*
X199390000Y-184150000D03*
X199390000Y-186690000D03*
X199390000Y-189230000D03*
X199390000Y-191770000D03*
X199390000Y-194310000D03*
D14*
X278765000Y-250825000D03*
D15*
X278765000Y-263525000D03*
D14*
X349885000Y-108560000D03*
D15*
X362585000Y-108560000D03*
D18*
X377825000Y-203200000D03*
D12*
X377825000Y-205700000D03*
D38*
X374015000Y-231140000D03*
X370015000Y-231140000D03*
X366015000Y-231140000D03*
X374015000Y-237140000D03*
X370015000Y-237140000D03*
X366015000Y-237140000D03*
D22*
X109855000Y-234955000D03*
D23*
X109855000Y-232415000D03*
D14*
X354965000Y-198755000D03*
D15*
X354965000Y-211455000D03*
D14*
X349885000Y-106045000D03*
D15*
X362585000Y-106045000D03*
D12*
X358140000Y-217845000D03*
X358140000Y-222845000D03*
D34*
X304800000Y-78105000D03*
D14*
X342265000Y-310515000D03*
D15*
X333375000Y-310515000D03*
D14*
X370205000Y-198755000D03*
D15*
X370205000Y-211455000D03*
D34*
X92710000Y-78105000D03*
D20*
X143510000Y-258445000D03*
D23*
X146050000Y-258445000D03*
D22*
X363220000Y-282580000D03*
D23*
X363220000Y-280040000D03*
D10*
X143500000Y-145400000D03*
D11*
X143500000Y-142860000D03*
X143500000Y-140320000D03*
X143500000Y-137780000D03*
X143500000Y-135240000D03*
X143500000Y-132700000D03*
X143500000Y-130160000D03*
X143500000Y-127620000D03*
X135880000Y-127620000D03*
X135880000Y-130160000D03*
X135880000Y-132700000D03*
X135880000Y-135240000D03*
X135880000Y-137780000D03*
X135880000Y-140320000D03*
X135880000Y-142860000D03*
X135880000Y-145400000D03*
D14*
X286385000Y-250825000D03*
D15*
X286385000Y-263525000D03*
D36*
X103505000Y-219710000D03*
D23*
X103505000Y-222250000D03*
D14*
X360045000Y-198755000D03*
D15*
X360045000Y-211455000D03*
D12*
X346710000Y-217845000D03*
X346710000Y-222845000D03*
D14*
X352425000Y-259715000D03*
D15*
X361315000Y-259715000D03*
D14*
X342265000Y-315595000D03*
D15*
X333375000Y-315595000D03*
D13*
X212725000Y-124460000D03*
D11*
X225425000Y-124460000D03*
D10*
X100335000Y-140960000D03*
D11*
X100335000Y-138420000D03*
X100335000Y-135880000D03*
X100335000Y-133340000D03*
X100335000Y-130800000D03*
X100335000Y-128260000D03*
X100335000Y-125720000D03*
X100335000Y-123180000D03*
X100335000Y-120640000D03*
X100335000Y-118100000D03*
X100335000Y-115560000D03*
X100335000Y-113020000D03*
X100335000Y-110480000D03*
X100335000Y-107940000D03*
X85095000Y-107940000D03*
X85095000Y-110480000D03*
X85095000Y-113020000D03*
X85095000Y-115560000D03*
X85095000Y-118100000D03*
X85095000Y-120640000D03*
X85095000Y-123180000D03*
X85095000Y-125720000D03*
X85095000Y-128260000D03*
X85095000Y-130800000D03*
X85095000Y-133340000D03*
X85095000Y-135880000D03*
X85095000Y-138420000D03*
X85095000Y-140960000D03*
D34*
X19685000Y-278130000D03*
D10*
X106680000Y-374015000D03*
D11*
X106680000Y-371475000D03*
X106680000Y-368935000D03*
X106680000Y-366395000D03*
X106680000Y-363855000D03*
X106680000Y-361315000D03*
X106680000Y-358775000D03*
X106680000Y-356235000D03*
X99060000Y-356235000D03*
X99060000Y-358775000D03*
X99060000Y-361315000D03*
X99060000Y-363855000D03*
X99060000Y-366395000D03*
X99060000Y-368935000D03*
X99060000Y-371475000D03*
X99060000Y-374015000D03*
D14*
X365125000Y-211455000D03*
D15*
X365125000Y-198755000D03*
D13*
X238760000Y-89535000D03*
D11*
X251460000Y-89535000D03*
D10*
X280670000Y-194310000D03*
D11*
X280670000Y-191770000D03*
X280670000Y-189230000D03*
X280670000Y-186690000D03*
X280670000Y-184150000D03*
X280670000Y-181610000D03*
X280670000Y-179070000D03*
X280670000Y-176530000D03*
X280670000Y-173990000D03*
X280670000Y-171450000D03*
X280670000Y-168910000D03*
X280670000Y-166370000D03*
X280670000Y-163830000D03*
X280670000Y-161290000D03*
X280670000Y-158750000D03*
X280670000Y-156210000D03*
X280670000Y-153670000D03*
X280670000Y-151130000D03*
X280670000Y-148590000D03*
X280670000Y-146050000D03*
X265430000Y-146050000D03*
X265430000Y-148590000D03*
X265430000Y-151130000D03*
X265430000Y-153670000D03*
X265430000Y-156210000D03*
X265430000Y-158750000D03*
X265430000Y-161290000D03*
X265430000Y-163830000D03*
X265430000Y-166370000D03*
X265430000Y-168910000D03*
X265430000Y-171450000D03*
X265430000Y-173990000D03*
X265430000Y-176530000D03*
X265430000Y-179070000D03*
X265430000Y-181610000D03*
X265430000Y-184150000D03*
X265430000Y-186690000D03*
X265430000Y-189230000D03*
X265430000Y-191770000D03*
X265430000Y-194310000D03*
D14*
X251460000Y-99695000D03*
D15*
X238760000Y-99695000D03*
D10*
X362575000Y-133355000D03*
D11*
X362575000Y-130815000D03*
X362575000Y-128275000D03*
X362575000Y-125735000D03*
X362575000Y-123195000D03*
X362575000Y-120655000D03*
X362575000Y-118115000D03*
X354955000Y-118115000D03*
X354955000Y-120655000D03*
X354955000Y-123195000D03*
X354955000Y-125735000D03*
X354955000Y-128275000D03*
X354955000Y-130815000D03*
X354955000Y-133355000D03*
D34*
X379730000Y-139700000D03*
D14*
X342265000Y-280035000D03*
D15*
X333375000Y-280035000D03*
D14*
X52070000Y-100330000D03*
D15*
X39370000Y-100330000D03*
D10*
X361950000Y-179070000D03*
D11*
X361950000Y-176530000D03*
X361950000Y-173990000D03*
X361950000Y-171450000D03*
X361950000Y-168910000D03*
X361950000Y-166370000D03*
X361950000Y-163830000D03*
X354330000Y-163830000D03*
X354330000Y-166370000D03*
X354330000Y-168910000D03*
X354330000Y-171450000D03*
X354330000Y-173990000D03*
X354330000Y-176530000D03*
X354330000Y-179070000D03*
D10*
X326380000Y-208920000D03*
D11*
X326380000Y-206380000D03*
X326380000Y-203840000D03*
X326380000Y-201300000D03*
X326380000Y-198760000D03*
X326380000Y-196220000D03*
X326380000Y-193680000D03*
X318760000Y-193680000D03*
X318760000Y-196220000D03*
X318760000Y-198760000D03*
X318760000Y-201300000D03*
X318760000Y-203840000D03*
X318760000Y-206380000D03*
X318760000Y-208920000D03*
D14*
X333375000Y-307975000D03*
D15*
X342265000Y-307975000D03*
G36*
X380864471Y-314158131D02*
G01*
X381030719Y-314235653D01*
X381133032Y-314263068D01*
X381134446Y-314264482D01*
X381133928Y-314266414D01*
X381133032Y-314266932D01*
X381030719Y-314294347D01*
X380861023Y-314373477D01*
X380859031Y-314373302D01*
X380858186Y-314371490D01*
X380858792Y-314370222D01*
X380904444Y-314326345D01*
X380920505Y-314258977D01*
X380897565Y-314193541D01*
X380862280Y-314161423D01*
X380861672Y-314159518D01*
X380863018Y-314158039D01*
X380864471Y-314158131D01*
G37*
G36*
X382095750Y-314154469D02*
G01*
X382096595Y-314156281D01*
X382095953Y-314157582D01*
X382047383Y-314202032D01*
X382029680Y-314268991D01*
X382051004Y-314334942D01*
X382088206Y-314368804D01*
X382088814Y-314370709D01*
X382087468Y-314372188D01*
X382086015Y-314372096D01*
X381919281Y-314294347D01*
X381816968Y-314266932D01*
X381815554Y-314265518D01*
X381816072Y-314263586D01*
X381816968Y-314263068D01*
X381919281Y-314235653D01*
X382093758Y-314154294D01*
X382095750Y-314154469D01*
G37*
G36*
X380864471Y-306658131D02*
G01*
X381030719Y-306735653D01*
X381133032Y-306763068D01*
X381134446Y-306764482D01*
X381133928Y-306766414D01*
X381133032Y-306766932D01*
X381030719Y-306794347D01*
X380861023Y-306873477D01*
X380859031Y-306873302D01*
X380858186Y-306871490D01*
X380858792Y-306870222D01*
X380904444Y-306826345D01*
X380920505Y-306758977D01*
X380897565Y-306693541D01*
X380862280Y-306661423D01*
X380861672Y-306659518D01*
X380863018Y-306658039D01*
X380864471Y-306658131D01*
G37*
G36*
X382095750Y-306654469D02*
G01*
X382096595Y-306656281D01*
X382095953Y-306657582D01*
X382047383Y-306702032D01*
X382029680Y-306768991D01*
X382051004Y-306834942D01*
X382088206Y-306868804D01*
X382088814Y-306870709D01*
X382087468Y-306872188D01*
X382086015Y-306872096D01*
X381919281Y-306794347D01*
X381816968Y-306766932D01*
X381815554Y-306765518D01*
X381816072Y-306763586D01*
X381816968Y-306763068D01*
X381919281Y-306735653D01*
X382093758Y-306654294D01*
X382095750Y-306654469D01*
G37*
G36*
X381085471Y-258278131D02*
G01*
X381251719Y-258355653D01*
X381354032Y-258383068D01*
X381355446Y-258384482D01*
X381354928Y-258386414D01*
X381354032Y-258386932D01*
X381251719Y-258414347D01*
X381082023Y-258493477D01*
X381080031Y-258493302D01*
X381079186Y-258491490D01*
X381079792Y-258490222D01*
X381125444Y-258446345D01*
X381141505Y-258378977D01*
X381118565Y-258313541D01*
X381083280Y-258281423D01*
X381082672Y-258279518D01*
X381084018Y-258278039D01*
X381085471Y-258278131D01*
G37*
G36*
X382316750Y-258274469D02*
G01*
X382317595Y-258276281D01*
X382316953Y-258277582D01*
X382268383Y-258322032D01*
X382250680Y-258388991D01*
X382272004Y-258454942D01*
X382309206Y-258488804D01*
X382309814Y-258490709D01*
X382308468Y-258492188D01*
X382307015Y-258492096D01*
X382140281Y-258414347D01*
X382037968Y-258386932D01*
X382036554Y-258385518D01*
X382037072Y-258383586D01*
X382037968Y-258383068D01*
X382140281Y-258355653D01*
X382314758Y-258274294D01*
X382316750Y-258274469D01*
G37*
G36*
X381085471Y-250778131D02*
G01*
X381251719Y-250855653D01*
X381354032Y-250883068D01*
X381355446Y-250884482D01*
X381354928Y-250886414D01*
X381354032Y-250886932D01*
X381251719Y-250914347D01*
X381082023Y-250993477D01*
X381080031Y-250993302D01*
X381079186Y-250991490D01*
X381079792Y-250990222D01*
X381125444Y-250946345D01*
X381141505Y-250878977D01*
X381118565Y-250813541D01*
X381083280Y-250781423D01*
X381082672Y-250779518D01*
X381084018Y-250778039D01*
X381085471Y-250778131D01*
G37*
G36*
X382316750Y-250774469D02*
G01*
X382317595Y-250776281D01*
X382316953Y-250777582D01*
X382268383Y-250822032D01*
X382250680Y-250888991D01*
X382272004Y-250954942D01*
X382309206Y-250988804D01*
X382309814Y-250990709D01*
X382308468Y-250992188D01*
X382307015Y-250992096D01*
X382140281Y-250914347D01*
X382037968Y-250886932D01*
X382036554Y-250885518D01*
X382037072Y-250883586D01*
X382037968Y-250883068D01*
X382140281Y-250855653D01*
X382314758Y-250774294D01*
X382316750Y-250774469D01*
G37*
G36*
X292041414Y-77971072D02*
G01*
X292041932Y-77971968D01*
X292069347Y-78074281D01*
X292148878Y-78244836D01*
X292148703Y-78246828D01*
X292146891Y-78247673D01*
X292145360Y-78246726D01*
X292144543Y-78245393D01*
X292092961Y-78198725D01*
X292024636Y-78187403D01*
X291960959Y-78214850D01*
X291932893Y-78250376D01*
X291931035Y-78251115D01*
X291929466Y-78249875D01*
X291929511Y-78248291D01*
X292010653Y-78074281D01*
X292038068Y-77971968D01*
X292039482Y-77970554D01*
X292041414Y-77971072D01*
G37*
G36*
X284541414Y-77971072D02*
G01*
X284541932Y-77971968D01*
X284569347Y-78074281D01*
X284648878Y-78244836D01*
X284648703Y-78246828D01*
X284646891Y-78247673D01*
X284645360Y-78246726D01*
X284644543Y-78245393D01*
X284592961Y-78198725D01*
X284524636Y-78187403D01*
X284460959Y-78214850D01*
X284432893Y-78250376D01*
X284431035Y-78251115D01*
X284429466Y-78249875D01*
X284429511Y-78248291D01*
X284510653Y-78074281D01*
X284538068Y-77971968D01*
X284539482Y-77970554D01*
X284541414Y-77971072D01*
G37*
G36*
X292162141Y-76984986D02*
G01*
X292162152Y-76986698D01*
X292069347Y-77185719D01*
X292041932Y-77288032D01*
X292040518Y-77289446D01*
X292038586Y-77288928D01*
X292038068Y-77288032D01*
X292010653Y-77185719D01*
X291924505Y-77000974D01*
X291924680Y-76998982D01*
X291926492Y-76998137D01*
X291927997Y-76999043D01*
X291937024Y-77012996D01*
X291989729Y-77058387D01*
X292058311Y-77068036D01*
X292121299Y-77039040D01*
X292152106Y-76998023D01*
X292157341Y-76986746D01*
X292157503Y-76986461D01*
X292158687Y-76984726D01*
X292160489Y-76983859D01*
X292162141Y-76984986D01*
G37*
G36*
X284662141Y-76984986D02*
G01*
X284662152Y-76986698D01*
X284569347Y-77185719D01*
X284541932Y-77288032D01*
X284540518Y-77289446D01*
X284538586Y-77288928D01*
X284538068Y-77288032D01*
X284510653Y-77185719D01*
X284424505Y-77000974D01*
X284424680Y-76998982D01*
X284426492Y-76998137D01*
X284427997Y-76999043D01*
X284437024Y-77012996D01*
X284489729Y-77058387D01*
X284558311Y-77068036D01*
X284621299Y-77039040D01*
X284652106Y-76998023D01*
X284657341Y-76986746D01*
X284657503Y-76986461D01*
X284658687Y-76984726D01*
X284660489Y-76983859D01*
X284662141Y-76984986D01*
G37*
M02*
